HubotSans-RegularWide.ufo
<glyph name="exclam" format="2">
  <advance width="212"/>
  <unicode hex="0021"/>
  <outline>
    <contour>
      <point x="84" y="204" type="line"/>
      <point x="129" y="204" type="line"/>
      <point x="148" y="489" type="line"/>
      <point x="148" y="729" type="line"/>
      <point x="63" y="729" type="line"/>
      <point x="63" y="489" type="line"/>
    </contour>
    <contour>
      <point x="63" y="0" type="line"/>
      <point x="150" y="0" type="line"/>
      <point x="150" y="98" type="line"/>
      <point x="63" y="98" type="line"/>
    </contour>
  </outline>
</glyph>
<glyph name="numbersign" format="2">
  <advance width="729"/>
  <unicode hex="0023"/>
  <outline>
    <contour>
      <point x="175" y="0" type="line"/>
      <point x="253" y="0" type="line"/>
      <point x="253" y="199" type="line"/>
      <point x="482" y="199" type="line"/>
      <point x="482" y="0" type="line"/>
      <point x="559" y="0" type="line"/>
      <point x="559" y="199" type="line"/>
      <point x="698" y="199" type="line"/>
      <point x="698" y="273" type="line"/>
      <point x="559" y="273" type="line"/>
      <point x="559" y="473" type="line"/>
      <point x="698" y="473" type="line"/>
      <point x="698" y="544" type="line"/>
      <point x="559" y="544" type="line"/>
      <point x="559" y="729" type="line"/>
      <point x="482" y="729" type="line"/>
      <point x="482" y="544" type="line"/>
      <point x="253" y="544" type="line"/>
      <point x="253" y="729" type="line"/>
      <point x="175" y="729" type="line"/>
      <point x="175" y="544" type="line"/>
      <point x="31" y="544" type="line"/>
      <point x="31" y="473" type="line"/>
      <point x="175" y="473" type="line"/>
      <point x="175" y="273" type="line"/>
      <point x="31" y="273" type="line"/>
      <point x="31" y="199" type="line"/>
      <point x="175" y="199" type="line"/>
    </contour>
    <contour>
      <point x="253" y="273" type="line"/>
      <point x="253" y="473" type="line"/>
      <point x="482" y="473" type="line"/>
      <point x="482" y="273" type="line"/>
    </contour>
  </outline>
</glyph>
<glyph name="ampersand" format="2">
  <advance width="800"/>
  <unicode hex="0026"/>
  <outline>
    <contour>
      <point x="273" y="-11" type="curve" smooth="yes"/>
      <point x="376" y="-11"/>
      <point x="466" y="29"/>
      <point x="514" y="106" type="curve"/>
      <point x="637" y="-3" type="line"/>
      <point x="762" y="-3" type="line"/>
      <point x="557" y="179" type="line"/>
      <point x="569" y="207"/>
      <point x="577" y="240"/>
      <point x="581" y="276" type="curve"/>
      <point x="723" y="276" type="line"/>
      <point x="723" y="347" type="line"/>
      <point x="511" y="347" type="line"/>
      <point x="511" y="327" type="line" smooth="yes"/>
      <point x="511" y="292"/>
      <point x="506" y="262"/>
      <point x="497" y="232" type="curve"/>
      <point x="335" y="376" type="line"/>
      <point x="439" y="426"/>
      <point x="496" y="491"/>
      <point x="496" y="563" type="curve" smooth="yes"/>
      <point x="496" y="586" type="line" smooth="yes"/>
      <point x="496" y="678"/>
      <point x="426" y="741"/>
      <point x="303" y="741" type="curve" smooth="yes"/>
      <point x="175" y="741"/>
      <point x="97" y="677"/>
      <point x="97" y="580" type="curve" smooth="yes"/>
      <point x="97" y="557" type="line" smooth="yes"/>
      <point x="97" y="504"/>
      <point x="128" y="458"/>
      <point x="202" y="389" type="curve"/>
      <point x="201" y="384" type="line"/>
      <point x="106" y="337"/>
      <point x="45" y="272"/>
      <point x="45" y="186" type="curve" smooth="yes"/>
      <point x="45" y="168" type="line" smooth="yes"/>
      <point x="45" y="61"/>
      <point x="137" y="-11"/>
    </contour>
    <contour>
      <point x="286" y="64" type="curve" smooth="yes"/>
      <point x="195" y="64"/>
      <point x="136" y="110"/>
      <point x="136" y="177" type="curve" smooth="yes"/>
      <point x="136" y="194" type="line" smooth="yes"/>
      <point x="136" y="243"/>
      <point x="161" y="289"/>
      <point x="255" y="337" type="curve"/>
      <point x="458" y="156" type="line"/>
      <point x="429" y="98"/>
      <point x="366" y="64"/>
    </contour>
    <contour>
      <point x="287" y="417" type="curve"/>
      <point x="215" y="479"/>
      <point x="185" y="515"/>
      <point x="185" y="559" type="curve" smooth="yes"/>
      <point x="185" y="584" type="line" smooth="yes"/>
      <point x="185" y="637"/>
      <point x="223" y="675"/>
      <point x="303" y="675" type="curve" smooth="yes"/>
      <point x="379" y="675"/>
      <point x="413" y="640"/>
      <point x="413" y="584" type="curve" smooth="yes"/>
      <point x="413" y="560" type="line" smooth="yes"/>
      <point x="413" y="507"/>
      <point x="372" y="467"/>
    </contour>
  </outline>
</glyph>
<glyph name="quotesingle" format="2">
  <advance width="162"/>
  <unicode hex="0027"/>
  <anchor x="-27" y="0" name="#entry"/>
  <anchor x="159" y="0" name="#exit"/>
  <outline>
    <contour>
      <point x="60" y="416" type="line"/>
      <point x="99" y="416" type="line"/>
      <point x="119" y="586" type="line"/>
      <point x="119" y="729" type="line"/>
      <point x="43" y="729" type="line"/>
      <point x="43" y="586" type="line"/>
    </contour>
  </outline>
</glyph>
<glyph name="parenleft" format="2">
  <advance width="332"/>
  <unicode hex="0028"/>
  <outline>
    <contour>
      <point x="229" y="-167" type="curve"/>
      <point x="304" y="-167" type="line"/>
      <point x="200" y="-63"/>
      <point x="130" y="122"/>
      <point x="130" y="313" type="curve" smooth="yes"/>
      <point x="130" y="497"/>
      <point x="195" y="685"/>
      <point x="304" y="793" type="curve"/>
      <point x="229" y="793" type="line"/>
      <point x="114" y="689"/>
      <point x="45" y="501"/>
      <point x="45" y="313" type="curve" smooth="yes"/>
      <point x="45" y="125"/>
      <point x="114" y="-63"/>
    </contour>
  </outline>
</glyph>
<glyph name="asterisk" format="2">
  <advance width="312"/>
  <unicode hex="002A"/>
  <outline>
    <contour>
      <point x="134" y="433" type="line"/>
      <point x="179" y="433" type="line"/>
      <point x="179" y="488" type="line"/>
      <point x="167" y="559" type="line"/>
      <point x="225" y="512" type="line"/>
      <point x="273" y="486" type="line"/>
      <point x="296" y="528" type="line"/>
      <point x="247" y="555" type="line"/>
      <point x="183" y="582" type="line"/>
      <point x="247" y="607" type="line"/>
      <point x="295" y="635" type="line"/>
      <point x="273" y="676" type="line"/>
      <point x="225" y="650" type="line"/>
      <point x="167" y="605" type="line"/>
      <point x="179" y="674" type="line"/>
      <point x="179" y="729" type="line"/>
      <point x="134" y="729" type="line"/>
      <point x="134" y="674" type="line"/>
      <point x="144" y="605" type="line"/>
      <point x="90" y="650" type="line"/>
      <point x="38" y="676" type="line"/>
      <point x="18" y="635" type="line"/>
      <point x="66" y="607" type="line"/>
      <point x="130" y="582" type="line"/>
      <point x="66" y="555" type="line"/>
      <point x="17" y="528" type="line"/>
      <point x="38" y="486" type="line"/>
      <point x="90" y="512" type="line"/>
      <point x="144" y="559" type="line"/>
      <point x="134" y="488" type="line"/>
    </contour>
  </outline>
</glyph>
<glyph name="plus" format="2">
  <advance width="720"/>
  <unicode hex="002B"/>
  <outline>
    <contour>
      <point x="319" y="116" type="line"/>
      <point x="401" y="116" type="line"/>
      <point x="401" y="614" type="line"/>
      <point x="319" y="614" type="line"/>
    </contour>
    <contour>
      <point x="112" y="324" type="line"/>
      <point x="608" y="324" type="line"/>
      <point x="608" y="406" type="line"/>
      <point x="112" y="406" type="line"/>
    </contour>
  </outline>
</glyph>
<glyph name="comma" format="2">
  <advance width="204"/>
  <unicode hex="002C"/>
  <anchor x="-9" y="0" name="#entry"/>
  <anchor x="181" y="0" name="#exit"/>
  <anchor x="102" y="525" name="top"/>
  <outline>
    <contour>
      <point x="25" y="-154" type="line"/>
      <point x="99" y="-154" type="line"/>
      <point x="162" y="3" type="line"/>
      <point x="162" y="107" type="line"/>
      <point x="42" y="107" type="line"/>
      <point x="42" y="0" type="line"/>
      <point x="102" y="0" type="line"/>
    </contour>
  </outline>
</glyph>
<glyph name="hyphen" format="2">
  <advance width="391"/>
  <unicode hex="002D"/>
  <outline>
    <contour>
      <point x="42" y="283" type="line"/>
      <point x="349" y="283" type="line"/>
      <point x="349" y="363" type="line"/>
      <point x="42" y="363" type="line"/>
    </contour>
  </outline>
</glyph>
<glyph name="period" format="2">
  <advance width="203"/>
  <unicode hex="002E"/>
  <anchor x="-4" y="0" name="#entry"/>
  <anchor x="201" y="0" name="#exit"/>
  <anchor x="102" y="107" name="_top"/>
  <anchor x="102" y="525" name="top"/>
  <outline>
    <contour>
      <point x="42" y="0" type="line"/>
      <point x="161" y="0" type="line"/>
      <point x="161" y="107" type="line"/>
      <point x="42" y="107" type="line"/>
    </contour>
  </outline>
</glyph>
<glyph name="slash" format="2">
  <advance width="507"/>
  <unicode hex="002F"/>
  <outline>
    <contour>
      <point x="2" y="-81" type="line"/>
      <point x="90" y="-81" type="line"/>
      <point x="475" y="729" type="line"/>
      <point x="389" y="729" type="line"/>
    </contour>
  </outline>
</glyph>
<glyph name="zero" format="2">
  <advance width="775"/>
  <unicode hex="0030"/>
  <note>
zero
</note>
  <outline>
    <contour>
      <point x="386" y="-12" type="curve" smooth="yes"/>
      <point x="590" y="-12"/>
      <point x="727" y="100"/>
      <point x="727" y="354" type="curve" smooth="yes"/>
      <point x="727" y="376" type="line" smooth="yes"/>
      <point x="727" y="625"/>
      <point x="592" y="741"/>
      <point x="386" y="741" type="curve" smooth="yes"/>
      <point x="184" y="741"/>
      <point x="48" y="629"/>
      <point x="48" y="376" type="curve" smooth="yes"/>
      <point x="48" y="354" type="line" smooth="yes"/>
      <point x="48" y="104"/>
      <point x="182" y="-12"/>
    </contour>
    <contour>
      <point x="387" y="76" type="curve" smooth="yes"/>
      <point x="228" y="76"/>
      <point x="150" y="163"/>
      <point x="150" y="297" type="curve" smooth="yes"/>
      <point x="150" y="432" type="line" smooth="yes"/>
      <point x="150" y="565"/>
      <point x="228" y="654"/>
      <point x="387" y="654" type="curve" smooth="yes"/>
      <point x="547" y="654"/>
      <point x="625" y="565"/>
      <point x="625" y="432" type="curve" smooth="yes"/>
      <point x="625" y="297" type="line" smooth="yes"/>
      <point x="625" y="163"/>
      <point x="547" y="76"/>
    </contour>
    <contour>
      <point x="103" y="327" type="line"/>
      <point x="669" y="327" type="line"/>
      <point x="669" y="402" type="line"/>
      <point x="103" y="402" type="line"/>
    </contour>
  </outline>
</glyph>
<glyph name="one" format="2">
  <advance width="407"/>
  <unicode hex="0031"/>
  <note>
one
</note>
  <outline>
    <contour>
      <point x="239" y="0" type="line"/>
      <point x="335" y="0" type="line"/>
      <point x="335" y="729" type="line"/>
      <point x="254" y="729" type="line"/>
      <point x="240" y="610" type="line"/>
      <point x="37" y="610" type="line"/>
      <point x="37" y="526" type="line"/>
      <point x="239" y="526" type="line"/>
    </contour>
  </outline>
</glyph>
<glyph name="two" format="2">
  <advance width="692"/>
  <unicode hex="0032"/>
  <note>
two
</note>
  <outline>
    <contour>
      <point x="55" y="0" type="line"/>
      <point x="653" y="0" type="line"/>
      <point x="653" y="86" type="line"/>
      <point x="266" y="86" type="line"/>
      <point x="198" y="84" type="line"/>
      <point x="198" y="88" type="line"/>
      <point x="218" y="99" type="line"/>
      <point x="449" y="248" type="line" smooth="yes"/>
      <point x="580" y="333"/>
      <point x="629" y="406"/>
      <point x="629" y="508" type="curve" smooth="yes"/>
      <point x="629" y="646"/>
      <point x="519" y="741"/>
      <point x="348" y="741" type="curve" smooth="yes"/>
      <point x="170" y="741"/>
      <point x="55" y="644"/>
      <point x="39" y="497" type="curve"/>
      <point x="138" y="497" type="line"/>
      <point x="147" y="587"/>
      <point x="216" y="653"/>
      <point x="342" y="653" type="curve" smooth="yes"/>
      <point x="455" y="653"/>
      <point x="529" y="600"/>
      <point x="529" y="508" type="curve" smooth="yes"/>
      <point x="529" y="490" type="line" smooth="yes"/>
      <point x="529" y="433"/>
      <point x="495" y="384"/>
      <point x="403" y="321" type="curve" smooth="yes"/>
      <point x="55" y="82" type="line"/>
    </contour>
  </outline>
</glyph>
<glyph name="three" format="2">
  <advance width="694"/>
  <unicode hex="0033"/>
  <note>
three
</note>
  <outline>
    <contour>
      <point x="335" y="-12" type="curve" smooth="yes"/>
      <point x="527" y="-12"/>
      <point x="652" y="69"/>
      <point x="652" y="201" type="curve" smooth="yes"/>
      <point x="652" y="305"/>
      <point x="577" y="368"/>
      <point x="471" y="381" type="curve"/>
      <point x="471" y="387" type="line"/>
      <point x="567" y="408"/>
      <point x="630" y="468"/>
      <point x="630" y="551" type="curve" smooth="yes"/>
      <point x="630" y="677"/>
      <point x="508" y="741"/>
      <point x="349" y="741" type="curve" smooth="yes"/>
      <point x="173" y="741"/>
      <point x="56" y="655"/>
      <point x="46" y="525" type="curve"/>
      <point x="135" y="525" type="line"/>
      <point x="142" y="609"/>
      <point x="225" y="661"/>
      <point x="345" y="661" type="curve" smooth="yes"/>
      <point x="455" y="661"/>
      <point x="531" y="622"/>
      <point x="531" y="547" type="curve" smooth="yes"/>
      <point x="531" y="527" type="line" smooth="yes"/>
      <point x="531" y="462"/>
      <point x="464" y="416"/>
      <point x="363" y="416" type="curve" smooth="yes"/>
      <point x="301" y="416" type="line"/>
      <point x="301" y="340" type="line"/>
      <point x="370" y="340" type="line" smooth="yes"/>
      <point x="469" y="340"/>
      <point x="551" y="306"/>
      <point x="551" y="226" type="curve" smooth="yes"/>
      <point x="551" y="194" type="line" smooth="yes"/>
      <point x="551" y="118"/>
      <point x="468" y="68"/>
      <point x="338" y="68" type="curve" smooth="yes"/>
      <point x="214" y="68"/>
      <point x="141" y="116"/>
      <point x="132" y="211" type="curve"/>
      <point x="39" y="211" type="line"/>
      <point x="50" y="76"/>
      <point x="150" y="-12"/>
    </contour>
  </outline>
</glyph>
<glyph name="four" format="2">
  <advance width="763"/>
  <unicode hex="0034"/>
  <note>
four
</note>
  <outline>
    <contour>
      <point x="37" y="176" type="line"/>
      <point x="726" y="176" type="line"/>
      <point x="726" y="261" type="line"/>
      <point x="144" y="261" type="line"/>
      <point x="144" y="268" type="line"/>
      <point x="478" y="729" type="line"/>
      <point x="378" y="729" type="line"/>
      <point x="37" y="253" type="line"/>
    </contour>
    <contour>
      <point x="475" y="0" type="line"/>
      <point x="570" y="0" type="line"/>
      <point x="570" y="418" type="line"/>
      <point x="491" y="418" type="line"/>
      <point x="475" y="225" type="line"/>
    </contour>
  </outline>
</glyph>
<glyph name="five" format="2">
  <advance width="705"/>
  <unicode hex="0035"/>
  <note>
five
</note>
  <outline>
    <contour>
      <point x="344" y="-12" type="curve" smooth="yes"/>
      <point x="541" y="-12"/>
      <point x="661" y="86"/>
      <point x="661" y="237" type="curve" smooth="yes"/>
      <point x="661" y="380"/>
      <point x="564" y="473"/>
      <point x="387" y="473" type="curve" smooth="yes"/>
      <point x="301" y="473"/>
      <point x="223" y="450"/>
      <point x="164" y="401" type="curve"/>
      <point x="155" y="401" type="line"/>
      <point x="170" y="644" type="line"/>
      <point x="641" y="644" type="line"/>
      <point x="641" y="729" type="line"/>
      <point x="83" y="729" type="line"/>
      <point x="59" y="329" type="line"/>
      <point x="150" y="322" type="line"/>
      <point x="205" y="372"/>
      <point x="277" y="401"/>
      <point x="365" y="401" type="curve" smooth="yes"/>
      <point x="483" y="401"/>
      <point x="560" y="347"/>
      <point x="560" y="253" type="curve" smooth="yes"/>
      <point x="560" y="215" type="line" smooth="yes"/>
      <point x="560" y="126"/>
      <point x="474" y="69"/>
      <point x="343" y="69" type="curve" smooth="yes"/>
      <point x="225" y="69"/>
      <point x="146" y="120"/>
      <point x="136" y="205" type="curve"/>
      <point x="43" y="205" type="line"/>
      <point x="53" y="75"/>
      <point x="169" y="-12"/>
    </contour>
  </outline>
</glyph>
<glyph name="six" format="2">
  <advance width="734"/>
  <unicode hex="0036"/>
  <note>
six
</note>
  <outline>
    <contour>
      <point x="374" y="-12" type="curve" smooth="yes"/>
      <point x="558" y="-12"/>
      <point x="691" y="81"/>
      <point x="691" y="242" type="curve" smooth="yes"/>
      <point x="691" y="387"/>
      <point x="594" y="480"/>
      <point x="420" y="480" type="curve" smooth="yes"/>
      <point x="314" y="480"/>
      <point x="215" y="442"/>
      <point x="150" y="364" type="curve"/>
      <point x="143" y="364" type="line"/>
      <point x="144" y="382"/>
      <point x="145" y="409"/>
      <point x="145" y="433" type="curve" smooth="yes"/>
      <point x="145" y="582"/>
      <point x="232" y="664"/>
      <point x="383" y="664" type="curve" smooth="yes"/>
      <point x="482" y="664"/>
      <point x="563" y="627"/>
      <point x="583" y="551" type="curve"/>
      <point x="673" y="551" type="line"/>
      <point x="649" y="663"/>
      <point x="551" y="741"/>
      <point x="383" y="741" type="curve" smooth="yes"/>
      <point x="193" y="741"/>
      <point x="50" y="635"/>
      <point x="50" y="410" type="curve" smooth="yes"/>
      <point x="50" y="301" type="line" smooth="yes"/>
      <point x="50" y="108"/>
      <point x="161" y="-12"/>
    </contour>
    <contour>
      <point x="374" y="72" type="curve" smooth="yes"/>
      <point x="243" y="72"/>
      <point x="145" y="137"/>
      <point x="145" y="275" type="curve" smooth="yes"/>
      <point x="145" y="291" type="line"/>
      <point x="204" y="367"/>
      <point x="287" y="409"/>
      <point x="396" y="409" type="curve" smooth="yes"/>
      <point x="514" y="409"/>
      <point x="588" y="355"/>
      <point x="588" y="262" type="curve" smooth="yes"/>
      <point x="588" y="223" type="line" smooth="yes"/>
      <point x="588" y="132"/>
      <point x="501" y="72"/>
    </contour>
  </outline>
</glyph>
<glyph name="seven" format="2">
  <advance width="685"/>
  <unicode hex="0037"/>
  <note>
seven
</note>
  <outline>
    <contour>
      <point x="165" y="0" type="line"/>
      <point x="277" y="0" type="line"/>
      <point x="648" y="638" type="line"/>
      <point x="648" y="729" type="line"/>
      <point x="43" y="729" type="line"/>
      <point x="43" y="515" type="line"/>
      <point x="116" y="515" type="line"/>
      <point x="116" y="643" type="line"/>
      <point x="539" y="643" type="line"/>
      <point x="539" y="631" type="line"/>
    </contour>
  </outline>
</glyph>
<glyph name="eight" format="2">
  <advance width="716"/>
  <unicode hex="0038"/>
  <note>
eight
</note>
  <outline>
    <contour>
      <point x="357" y="-12" type="curve" smooth="yes"/>
      <point x="564" y="-12"/>
      <point x="674" y="66"/>
      <point x="674" y="194" type="curve" smooth="yes"/>
      <point x="674" y="299"/>
      <point x="598" y="359"/>
      <point x="492" y="378" type="curve"/>
      <point x="492" y="384" type="line"/>
      <point x="598" y="404"/>
      <point x="653" y="469"/>
      <point x="653" y="547" type="curve" smooth="yes"/>
      <point x="653" y="675"/>
      <point x="535" y="741"/>
      <point x="357" y="741" type="curve" smooth="yes"/>
      <point x="181" y="741"/>
      <point x="63" y="675"/>
      <point x="63" y="547" type="curve" smooth="yes"/>
      <point x="63" y="469"/>
      <point x="117" y="404"/>
      <point x="224" y="384" type="curve"/>
      <point x="224" y="378" type="line"/>
      <point x="117" y="359"/>
      <point x="43" y="298"/>
      <point x="43" y="193" type="curve" smooth="yes"/>
      <point x="43" y="66"/>
      <point x="153" y="-12"/>
    </contour>
    <contour>
      <point x="357" y="67" type="curve" smooth="yes"/>
      <point x="223" y="67"/>
      <point x="144" y="112"/>
      <point x="144" y="190" type="curve" smooth="yes"/>
      <point x="144" y="218" type="line" smooth="yes"/>
      <point x="144" y="284"/>
      <point x="201" y="342"/>
      <point x="358" y="342" type="curve" smooth="yes"/>
      <point x="514" y="342"/>
      <point x="572" y="284"/>
      <point x="572" y="218" type="curve" smooth="yes"/>
      <point x="572" y="190" type="line" smooth="yes"/>
      <point x="572" y="112"/>
      <point x="492" y="67"/>
    </contour>
    <contour>
      <point x="357" y="409" type="curve" smooth="yes"/>
      <point x="219" y="409"/>
      <point x="161" y="463"/>
      <point x="161" y="523" type="curve" smooth="yes"/>
      <point x="161" y="549" type="line" smooth="yes"/>
      <point x="161" y="619"/>
      <point x="234" y="662"/>
      <point x="357" y="662" type="curve" smooth="yes"/>
      <point x="483" y="662"/>
      <point x="555" y="619"/>
      <point x="555" y="549" type="curve" smooth="yes"/>
      <point x="555" y="523" type="line" smooth="yes"/>
      <point x="555" y="463"/>
      <point x="498" y="409"/>
    </contour>
  </outline>
</glyph>
<glyph name="equal" format="2">
  <advance width="720"/>
  <unicode hex="003D"/>
  <anchor x="360" y="361" name="center"/>
  <outline>
    <contour>
      <point x="111" y="434" type="line"/>
      <point x="609" y="434" type="line"/>
      <point x="609" y="516" type="line"/>
      <point x="111" y="516" type="line"/>
    </contour>
    <contour>
      <point x="111" y="214" type="line"/>
      <point x="609" y="214" type="line"/>
      <point x="609" y="296" type="line"/>
      <point x="111" y="296" type="line"/>
    </contour>
  </outline>
</glyph>
<glyph name="greater" format="2">
  <advance width="720"/>
  <unicode hex="003E"/>
  <outline>
    <contour>
      <point x="85" y="101" type="line"/>
      <point x="622" y="309" type="line"/>
      <point x="622" y="420" type="line"/>
      <point x="85" y="629" type="line"/>
      <point x="85" y="531" type="line"/>
      <point x="533" y="369" type="line"/>
      <point x="533" y="360" type="line"/>
      <point x="85" y="199" type="line"/>
    </contour>
  </outline>
</glyph>
<glyph name="question" format="2">
  <advance width="566"/>
  <unicode hex="003F"/>
  <outline>
    <contour>
      <point x="233" y="192" type="line"/>
      <point x="315" y="192" type="line"/>
      <point x="315" y="200" type="line" smooth="yes"/>
      <point x="315" y="308"/>
      <point x="526" y="356"/>
      <point x="526" y="538" type="curve" smooth="yes"/>
      <point x="526" y="660"/>
      <point x="434" y="739"/>
      <point x="280" y="739" type="curve" smooth="yes"/>
      <point x="131" y="739"/>
      <point x="31" y="662"/>
      <point x="24" y="528" type="curve"/>
      <point x="110" y="528" type="line"/>
      <point x="113" y="606"/>
      <point x="174" y="658"/>
      <point x="275" y="658" type="curve" smooth="yes"/>
      <point x="370" y="658"/>
      <point x="433" y="615"/>
      <point x="433" y="530" type="curve" smooth="yes"/>
      <point x="433" y="385"/>
      <point x="233" y="348"/>
      <point x="233" y="204" type="curve" smooth="yes"/>
    </contour>
    <contour>
      <point x="231" y="0" type="line"/>
      <point x="322" y="0" type="line"/>
      <point x="322" y="100" type="line"/>
      <point x="231" y="100" type="line"/>
    </contour>
  </outline>
</glyph>
<glyph name="at" format="2">
  <advance width="965"/>
  <unicode hex="0040"/>
  <outline>
    <contour>
      <point x="489" y="-101" type="curve" smooth="yes"/>
      <point x="584" y="-101"/>
      <point x="697" y="-72"/>
      <point x="757" y="-26" type="curve"/>
      <point x="731" y="29" type="line"/>
      <point x="674" y="-11"/>
      <point x="591" y="-36"/>
      <point x="489" y="-36" type="curve" smooth="yes"/>
      <point x="256" y="-36"/>
      <point x="105" y="89"/>
      <point x="105" y="317" type="curve" smooth="yes"/>
      <point x="105" y="524"/>
      <point x="254" y="673"/>
      <point x="491" y="673" type="curve" smooth="yes"/>
      <point x="713" y="673"/>
      <point x="865" y="548"/>
      <point x="865" y="361" type="curve" smooth="yes"/>
      <point x="865" y="244"/>
      <point x="811" y="166"/>
      <point x="729" y="166" type="curve" smooth="yes"/>
      <point x="673" y="166"/>
      <point x="641" y="197"/>
      <point x="648" y="289" type="curve" smooth="yes"/>
      <point x="666" y="504" type="line"/>
      <point x="617" y="504" type="line"/>
      <point x="606" y="431" type="line"/>
      <point x="601" y="431" type="line"/>
      <point x="583" y="481"/>
      <point x="528" y="515"/>
      <point x="461" y="515" type="curve" smooth="yes"/>
      <point x="347" y="515"/>
      <point x="270" y="427"/>
      <point x="270" y="297" type="curve" smooth="yes"/>
      <point x="270" y="173"/>
      <point x="350" y="107"/>
      <point x="445" y="107" type="curve" smooth="yes"/>
      <point x="508" y="107"/>
      <point x="573" y="137"/>
      <point x="597" y="202" type="curve"/>
      <point x="602" y="202" type="line"/>
      <point x="610" y="144"/>
      <point x="655" y="105"/>
      <point x="728" y="105" type="curve" smooth="yes"/>
      <point x="848" y="105"/>
      <point x="929" y="210"/>
      <point x="929" y="367" type="curve" smooth="yes"/>
      <point x="929" y="589"/>
      <point x="746" y="738"/>
      <point x="491" y="738" type="curve" smooth="yes"/>
      <point x="221" y="738"/>
      <point x="37" y="566"/>
      <point x="37" y="315" type="curve" smooth="yes"/>
      <point x="37" y="65"/>
      <point x="203" y="-101"/>
    </contour>
    <contour>
      <point x="455" y="168" type="curve" smooth="yes"/>
      <point x="383" y="168"/>
      <point x="336" y="215"/>
      <point x="336" y="300" type="curve" smooth="yes"/>
      <point x="336" y="392"/>
      <point x="383" y="456"/>
      <point x="472" y="456" type="curve" smooth="yes"/>
      <point x="543" y="456"/>
      <point x="591" y="404"/>
      <point x="595" y="319" type="curve"/>
      <point x="589" y="227"/>
      <point x="544" y="168"/>
    </contour>
  </outline>
</glyph>
<glyph name="A" format="2">
  <advance width="904"/>
  <unicode hex="0041"/>
  <note>
A
</note>
  <anchor x="768" y="0" name="#exit"/>
  <anchor x="452" y="0" name="bottom"/>
  <anchor x="871" y="0" name="ogonek"/>
  <anchor x="452" y="729" name="top"/>
  <outline>
    <contour>
      <point x="32" y="0" type="line"/>
      <point x="135" y="0" type="line"/>
      <point x="427" y="605" type="line"/>
      <point x="446" y="649" type="line"/>
      <point x="455" y="649" type="line"/>
      <point x="475" y="605" type="line"/>
      <point x="768" y="0" type="line"/>
      <point x="871" y="0" type="line"/>
      <point x="515" y="729" type="line"/>
      <point x="387" y="729" type="line"/>
    </contour>
    <contour>
      <point x="208" y="182" type="line"/>
      <point x="694" y="182" type="line"/>
      <point x="654" y="267" type="line"/>
      <point x="249" y="267" type="line"/>
    </contour>
  </outline>
</glyph>
<glyph name="B" format="2">
  <advance width="807"/>
  <unicode hex="0042"/>
  <note>
B
</note>
  <anchor x="401" y="0" name="bottom"/>
  <anchor x="401" y="729" name="top"/>
  <outline>
    <contour>
      <point x="72" y="0" type="line"/>
      <point x="501" y="0" type="line" smooth="yes"/>
      <point x="671" y="0"/>
      <point x="764" y="72"/>
      <point x="764" y="195" type="curve" smooth="yes"/>
      <point x="764" y="289"/>
      <point x="708" y="356"/>
      <point x="600" y="373" type="curve"/>
      <point x="600" y="380" type="line"/>
      <point x="689" y="398"/>
      <point x="744" y="462"/>
      <point x="744" y="547" type="curve" smooth="yes"/>
      <point x="744" y="660"/>
      <point x="663" y="729"/>
      <point x="514" y="729" type="curve" smooth="yes"/>
      <point x="72" y="729" type="line"/>
    </contour>
    <contour>
      <point x="169" y="83" type="line"/>
      <point x="169" y="646" type="line"/>
      <point x="502" y="646" type="line" smooth="yes"/>
      <point x="590" y="646"/>
      <point x="643" y="611"/>
      <point x="643" y="545" type="curve" smooth="yes"/>
      <point x="643" y="514" type="line" smooth="yes"/>
      <point x="643" y="453"/>
      <point x="598" y="410"/>
      <point x="500" y="410" type="curve" smooth="yes"/>
      <point x="154" y="410" type="line"/>
      <point x="154" y="330" type="line"/>
      <point x="504" y="330" type="line" smooth="yes"/>
      <point x="601" y="330"/>
      <point x="661" y="293"/>
      <point x="661" y="226" type="curve" smooth="yes"/>
      <point x="661" y="197" type="line" smooth="yes"/>
      <point x="661" y="127"/>
      <point x="607" y="83"/>
      <point x="502" y="83" type="curve" smooth="yes"/>
    </contour>
  </outline>
</glyph>
<glyph name="C" format="2">
  <advance width="893"/>
  <unicode hex="0043"/>
  <note>
C
</note>
  <anchor x="465" y="0" name="bottom"/>
  <anchor x="466" y="729" name="top"/>
  <outline>
    <contour>
      <point x="465" y="-11" type="curve" smooth="yes"/>
      <point x="674" y="-11"/>
      <point x="824" y="87"/>
      <point x="854" y="233" type="curve"/>
      <point x="753" y="233" type="line"/>
      <point x="719" y="130"/>
      <point x="613" y="75"/>
      <point x="466" y="75" type="curve" smooth="yes"/>
      <point x="268" y="75"/>
      <point x="148" y="184"/>
      <point x="148" y="337" type="curve" smooth="yes"/>
      <point x="148" y="392" type="line" smooth="yes"/>
      <point x="148" y="545"/>
      <point x="268" y="654"/>
      <point x="466" y="654" type="curve" smooth="yes"/>
      <point x="613" y="654"/>
      <point x="720" y="598"/>
      <point x="753" y="496" type="curve"/>
      <point x="854" y="496" type="line"/>
      <point x="824" y="642"/>
      <point x="678" y="741"/>
      <point x="466" y="741" type="curve" smooth="yes"/>
      <point x="217" y="741"/>
      <point x="44" y="598"/>
      <point x="44" y="371" type="curve" smooth="yes"/>
      <point x="44" y="358" type="line" smooth="yes"/>
      <point x="44" y="131"/>
      <point x="217" y="-11"/>
    </contour>
  </outline>
</glyph>
<glyph name="D" format="2">
  <advance width="857"/>
  <unicode hex="0044"/>
  <note>
D
</note>
  <anchor x="423" y="0" name="bottom"/>
  <anchor x="172" y="365" name="center"/>
  <anchor x="423" y="729" name="top"/>
  <outline>
    <contour>
      <point x="72" y="0" type="line"/>
      <point x="410" y="0" type="line" smooth="yes"/>
      <point x="659" y="0"/>
      <point x="811" y="130"/>
      <point x="811" y="352" type="curve" smooth="yes"/>
      <point x="811" y="378" type="line" smooth="yes"/>
      <point x="811" y="595"/>
      <point x="666" y="729"/>
      <point x="410" y="729" type="curve" smooth="yes"/>
      <point x="72" y="729" type="line"/>
    </contour>
    <contour>
      <point x="169" y="43" type="line"/>
      <point x="169" y="686" type="line"/>
      <point x="125" y="642" type="line"/>
      <point x="414" y="642" type="line" smooth="yes"/>
      <point x="590" y="642"/>
      <point x="707" y="557"/>
      <point x="707" y="403" type="curve" smooth="yes"/>
      <point x="707" y="326" type="line" smooth="yes"/>
      <point x="707" y="178"/>
      <point x="597" y="87"/>
      <point x="414" y="87" type="curve" smooth="yes"/>
      <point x="125" y="87" type="line"/>
    </contour>
  </outline>
</glyph>
<glyph name="E" format="2">
  <advance width="752"/>
  <unicode hex="0045"/>
  <note>
E
</note>
  <anchor x="72" y="0" name="#entry"/>
  <anchor x="369" y="0" name="bottom"/>
  <anchor x="710" y="0" name="ogonek"/>
  <anchor x="369" y="729" name="top"/>
  <anchor x="18" y="729" name="topleft"/>
  <outline>
    <contour>
      <point x="72" y="0" type="line"/>
      <point x="710" y="0" type="line"/>
      <point x="710" y="87" type="line"/>
      <point x="169" y="87" type="line"/>
      <point x="169" y="642" type="line"/>
      <point x="710" y="642" type="line"/>
      <point x="710" y="729" type="line"/>
      <point x="72" y="729" type="line"/>
    </contour>
    <contour>
      <point x="153" y="332" type="line"/>
      <point x="557" y="332" type="line"/>
      <point x="557" y="414" type="line"/>
      <point x="153" y="414" type="line"/>
    </contour>
  </outline>
</glyph>
<glyph name="F" format="2">
  <advance width="740"/>
  <unicode hex="0046"/>
  <note>
F
</note>
  <anchor x="360" y="0" name="bottom"/>
  <anchor x="360" y="729" name="top"/>
  <outline>
    <contour>
      <point x="72" y="0" type="line"/>
      <point x="169" y="0" type="line"/>
      <point x="169" y="642" type="line"/>
      <point x="704" y="642" type="line"/>
      <point x="704" y="729" type="line"/>
      <point x="72" y="729" type="line"/>
    </contour>
    <contour>
      <point x="153" y="308" type="line"/>
      <point x="652" y="308" type="line"/>
      <point x="652" y="396" type="line"/>
      <point x="153" y="396" type="line"/>
    </contour>
  </outline>
</glyph>
<glyph name="G" format="2">
  <advance width="914"/>
  <unicode hex="0047"/>
  <note>
G
</note>
  <anchor x="462" y="0" name="bottom"/>
  <anchor x="462" y="729" name="top"/>
  <outline>
    <contour>
      <point x="457" y="-10" type="curve" smooth="yes"/>
      <point x="588" y="-10"/>
      <point x="705" y="35"/>
      <point x="766" y="111" type="curve"/>
      <point x="773" y="111" type="line"/>
      <point x="782" y="0" type="line"/>
      <point x="857" y="0" type="line"/>
      <point x="857" y="376" type="line"/>
      <point x="481" y="376" type="line"/>
      <point x="481" y="297" type="line"/>
      <point x="760" y="297" type="line"/>
      <point x="760" y="226" type="line"/>
      <point x="726" y="135"/>
      <point x="608" y="75"/>
      <point x="467" y="75" type="curve" smooth="yes"/>
      <point x="269" y="75"/>
      <point x="149" y="184"/>
      <point x="149" y="337" type="curve" smooth="yes"/>
      <point x="149" y="392" type="line" smooth="yes"/>
      <point x="149" y="545"/>
      <point x="268" y="654"/>
      <point x="467" y="654" type="curve" smooth="yes"/>
      <point x="616" y="654"/>
      <point x="721" y="598"/>
      <point x="755" y="497" type="curve"/>
      <point x="857" y="497" type="line"/>
      <point x="826" y="642"/>
      <point x="678" y="741"/>
      <point x="467" y="741" type="curve" smooth="yes"/>
      <point x="218" y="741"/>
      <point x="45" y="598"/>
      <point x="45" y="369" type="curve" smooth="yes"/>
      <point x="45" y="358" type="line" smooth="yes"/>
      <point x="45" y="131"/>
      <point x="216" y="-10"/>
    </contour>
  </outline>
</glyph>
<glyph name="H" format="2">
  <advance width="897"/>
  <unicode hex="0048"/>
  <note>
H
</note>
  <anchor x="449" y="0" name="bottom"/>
  <anchor x="449" y="580" name="center"/>
  <anchor x="449" y="729" name="top"/>
  <anchor x="17" y="729" name="topleft"/>
  <outline>
    <contour>
      <point x="72" y="0" type="line"/>
      <point x="169" y="0" type="line"/>
      <point x="169" y="729" type="line"/>
      <point x="72" y="729" type="line"/>
    </contour>
    <contour>
      <point x="728" y="0" type="line"/>
      <point x="825" y="0" type="line"/>
      <point x="825" y="729" type="line"/>
      <point x="728" y="729" type="line"/>
    </contour>
    <contour>
      <point x="153" y="327" type="line"/>
      <point x="744" y="327" type="line"/>
      <point x="744" y="415" type="line"/>
      <point x="153" y="415" type="line"/>
    </contour>
  </outline>
</glyph>
<glyph name="I" format="2">
  <advance width="674"/>
  <unicode hex="0049"/>
  <note>
I
</note>
  <anchor x="338" y="0" name="bottom"/>
  <anchor x="632" y="0" name="ogonek"/>
  <anchor x="338" y="729" name="top"/>
  <anchor x="632" y="729" name="topleft"/>
  <outline>
    <contour>
      <point x="289" y="71" type="line"/>
      <point x="386" y="71" type="line"/>
      <point x="386" y="658" type="line"/>
      <point x="289" y="658" type="line"/>
    </contour>
    <contour>
      <point x="42" y="0" type="line"/>
      <point x="632" y="0" type="line"/>
      <point x="632" y="87" type="line"/>
      <point x="42" y="87" type="line"/>
    </contour>
    <contour>
      <point x="42" y="642" type="line"/>
      <point x="632" y="642" type="line"/>
      <point x="632" y="729" type="line"/>
      <point x="42" y="729" type="line"/>
    </contour>
  </outline>
</glyph>
<glyph name="J" format="2">
  <advance width="444"/>
  <unicode hex="004A"/>
  <note>
J
</note>
  <anchor x="229" y="0" name="bottom"/>
  <anchor x="326" y="729" name="top"/>
  <outline>
    <contour>
      <point x="36" y="0" type="line"/>
      <point x="284" y="0" type="line" smooth="yes"/>
      <point x="335" y="0"/>
      <point x="374" y="27"/>
      <point x="374" y="84" type="curve" smooth="yes"/>
      <point x="374" y="729" type="line"/>
      <point x="277" y="729" type="line"/>
      <point x="277" y="87" type="line"/>
      <point x="36" y="87" type="line"/>
    </contour>
  </outline>
</glyph>
<glyph name="K" format="2">
  <advance width="821"/>
  <unicode hex="004B"/>
  <note>
K
</note>
  <anchor x="391" y="0" name="bottom"/>
  <anchor x="391" y="729" name="top"/>
  <outline>
    <contour>
      <point x="72" y="0" type="line"/>
      <point x="169" y="0" type="line"/>
      <point x="169" y="253" type="line"/>
      <point x="309" y="363" type="line"/>
      <point x="664" y="0" type="line"/>
      <point x="789" y="0" type="line"/>
      <point x="385" y="420" type="line"/>
      <point x="777" y="729" type="line"/>
      <point x="649" y="729" type="line"/>
      <point x="169" y="354" type="line"/>
      <point x="169" y="729" type="line"/>
      <point x="72" y="729" type="line"/>
    </contour>
  </outline>
</glyph>
<glyph name="M" format="2">
  <advance width="1044"/>
  <unicode hex="004D"/>
  <note>
M
</note>
  <anchor x="522" y="0" name="bottom"/>
  <anchor x="522" y="729" name="top"/>
  <outline>
    <contour>
      <point x="72" y="0" type="line"/>
      <point x="168" y="0" type="line"/>
      <point x="168" y="577" type="line"/>
      <point x="168" y="642" type="line"/>
      <point x="178" y="642" type="line"/>
      <point x="205" y="576" type="line"/>
      <point x="466" y="0" type="line"/>
      <point x="578" y="0" type="line"/>
      <point x="838" y="570" type="line"/>
      <point x="867" y="642" type="line"/>
      <point x="877" y="642" type="line"/>
      <point x="877" y="577" type="line"/>
      <point x="877" y="0" type="line"/>
      <point x="972" y="0" type="line"/>
      <point x="972" y="729" type="line"/>
      <point x="813" y="729" type="line"/>
      <point x="551" y="153" type="line"/>
      <point x="527" y="99" type="line"/>
      <point x="518" y="99" type="line"/>
      <point x="493" y="152" type="line"/>
      <point x="233" y="729" type="line"/>
      <point x="72" y="729" type="line"/>
    </contour>
  </outline>
</glyph>
<glyph name="N" format="2">
  <advance width="883"/>
  <unicode hex="004E"/>
  <note>
N
</note>
  <anchor x="441" y="0" name="bottom"/>
  <anchor x="441" y="729" name="top"/>
  <outline>
    <contour>
      <point x="72" y="0" type="line"/>
      <point x="168" y="0" type="line"/>
      <point x="168" y="620" type="line"/>
      <point x="175" y="620" type="line"/>
      <point x="194" y="594" type="line"/>
      <point x="679" y="0" type="line"/>
      <point x="811" y="0" type="line"/>
      <point x="811" y="729" type="line"/>
      <point x="714" y="729" type="line"/>
      <point x="714" y="114" type="line"/>
      <point x="707" y="114" type="line"/>
      <point x="686" y="142" type="line"/>
      <point x="208" y="729" type="line"/>
      <point x="72" y="729" type="line"/>
    </contour>
  </outline>
</glyph>
<glyph name="O" format="2">
  <advance width="934"/>
  <unicode hex="004F"/>
  <note>
O
</note>
  <anchor x="466" y="0" name="bottom"/>
  <anchor x="466" y="365" name="center"/>
  <anchor x="834" y="10" name="ogonek"/>
  <anchor x="466" y="729" name="top"/>
  <anchor x="27" y="729" name="topleft"/>
  <anchor x="646" y="709" name="topright"/>
  <outline>
    <contour>
      <point x="466" y="-12" type="curve" smooth="yes"/>
      <point x="716" y="-12"/>
      <point x="890" y="131"/>
      <point x="890" y="358" type="curve" smooth="yes"/>
      <point x="890" y="371" type="line" smooth="yes"/>
      <point x="890" y="598"/>
      <point x="716" y="741"/>
      <point x="466" y="741" type="curve" smooth="yes"/>
      <point x="217" y="741"/>
      <point x="44" y="598"/>
      <point x="44" y="371" type="curve" smooth="yes"/>
      <point x="44" y="358" type="line" smooth="yes"/>
      <point x="44" y="131"/>
      <point x="217" y="-12"/>
    </contour>
    <contour>
      <point x="466" y="75" type="curve" smooth="yes"/>
      <point x="269" y="75"/>
      <point x="148" y="184"/>
      <point x="148" y="337" type="curve" smooth="yes"/>
      <point x="148" y="392" type="line" smooth="yes"/>
      <point x="148" y="545"/>
      <point x="269" y="654"/>
      <point x="466" y="654" type="curve" smooth="yes"/>
      <point x="663" y="654"/>
      <point x="786" y="545"/>
      <point x="786" y="392" type="curve" smooth="yes"/>
      <point x="786" y="337" type="line" smooth="yes"/>
      <point x="786" y="184"/>
      <point x="665" y="75"/>
    </contour>
  </outline>
</glyph>
<glyph name="P" format="2">
  <advance width="754"/>
  <unicode hex="0050"/>
  <note>
P
</note>
  <anchor x="369" y="0" name="bottom"/>
  <anchor x="369" y="729" name="top"/>
  <outline>
    <contour>
      <point x="72" y="0" type="line"/>
      <point x="169" y="0" type="line"/>
      <point x="169" y="643" type="line"/>
      <point x="457" y="643" type="line" smooth="yes"/>
      <point x="552" y="643"/>
      <point x="609" y="597"/>
      <point x="609" y="523" type="curve" smooth="yes"/>
      <point x="609" y="487" type="line" smooth="yes"/>
      <point x="609" y="414"/>
      <point x="552" y="368"/>
      <point x="457" y="368" type="curve" smooth="yes"/>
      <point x="154" y="368" type="line"/>
      <point x="154" y="284" type="line"/>
      <point x="453" y="284" type="line" smooth="yes"/>
      <point x="609" y="284"/>
      <point x="713" y="361"/>
      <point x="713" y="507" type="curve" smooth="yes"/>
      <point x="713" y="649"/>
      <point x="613" y="729"/>
      <point x="455" y="729" type="curve" smooth="yes"/>
      <point x="72" y="729" type="line"/>
    </contour>
  </outline>
</glyph>
<glyph name="R" format="2">
  <advance width="813"/>
  <unicode hex="0052"/>
  <note>
R
</note>
  <anchor x="403" y="0" name="bottom"/>
  <anchor x="403" y="729" name="top"/>
  <outline>
    <contour>
      <point x="72" y="0" type="line"/>
      <point x="169" y="0" type="line"/>
      <point x="169" y="643" type="line"/>
      <point x="493" y="643" type="line" smooth="yes"/>
      <point x="590" y="643"/>
      <point x="644" y="599"/>
      <point x="644" y="529" type="curve" smooth="yes"/>
      <point x="644" y="496" type="line" smooth="yes"/>
      <point x="644" y="425"/>
      <point x="590" y="382"/>
      <point x="493" y="382" type="curve" smooth="yes"/>
      <point x="154" y="382" type="line"/>
      <point x="154" y="297" type="line"/>
      <point x="390" y="297" type="line"/>
      <point x="658" y="0" type="line"/>
      <point x="780" y="0" type="line"/>
      <point x="498" y="314" type="line"/>
      <point x="498" y="309" type="line"/>
      <point x="512" y="309" type="line" smooth="yes"/>
      <point x="653" y="309"/>
      <point x="746" y="387"/>
      <point x="746" y="518" type="curve" smooth="yes"/>
      <point x="746" y="652"/>
      <point x="652" y="729"/>
      <point x="495" y="729" type="curve" smooth="yes"/>
      <point x="72" y="729" type="line"/>
    </contour>
  </outline>
</glyph>
<glyph name="S" format="2">
  <advance width="768"/>
  <unicode hex="0053"/>
  <note>
S
</note>
  <anchor x="381" y="0" name="bottom"/>
  <anchor x="381" y="729" name="top"/>
  <outline>
    <contour>
      <point x="393" y="-12" type="curve" smooth="yes"/>
      <point x="594" y="-12"/>
      <point x="726" y="61"/>
      <point x="726" y="199" type="curve" smooth="yes"/>
      <point x="726" y="336"/>
      <point x="616" y="384"/>
      <point x="478" y="405" type="curve" smooth="yes"/>
      <point x="324" y="429" type="line" smooth="yes"/>
      <point x="222" y="445"/>
      <point x="165" y="474"/>
      <point x="165" y="542" type="curve" smooth="yes"/>
      <point x="165" y="614"/>
      <point x="234" y="662"/>
      <point x="380" y="662" type="curve" smooth="yes"/>
      <point x="509" y="662"/>
      <point x="596" y="621"/>
      <point x="616" y="532" type="curve"/>
      <point x="714" y="532" type="line"/>
      <point x="695" y="660"/>
      <point x="578" y="740"/>
      <point x="380" y="740" type="curve" smooth="yes"/>
      <point x="198" y="740"/>
      <point x="63" y="668"/>
      <point x="63" y="531" type="curve" smooth="yes"/>
      <point x="63" y="405"/>
      <point x="176" y="361"/>
      <point x="301" y="341" type="curve" smooth="yes"/>
      <point x="457" y="315" type="line" smooth="yes"/>
      <point x="568" y="297"/>
      <point x="624" y="266"/>
      <point x="624" y="194" type="curve" smooth="yes"/>
      <point x="624" y="96"/>
      <point x="522" y="68"/>
      <point x="397" y="68" type="curve" smooth="yes"/>
      <point x="250" y="68"/>
      <point x="151" y="109"/>
      <point x="135" y="214" type="curve"/>
      <point x="37" y="214" type="line"/>
      <point x="51" y="80"/>
      <point x="165" y="-12"/>
    </contour>
  </outline>
</glyph>
<glyph name="T" format="2">
  <advance width="786"/>
  <unicode hex="0054"/>
  <note>
T
</note>
  <anchor x="393" y="0" name="bottom"/>
  <anchor x="393" y="365" name="center"/>
  <anchor x="393" y="729" name="top"/>
  <outline>
    <contour>
      <point x="345" y="0" type="line"/>
      <point x="442" y="0" type="line"/>
      <point x="442" y="642" type="line"/>
      <point x="750" y="642" type="line"/>
      <point x="750" y="729" type="line"/>
      <point x="36" y="729" type="line"/>
      <point x="36" y="642" type="line"/>
      <point x="345" y="642" type="line"/>
    </contour>
  </outline>
</glyph>
<glyph name="U" format="2">
  <advance width="859"/>
  <unicode hex="0055"/>
  <note>
U
</note>
  <anchor x="431" y="0" name="bottom"/>
  <anchor x="530" y="0" name="ogonek"/>
  <anchor x="431" y="729" name="top"/>
  <anchor x="750" y="729" name="topright"/>
  <outline>
    <contour>
      <point x="429" y="-12" type="curve" smooth="yes"/>
      <point x="651" y="-12"/>
      <point x="798" y="95"/>
      <point x="798" y="290" type="curve" smooth="yes"/>
      <point x="798" y="729" type="line"/>
      <point x="701" y="729" type="line"/>
      <point x="701" y="288" type="line" smooth="yes"/>
      <point x="701" y="158"/>
      <point x="608" y="76"/>
      <point x="429" y="76" type="curve" smooth="yes"/>
      <point x="250" y="76"/>
      <point x="157" y="157"/>
      <point x="157" y="288" type="curve" smooth="yes"/>
      <point x="157" y="729" type="line"/>
      <point x="61" y="729" type="line"/>
      <point x="61" y="290" type="line" smooth="yes"/>
      <point x="61" y="95"/>
      <point x="207" y="-12"/>
    </contour>
  </outline>
</glyph>
<glyph name="V" format="2">
  <advance width="905"/>
  <unicode hex="0056"/>
  <note>
V
</note>
  <anchor x="453" y="0" name="bottom"/>
  <anchor x="453" y="729" name="top"/>
  <outline>
    <contour>
      <point x="391" y="0" type="line"/>
      <point x="513" y="0" type="line"/>
      <point x="873" y="729" type="line"/>
      <point x="767" y="729" type="line"/>
      <point x="472" y="113" type="line"/>
      <point x="459" y="77" type="line"/>
      <point x="447" y="77" type="line"/>
      <point x="433" y="114" type="line"/>
      <point x="138" y="729" type="line"/>
      <point x="32" y="729" type="line"/>
    </contour>
  </outline>
</glyph>
<glyph name="W" format="2">
  <advance width="1200"/>
  <unicode hex="0057"/>
  <note>
W
</note>
  <anchor x="599" y="0" name="bottom"/>
  <anchor x="599" y="729" name="top"/>
  <outline>
    <contour>
      <point x="273" y="0" type="line"/>
      <point x="407" y="0" type="line"/>
      <point x="582" y="577" type="line"/>
      <point x="595" y="628" type="line"/>
      <point x="606" y="628" type="line"/>
      <point x="617" y="577" type="line"/>
      <point x="795" y="0" type="line"/>
      <point x="928" y="0" type="line"/>
      <point x="1166" y="729" type="line"/>
      <point x="1065" y="729" type="line"/>
      <point x="880" y="138" type="line"/>
      <point x="866" y="89" type="line"/>
      <point x="857" y="89" type="line"/>
      <point x="841" y="148" type="line"/>
      <point x="662" y="729" type="line"/>
      <point x="538" y="729" type="line"/>
      <point x="360" y="148" type="line"/>
      <point x="343" y="89" type="line"/>
      <point x="335" y="89" type="line"/>
      <point x="321" y="138" type="line"/>
      <point x="135" y="729" type="line"/>
      <point x="34" y="729" type="line"/>
    </contour>
  </outline>
</glyph>
<glyph name="X" format="2">
  <advance width="884"/>
  <unicode hex="0058"/>
  <note>
X
</note>
  <anchor x="445" y="0" name="bottom"/>
  <anchor x="445" y="729" name="top"/>
  <outline>
    <contour>
      <point x="31" y="0" type="line"/>
      <point x="156" y="0" type="line"/>
      <point x="436" y="317" type="line"/>
      <point x="446" y="317" type="line"/>
      <point x="729" y="0" type="line"/>
      <point x="852" y="0" type="line"/>
      <point x="509" y="381" type="line"/>
      <point x="825" y="729" type="line"/>
      <point x="705" y="729" type="line"/>
      <point x="447" y="440" type="line"/>
      <point x="438" y="440" type="line"/>
      <point x="181" y="729" type="line"/>
      <point x="60" y="729" type="line"/>
      <point x="376" y="380" type="line"/>
    </contour>
  </outline>
</glyph>
<glyph name="Y" format="2">
  <advance width="829"/>
  <unicode hex="0059"/>
  <note>
Y
</note>
  <anchor x="415" y="0" name="bottom"/>
  <anchor x="417" y="729" name="top"/>
  <anchor x="52" y="729" name="topleft"/>
  <outline>
    <contour>
      <point x="366" y="0" type="line"/>
      <point x="463" y="0" type="line"/>
      <point x="463" y="292" type="line"/>
      <point x="798" y="729" type="line"/>
      <point x="685" y="729" type="line"/>
      <point x="461" y="432" type="line"/>
      <point x="421" y="376" type="line"/>
      <point x="411" y="376" type="line"/>
      <point x="368" y="432" type="line"/>
      <point x="148" y="729" type="line"/>
      <point x="31" y="729" type="line"/>
      <point x="366" y="292" type="line"/>
    </contour>
  </outline>
</glyph>
<glyph name="Z" format="2">
  <advance width="786"/>
  <unicode hex="005A"/>
  <note>
Z
</note>
  <anchor x="392" y="0" name="bottom"/>
  <anchor x="392" y="365" name="center"/>
  <anchor x="392" y="729" name="top"/>
  <outline>
    <contour>
      <point x="39" y="0" type="line"/>
      <point x="747" y="0" type="line"/>
      <point x="747" y="87" type="line"/>
      <point x="173" y="87" type="line"/>
      <point x="731" y="648" type="line"/>
      <point x="731" y="729" type="line"/>
      <point x="59" y="729" type="line"/>
      <point x="59" y="642" type="line"/>
      <point x="598" y="642" type="line"/>
      <point x="39" y="82" type="line"/>
    </contour>
  </outline>
</glyph>
<glyph name="bracketleft" format="2">
  <advance width="368"/>
  <unicode hex="005B"/>
  <outline>
    <contour>
      <point x="72" y="-167" type="line"/>
      <point x="330" y="-167" type="line"/>
      <point x="330" y="-93" type="line"/>
      <point x="153" y="-93" type="line"/>
      <point x="153" y="717" type="line"/>
      <point x="330" y="717" type="line"/>
      <point x="330" y="792" type="line"/>
      <point x="72" y="792" type="line"/>
    </contour>
  </outline>
</glyph>
<glyph name="backslash" format="2">
  <advance width="506"/>
  <unicode hex="005C"/>
  <outline>
    <contour>
      <point x="417" y="-81" type="line"/>
      <point x="504" y="-81" type="line"/>
      <point x="117" y="729" type="line"/>
      <point x="32" y="729" type="line"/>
    </contour>
  </outline>
</glyph>
<glyph name="asciicircum" format="2">
  <advance width="720"/>
  <unicode hex="005E"/>
  <outline>
    <contour>
      <point x="145" y="472" type="line"/>
      <point x="228" y="472" type="line"/>
      <point x="351" y="654" type="line"/>
      <point x="471" y="472" type="line"/>
      <point x="556" y="472" type="line"/>
      <point x="393" y="729" type="line"/>
      <point x="309" y="729" type="line"/>
    </contour>
  </outline>
</glyph>
<glyph name="underscore" format="2">
  <advance width="375"/>
  <unicode hex="005F"/>
  <outline>
    <contour>
      <point x="-1" y="-78" type="line"/>
      <point x="376" y="-78" type="line"/>
      <point x="376" y="0" type="line"/>
      <point x="-1" y="0" type="line"/>
    </contour>
  </outline>
</glyph>
<glyph name="b" format="2">
  <advance width="678"/>
  <unicode hex="0062"/>
  <note>
b
</note>
  <anchor x="337" y="0" name="bottom"/>
  <anchor x="337" y="800" name="top"/>
  <outline>
    <contour>
      <point x="372" y="-10" type="curve" smooth="yes"/>
      <point x="532" y="-10"/>
      <point x="641" y="93"/>
      <point x="641" y="252" type="curve" smooth="yes"/>
      <point x="641" y="275" type="line" smooth="yes"/>
      <point x="641" y="432"/>
      <point x="532" y="535"/>
      <point x="372" y="535" type="curve" smooth="yes"/>
      <point x="281" y="535"/>
      <point x="200" y="500"/>
      <point x="162" y="438" type="curve"/>
      <point x="157" y="438" type="line"/>
      <point x="157" y="729" type="line"/>
      <point x="60" y="729" type="line"/>
      <point x="60" y="0" type="line"/>
      <point x="149" y="0" type="line"/>
      <point x="156" y="86" type="line"/>
      <point x="162" y="86" type="line"/>
      <point x="200" y="26"/>
      <point x="281" y="-10"/>
    </contour>
    <contour>
      <point x="345" y="68" type="curve" smooth="yes"/>
      <point x="259" y="68"/>
      <point x="187" y="109"/>
      <point x="157" y="173" type="curve"/>
      <point x="157" y="352" type="line"/>
      <point x="187" y="417"/>
      <point x="259" y="458"/>
      <point x="345" y="458" type="curve" smooth="yes"/>
      <point x="461" y="458"/>
      <point x="539" y="392"/>
      <point x="539" y="291" type="curve" smooth="yes"/>
      <point x="539" y="234" type="line" smooth="yes"/>
      <point x="539" y="133"/>
      <point x="461" y="68"/>
    </contour>
  </outline>
</glyph>
<glyph name="c" format="2">
  <advance width="644"/>
  <unicode hex="0063"/>
  <note>
c
</note>
  <anchor x="324" y="0" name="bottom"/>
  <anchor x="324" y="525" name="top"/>
  <outline>
    <contour>
      <point x="337" y="-10" type="curve" smooth="yes"/>
      <point x="484" y="-10"/>
      <point x="597" y="61"/>
      <point x="618" y="171" type="curve"/>
      <point x="517" y="171" type="line"/>
      <point x="499" y="106"/>
      <point x="430" y="68"/>
      <point x="337" y="68" type="curve" smooth="yes"/>
      <point x="217" y="68"/>
      <point x="138" y="134"/>
      <point x="138" y="233" type="curve" smooth="yes"/>
      <point x="138" y="293" type="line" smooth="yes"/>
      <point x="138" y="392"/>
      <point x="217" y="458"/>
      <point x="337" y="458" type="curve" smooth="yes"/>
      <point x="430" y="458"/>
      <point x="499" y="420"/>
      <point x="516" y="357" type="curve"/>
      <point x="618" y="357" type="line"/>
      <point x="596" y="466"/>
      <point x="487" y="535"/>
      <point x="337" y="535" type="curve" smooth="yes"/>
      <point x="156" y="535"/>
      <point x="36" y="433"/>
      <point x="36" y="274" type="curve" smooth="yes"/>
      <point x="36" y="252" type="line" smooth="yes"/>
      <point x="36" y="92"/>
      <point x="156" y="-10"/>
    </contour>
  </outline>
</glyph>
<glyph name="e" format="2">
  <advance width="657"/>
  <unicode hex="0065"/>
  <note>
e
</note>
  <anchor x="40" y="0" name="#entry"/>
  <anchor x="338" y="0" name="bottom"/>
  <anchor x="510" y="1" name="ogonek"/>
  <anchor x="339" y="525" name="top"/>
  <outline>
    <contour>
      <point x="337" y="-10" type="curve" smooth="yes"/>
      <point x="477" y="-10"/>
      <point x="589" y="53"/>
      <point x="614" y="150" type="curve"/>
      <point x="517" y="150" type="line"/>
      <point x="496" y="97"/>
      <point x="429" y="68"/>
      <point x="337" y="68" type="curve" smooth="yes"/>
      <point x="217" y="68"/>
      <point x="138" y="134"/>
      <point x="138" y="233" type="curve" smooth="yes"/>
      <point x="138" y="293" type="line" smooth="yes"/>
      <point x="138" y="392"/>
      <point x="217" y="458"/>
      <point x="337" y="458" type="curve" smooth="yes"/>
      <point x="448" y="458"/>
      <point x="523" y="398"/>
      <point x="523" y="300" type="curve" smooth="yes"/>
      <point x="523" y="286" type="line"/>
      <point x="537" y="308" type="line"/>
      <point x="124" y="308" type="line"/>
      <point x="124" y="237" type="line"/>
      <point x="622" y="237" type="line"/>
      <point x="622" y="279" type="line" smooth="yes"/>
      <point x="622" y="433"/>
      <point x="509" y="535"/>
      <point x="337" y="535" type="curve" smooth="yes"/>
      <point x="156" y="535"/>
      <point x="36" y="433"/>
      <point x="36" y="274" type="curve" smooth="yes"/>
      <point x="36" y="252" type="line" smooth="yes"/>
      <point x="36" y="92"/>
      <point x="156" y="-10"/>
    </contour>
  </outline>
</glyph>
<glyph name="g" format="2">
  <advance width="665"/>
  <unicode hex="0067"/>
  <note>
g
</note>
  <anchor x="331" y="-200" name="bottom"/>
  <anchor x="331" y="525" name="top"/>
  <outline>
    <contour>
      <point x="320" y="-179" type="curve" smooth="yes"/>
      <point x="495" y="-179"/>
      <point x="605" y="-100"/>
      <point x="605" y="39" type="curve" smooth="yes"/>
      <point x="605" y="525" type="line"/>
      <point x="514" y="525" type="line"/>
      <point x="509" y="444" type="line"/>
      <point x="502" y="444" type="line"/>
      <point x="466" y="500"/>
      <point x="385" y="535"/>
      <point x="297" y="535" type="curve" smooth="yes"/>
      <point x="142" y="535"/>
      <point x="36" y="437"/>
      <point x="36" y="288" type="curve" smooth="yes"/>
      <point x="36" y="265" type="line" smooth="yes"/>
      <point x="36" y="115"/>
      <point x="140" y="17"/>
      <point x="296" y="17" type="curve" smooth="yes"/>
      <point x="382" y="17"/>
      <point x="465" y="52"/>
      <point x="502" y="111" type="curve"/>
      <point x="508" y="111" type="line"/>
      <point x="508" y="30" type="line" smooth="yes"/>
      <point x="508" y="-56"/>
      <point x="442" y="-105"/>
      <point x="323" y="-105" type="curve" smooth="yes"/>
      <point x="237" y="-105"/>
      <point x="174" y="-83"/>
      <point x="156" y="-33" type="curve"/>
      <point x="60" y="-33" type="line"/>
      <point x="81" y="-124"/>
      <point x="177" y="-179"/>
    </contour>
    <contour>
      <point x="326" y="94" type="curve" smooth="yes"/>
      <point x="215" y="94"/>
      <point x="138" y="155"/>
      <point x="138" y="251" type="curve" smooth="yes"/>
      <point x="138" y="302" type="line" smooth="yes"/>
      <point x="138" y="399"/>
      <point x="215" y="459"/>
      <point x="326" y="459" type="curve" smooth="yes"/>
      <point x="412" y="459"/>
      <point x="481" y="417"/>
      <point x="508" y="352" type="curve"/>
      <point x="508" y="200" type="line"/>
      <point x="481" y="135"/>
      <point x="412" y="94"/>
    </contour>
  </outline>
</glyph>
<glyph name="h" format="2">
  <advance width="653"/>
  <unicode hex="0068"/>
  <note>
h
</note>
  <anchor x="330" y="0" name="bottom"/>
  <anchor x="166" y="625" name="center"/>
  <anchor x="109" y="729" name="top"/>
  <outline>
    <contour>
      <point x="60" y="0" type="line"/>
      <point x="157" y="0" type="line"/>
      <point x="157" y="352" type="line"/>
      <point x="192" y="411"/>
      <point x="258" y="456"/>
      <point x="346" y="456" type="curve" smooth="yes"/>
      <point x="439" y="456"/>
      <point x="504" y="410"/>
      <point x="504" y="308" type="curve" smooth="yes"/>
      <point x="504" y="0" type="line"/>
      <point x="601" y="0" type="line"/>
      <point x="601" y="325" type="line" smooth="yes"/>
      <point x="601" y="454"/>
      <point x="523" y="535"/>
      <point x="374" y="535" type="curve" smooth="yes"/>
      <point x="282" y="535"/>
      <point x="207" y="497"/>
      <point x="163" y="439" type="curve"/>
      <point x="157" y="439" type="line"/>
      <point x="157" y="729" type="line"/>
      <point x="60" y="729" type="line"/>
    </contour>
  </outline>
</glyph>
<glyph name="k" format="2">
  <advance width="649"/>
  <unicode hex="006B"/>
  <note>
k
</note>
  <anchor x="314" y="0" name="bottom"/>
  <anchor x="314" y="800" name="top"/>
  <outline>
    <contour>
      <point x="60" y="0" type="line"/>
      <point x="157" y="0" type="line"/>
      <point x="157" y="729" type="line"/>
      <point x="60" y="729" type="line"/>
    </contour>
    <contour>
      <point x="509" y="0" type="line"/>
      <point x="626" y="0" type="line"/>
      <point x="357" y="333" type="line"/>
      <point x="286" y="282" type="line"/>
    </contour>
    <contour>
      <point x="144" y="153" type="line"/>
      <point x="330" y="299" type="line"/>
      <point x="334" y="297" type="line"/>
      <point x="627" y="525" type="line"/>
      <point x="501" y="525" type="line"/>
      <point x="144" y="247" type="line"/>
    </contour>
  </outline>
</glyph>
<glyph name="l" format="2">
  <advance width="217"/>
  <unicode hex="006C"/>
  <note>
l
</note>
  <anchor x="109" y="0" name="bottom"/>
  <anchor x="109" y="365" name="center"/>
  <anchor x="109" y="729" name="top"/>
  <anchor x="157" y="729" name="topright"/>
  <outline>
    <contour>
      <point x="60" y="0" type="line"/>
      <point x="157" y="0" type="line"/>
      <point x="157" y="729" type="line"/>
      <point x="60" y="729" type="line"/>
    </contour>
  </outline>
</glyph>
<glyph name="m" format="2">
  <advance width="1075"/>
  <unicode hex="006D"/>
  <note>
m
</note>
  <anchor x="541" y="0" name="bottom"/>
  <anchor x="541" y="525" name="top"/>
  <outline>
    <contour>
      <point x="60" y="0" type="line"/>
      <point x="157" y="0" type="line"/>
      <point x="157" y="349" type="line"/>
      <point x="192" y="413"/>
      <point x="257" y="456"/>
      <point x="340" y="456" type="curve" smooth="yes"/>
      <point x="430" y="456"/>
      <point x="493" y="410"/>
      <point x="493" y="308" type="curve" smooth="yes"/>
      <point x="493" y="0" type="line"/>
      <point x="589" y="0" type="line"/>
      <point x="589" y="326" type="line" smooth="yes"/>
      <point x="589" y="334"/>
      <point x="589" y="342"/>
      <point x="588" y="350" type="curve"/>
      <point x="624" y="413"/>
      <point x="689" y="456"/>
      <point x="773" y="456" type="curve" smooth="yes"/>
      <point x="864" y="456"/>
      <point x="926" y="410"/>
      <point x="926" y="308" type="curve" smooth="yes"/>
      <point x="926" y="0" type="line"/>
      <point x="1023" y="0" type="line"/>
      <point x="1023" y="322" type="line" smooth="yes"/>
      <point x="1023" y="455"/>
      <point x="945" y="535"/>
      <point x="802" y="535" type="curve" smooth="yes"/>
      <point x="706" y="535"/>
      <point x="623" y="490"/>
      <point x="578" y="422" type="curve"/>
      <point x="572" y="422" type="line"/>
      <point x="540" y="497"/>
      <point x="468" y="535"/>
      <point x="369" y="535" type="curve" smooth="yes"/>
      <point x="283" y="535"/>
      <point x="207" y="498"/>
      <point x="163" y="439" type="curve"/>
      <point x="156" y="439" type="line"/>
      <point x="150" y="525" type="line"/>
      <point x="60" y="525" type="line"/>
    </contour>
  </outline>
</glyph>
<glyph name="n" format="2">
  <advance width="653"/>
  <unicode hex="006E"/>
  <note>
n
</note>
  <anchor x="330" y="0" name="bottom"/>
  <anchor x="330" y="525" name="top"/>
  <outline>
    <contour>
      <point x="60" y="0" type="line"/>
      <point x="157" y="0" type="line"/>
      <point x="157" y="352" type="line"/>
      <point x="192" y="411"/>
      <point x="258" y="456"/>
      <point x="346" y="456" type="curve" smooth="yes"/>
      <point x="439" y="456"/>
      <point x="504" y="410"/>
      <point x="504" y="308" type="curve" smooth="yes"/>
      <point x="504" y="0" type="line"/>
      <point x="601" y="0" type="line"/>
      <point x="601" y="325" type="line" smooth="yes"/>
      <point x="601" y="454"/>
      <point x="523" y="535"/>
      <point x="374" y="535" type="curve" smooth="yes"/>
      <point x="282" y="535"/>
      <point x="207" y="497"/>
      <point x="163" y="439" type="curve"/>
      <point x="156" y="439" type="line"/>
      <point x="149" y="525" type="line"/>
      <point x="60" y="525" type="line"/>
    </contour>
  </outline>
</glyph>
<glyph name="o" format="2">
  <advance width="674"/>
  <unicode hex="006F"/>
  <note>
o
</note>
  <anchor x="536" y="0" name="#exit"/>
  <anchor x="337" y="0" name="bottom"/>
  <anchor x="337" y="263" name="center"/>
  <anchor x="602" y="10" name="ogonek"/>
  <anchor x="337" y="525" name="top"/>
  <anchor x="479" y="504" name="topright"/>
  <outline>
    <contour>
      <point x="337" y="-10" type="curve" smooth="yes"/>
      <point x="518" y="-10"/>
      <point x="638" y="92"/>
      <point x="638" y="252" type="curve" smooth="yes"/>
      <point x="638" y="274" type="line" smooth="yes"/>
      <point x="638" y="433"/>
      <point x="518" y="535"/>
      <point x="337" y="535" type="curve" smooth="yes"/>
      <point x="156" y="535"/>
      <point x="36" y="433"/>
      <point x="36" y="274" type="curve" smooth="yes"/>
      <point x="36" y="252" type="line" smooth="yes"/>
      <point x="36" y="92"/>
      <point x="156" y="-10"/>
    </contour>
    <contour>
      <point x="337" y="68" type="curve" smooth="yes"/>
      <point x="217" y="68"/>
      <point x="138" y="134"/>
      <point x="138" y="233" type="curve" smooth="yes"/>
      <point x="138" y="293" type="line" smooth="yes"/>
      <point x="138" y="392"/>
      <point x="217" y="458"/>
      <point x="337" y="458" type="curve" smooth="yes"/>
      <point x="457" y="458"/>
      <point x="536" y="392"/>
      <point x="536" y="293" type="curve" smooth="yes"/>
      <point x="536" y="233" type="line" smooth="yes"/>
      <point x="536" y="134"/>
      <point x="457" y="68"/>
    </contour>
  </outline>
</glyph>
<glyph name="q" format="2">
  <advance width="678"/>
  <unicode hex="0071"/>
  <note>
q
</note>
  <anchor x="341" y="0" name="bottom"/>
  <anchor x="341" y="525" name="top"/>
  <outline>
    <contour>
      <point x="521" y="-167" type="line"/>
      <point x="618" y="-167" type="line"/>
      <point x="618" y="525" type="line"/>
      <point x="529" y="525" type="line"/>
      <point x="522" y="439" type="line"/>
      <point x="516" y="439" type="line"/>
      <point x="478" y="499"/>
      <point x="397" y="535"/>
      <point x="306" y="535" type="curve" smooth="yes"/>
      <point x="146" y="535"/>
      <point x="37" y="432"/>
      <point x="37" y="273" type="curve" smooth="yes"/>
      <point x="37" y="250" type="line" smooth="yes"/>
      <point x="37" y="93"/>
      <point x="146" y="-10"/>
      <point x="306" y="-10" type="curve" smooth="yes"/>
      <point x="397" y="-10"/>
      <point x="478" y="25"/>
      <point x="516" y="87" type="curve"/>
      <point x="521" y="87" type="line"/>
    </contour>
    <contour>
      <point x="333" y="67" type="curve" smooth="yes"/>
      <point x="217" y="67"/>
      <point x="139" y="133"/>
      <point x="139" y="234" type="curve" smooth="yes"/>
      <point x="139" y="291" type="line" smooth="yes"/>
      <point x="139" y="392"/>
      <point x="217" y="457"/>
      <point x="333" y="457" type="curve" smooth="yes"/>
      <point x="419" y="457"/>
      <point x="491" y="416"/>
      <point x="521" y="352" type="curve"/>
      <point x="521" y="173" type="line"/>
      <point x="491" y="108"/>
      <point x="419" y="67"/>
    </contour>
  </outline>
</glyph>
<glyph name="r" format="2">
  <advance width="376"/>
  <unicode hex="0072"/>
  <note>
r
</note>
  <anchor x="108" y="0" name="bottom"/>
  <anchor x="179" y="525" name="top"/>
  <outline>
    <contour>
      <point x="60" y="0" type="line"/>
      <point x="157" y="0" type="line"/>
      <point x="157" y="348" type="line"/>
      <point x="197" y="411"/>
      <point x="226" y="437"/>
      <point x="305" y="437" type="curve" smooth="yes"/>
      <point x="350" y="437" type="line"/>
      <point x="345" y="530" type="line"/>
      <point x="311" y="530" type="line" smooth="yes"/>
      <point x="234" y="530"/>
      <point x="196" y="498"/>
      <point x="164" y="437" type="curve"/>
      <point x="156" y="437" type="line"/>
      <point x="149" y="525" type="line"/>
      <point x="60" y="525" type="line"/>
    </contour>
  </outline>
</glyph>
<glyph name="s" format="2">
  <advance width="575"/>
  <unicode hex="0073"/>
  <note>
s
</note>
  <anchor x="286" y="0" name="bottom"/>
  <anchor x="286" y="525" name="top"/>
  <outline>
    <contour>
      <point x="292" y="-12" type="curve" smooth="yes"/>
      <point x="437" y="-12"/>
      <point x="543" y="40"/>
      <point x="543" y="149" type="curve" smooth="yes"/>
      <point x="543" y="237"/>
      <point x="483" y="282"/>
      <point x="354" y="301" type="curve" smooth="yes"/>
      <point x="251" y="316" type="line" smooth="yes"/>
      <point x="177" y="326"/>
      <point x="146" y="349"/>
      <point x="146" y="389" type="curve" smooth="yes"/>
      <point x="146" y="437"/>
      <point x="192" y="468"/>
      <point x="281" y="468" type="curve" smooth="yes"/>
      <point x="359" y="468"/>
      <point x="422" y="444"/>
      <point x="432" y="387" type="curve"/>
      <point x="530" y="387" type="line"/>
      <point x="516" y="479"/>
      <point x="425" y="536"/>
      <point x="282" y="536" type="curve" smooth="yes"/>
      <point x="151" y="536"/>
      <point x="49" y="483"/>
      <point x="49" y="380" type="curve" smooth="yes"/>
      <point x="49" y="303"/>
      <point x="96" y="258"/>
      <point x="222" y="238" type="curve" smooth="yes"/>
      <point x="329" y="222" type="line" smooth="yes"/>
      <point x="401" y="210"/>
      <point x="441" y="192"/>
      <point x="441" y="141" type="curve" smooth="yes"/>
      <point x="441" y="89"/>
      <point x="394" y="58"/>
      <point x="296" y="58" type="curve" smooth="yes"/>
      <point x="200" y="58"/>
      <point x="141" y="88"/>
      <point x="131" y="146" type="curve"/>
      <point x="28" y="146" type="line"/>
      <point x="43" y="52"/>
      <point x="136" y="-12"/>
    </contour>
  </outline>
</glyph>
<glyph name="t" format="2">
  <advance width="408"/>
  <unicode hex="0074"/>
  <note>
t
</note>
  <anchor x="264" y="0" name="bottom"/>
  <anchor x="195" y="270" name="center"/>
  <anchor x="210" y="525" name="top"/>
  <anchor x="233" y="687" name="topright"/>
  <outline>
    <contour>
      <point x="216" y="0" type="curve" smooth="yes"/>
      <point x="376" y="0" type="line"/>
      <point x="376" y="84" type="line"/>
      <point x="231" y="84" type="line"/>
      <point x="231" y="679" type="line"/>
      <point x="134" y="679" type="line"/>
      <point x="134" y="79" type="line" smooth="yes"/>
      <point x="134" y="26"/>
      <point x="162" y="0"/>
    </contour>
    <contour>
      <point x="26" y="446" type="line"/>
      <point x="364" y="446" type="line"/>
      <point x="364" y="525" type="line"/>
      <point x="26" y="525" type="line"/>
    </contour>
  </outline>
</glyph>
<glyph name="v" format="2">
  <advance width="686"/>
  <unicode hex="0076"/>
  <note>
v
</note>
  <anchor x="343" y="0" name="bottom"/>
  <anchor x="343" y="525" name="top"/>
  <outline>
    <contour>
      <point x="288" y="0" type="line"/>
      <point x="398" y="0" type="line"/>
      <point x="665" y="525" type="line"/>
      <point x="563" y="525" type="line"/>
      <point x="369" y="129" type="line"/>
      <point x="347" y="82" type="line"/>
      <point x="339" y="82" type="line"/>
      <point x="316" y="129" type="line"/>
      <point x="123" y="525" type="line"/>
      <point x="21" y="525" type="line"/>
    </contour>
  </outline>
</glyph>
<glyph name="w" format="2">
  <advance width="960"/>
  <unicode hex="0077"/>
  <note>
w
</note>
  <anchor x="480" y="0" name="bottom"/>
  <anchor x="480" y="525" name="top"/>
  <outline>
    <contour>
      <point x="219" y="0" type="line"/>
      <point x="341" y="0" type="line"/>
      <point x="456" y="349" type="line"/>
      <point x="475" y="417" type="line"/>
      <point x="484" y="417" type="line"/>
      <point x="502" y="349" type="line"/>
      <point x="616" y="0" type="line"/>
      <point x="741" y="0" type="line"/>
      <point x="938" y="525" type="line"/>
      <point x="836" y="525" type="line"/>
      <point x="703" y="144" type="line"/>
      <point x="684" y="85" type="line"/>
      <point x="677" y="85" type="line"/>
      <point x="660" y="144" type="line"/>
      <point x="536" y="525" type="line"/>
      <point x="424" y="525" type="line"/>
      <point x="301" y="144" type="line"/>
      <point x="283" y="85" type="line"/>
      <point x="277" y="85" type="line"/>
      <point x="258" y="144" type="line"/>
      <point x="125" y="525" type="line"/>
      <point x="22" y="525" type="line"/>
    </contour>
  </outline>
</glyph>
<glyph name="x" format="2">
  <advance width="669"/>
  <unicode hex="0078"/>
  <note>
x
</note>
  <anchor x="334" y="0" name="bottom"/>
  <anchor x="334" y="525" name="top"/>
  <outline>
    <contour>
      <point x="21" y="0" type="line"/>
      <point x="140" y="0" type="line"/>
      <point x="330" y="211" type="line"/>
      <point x="339" y="211" type="line"/>
      <point x="529" y="0" type="line"/>
      <point x="648" y="0" type="line"/>
      <point x="400" y="274" type="line"/>
      <point x="633" y="525" type="line"/>
      <point x="517" y="525" type="line"/>
      <point x="339" y="326" type="line"/>
      <point x="330" y="326" type="line"/>
      <point x="151" y="525" type="line"/>
      <point x="35" y="525" type="line"/>
      <point x="269" y="274" type="line"/>
    </contour>
  </outline>
</glyph>
<glyph name="y" format="2">
  <advance width="676"/>
  <unicode hex="0079"/>
  <note>
y
</note>
  <anchor x="525" y="0" name="bottom"/>
  <anchor x="338" y="525" name="top"/>
  <outline>
    <contour>
      <point x="56" y="-167" type="line"/>
      <point x="302" y="-167" type="line" smooth="yes"/>
      <point x="352" y="-167"/>
      <point x="386" y="-143"/>
      <point x="386" y="-90" type="curve" smooth="yes"/>
      <point x="386" y="59" type="line"/>
      <point x="655" y="525" type="line"/>
      <point x="550" y="525" type="line"/>
      <point x="367" y="196" type="line"/>
      <point x="342" y="147" type="line"/>
      <point x="334" y="147" type="line"/>
      <point x="309" y="196" type="line"/>
      <point x="126" y="525" type="line"/>
      <point x="21" y="525" type="line"/>
      <point x="289" y="58" type="line"/>
      <point x="289" y="-81" type="line"/>
      <point x="56" y="-81" type="line"/>
    </contour>
  </outline>
</glyph>
<glyph name="z" format="2">
  <advance width="577"/>
  <unicode hex="007A"/>
  <note>
z
</note>
  <anchor x="288" y="0" name="bottom"/>
  <anchor x="288" y="263" name="center"/>
  <anchor x="288" y="525" name="top"/>
  <outline>
    <contour>
      <point x="29" y="0" type="line"/>
      <point x="545" y="0" type="line"/>
      <point x="545" y="80" type="line"/>
      <point x="157" y="80" type="line"/>
      <point x="540" y="455" type="line"/>
      <point x="540" y="525" type="line"/>
      <point x="51" y="525" type="line"/>
      <point x="51" y="446" type="line"/>
      <point x="414" y="446" type="line"/>
      <point x="29" y="71" type="line"/>
    </contour>
  </outline>
</glyph>
<glyph name="braceleft" format="2">
  <advance width="432"/>
  <unicode hex="007B"/>
  <outline>
    <contour>
      <point x="210" y="-167" type="curve" smooth="yes"/>
      <point x="394" y="-167" type="line"/>
      <point x="394" y="-93" type="line"/>
      <point x="222" y="-93" type="line"/>
      <point x="222" y="197" type="line" smooth="yes"/>
      <point x="222" y="258"/>
      <point x="193" y="304"/>
      <point x="146" y="314" type="curve"/>
      <point x="146" y="317" type="line"/>
      <point x="187" y="323"/>
      <point x="222" y="361"/>
      <point x="222" y="431" type="curve" smooth="yes"/>
      <point x="222" y="717" type="line"/>
      <point x="394" y="717" type="line"/>
      <point x="394" y="792" type="line"/>
      <point x="210" y="792" type="line" smooth="yes"/>
      <point x="163" y="792"/>
      <point x="141" y="760"/>
      <point x="141" y="717" type="curve" smooth="yes"/>
      <point x="141" y="436" type="line" smooth="yes"/>
      <point x="141" y="385"/>
      <point x="111" y="354"/>
      <point x="78" y="354" type="curve" smooth="yes"/>
      <point x="35" y="354" type="line"/>
      <point x="35" y="273" type="line"/>
      <point x="78" y="273" type="line" smooth="yes"/>
      <point x="111" y="273"/>
      <point x="141" y="243"/>
      <point x="141" y="192" type="curve" smooth="yes"/>
      <point x="141" y="-92" type="line" smooth="yes"/>
      <point x="141" y="-134"/>
      <point x="163" y="-167"/>
    </contour>
  </outline>
</glyph>
<glyph name="asciitilde" format="2">
  <advance width="700"/>
  <unicode hex="007E"/>
  <outline>
    <contour>
      <point x="154" y="297" type="curve"/>
      <point x="203" y="297" type="line"/>
      <point x="199" y="332"/>
      <point x="209" y="360"/>
      <point x="251" y="360" type="curve" smooth="yes"/>
      <point x="301" y="360"/>
      <point x="376" y="294"/>
      <point x="453" y="294" type="curve" smooth="yes"/>
      <point x="512" y="294"/>
      <point x="558" y="332"/>
      <point x="546" y="435" type="curve"/>
      <point x="499" y="435" type="line"/>
      <point x="501" y="401"/>
      <point x="493" y="373"/>
      <point x="447" y="373" type="curve" smooth="yes"/>
      <point x="393" y="373"/>
      <point x="319" y="437"/>
      <point x="249" y="437" type="curve" smooth="yes"/>
      <point x="186" y="437"/>
      <point x="141" y="395"/>
    </contour>
  </outline>
</glyph>
<glyph name="cent" format="2">
  <advance width="667"/>
  <unicode hex="00A2"/>
  <anchor x="332" y="102" name="bottom"/>
  <anchor x="332" y="627" name="top"/>
  <outline>
    <contour>
      <point x="311" y="609" type="line"/>
      <point x="384" y="609" type="line"/>
      <point x="393" y="729" type="line"/>
      <point x="302" y="729" type="line"/>
    </contour>
    <contour>
      <point x="302" y="0" type="line"/>
      <point x="393" y="0" type="line"/>
      <point x="384" y="128" type="line"/>
      <point x="311" y="128" type="line"/>
    </contour>
    <contour>
      <point x="345" y="92" type="curve" smooth="yes"/>
      <point x="489" y="92"/>
      <point x="602" y="163"/>
      <point x="623" y="273" type="curve"/>
      <point x="526" y="273" type="line"/>
      <point x="508" y="208"/>
      <point x="439" y="170"/>
      <point x="346" y="170" type="curve" smooth="yes"/>
      <point x="226" y="170"/>
      <point x="147" y="236"/>
      <point x="147" y="335" type="curve" smooth="yes"/>
      <point x="147" y="395" type="line" smooth="yes"/>
      <point x="147" y="494"/>
      <point x="226" y="560"/>
      <point x="346" y="560" type="curve" smooth="yes"/>
      <point x="439" y="560"/>
      <point x="508" y="522"/>
      <point x="525" y="459" type="curve"/>
      <point x="622" y="459" type="line"/>
      <point x="601" y="568"/>
      <point x="492" y="637"/>
      <point x="346" y="637" type="curve" smooth="yes"/>
      <point x="169" y="637"/>
      <point x="49" y="535"/>
      <point x="49" y="376" type="curve" smooth="yes"/>
      <point x="49" y="354" type="line" smooth="yes"/>
      <point x="49" y="194"/>
      <point x="169" y="92"/>
    </contour>
  </outline>
</glyph>
<glyph name="sterling" format="2">
  <advance width="728"/>
  <unicode hex="00A3"/>
  <outline>
    <contour>
      <point x="47" y="0" type="line"/>
      <point x="676" y="0" type="line"/>
      <point x="676" y="194" type="line"/>
      <point x="600" y="194" type="line"/>
      <point x="600" y="85" type="line"/>
      <point x="237" y="85" type="line"/>
      <point x="237" y="321" type="line"/>
      <point x="487" y="321" type="line"/>
      <point x="487" y="396" type="line"/>
      <point x="237" y="396" type="line"/>
      <point x="237" y="496" type="line" smooth="yes"/>
      <point x="237" y="591"/>
      <point x="290" y="651"/>
      <point x="405" y="651" type="curve" smooth="yes"/>
      <point x="506" y="651"/>
      <point x="574" y="603"/>
      <point x="574" y="508" type="curve" smooth="yes"/>
      <point x="574" y="492" type="line"/>
      <point x="661" y="492" type="line"/>
      <point x="661" y="511" type="line" smooth="yes"/>
      <point x="661" y="648"/>
      <point x="566" y="737"/>
      <point x="404" y="737" type="curve" smooth="yes"/>
      <point x="249" y="737"/>
      <point x="145" y="657"/>
      <point x="145" y="497" type="curve" smooth="yes"/>
      <point x="145" y="396" type="line"/>
      <point x="47" y="377" type="line"/>
      <point x="47" y="321" type="line"/>
      <point x="145" y="321" type="line"/>
      <point x="145" y="85" type="line"/>
      <point x="47" y="85" type="line"/>
    </contour>
  </outline>
</glyph>
<glyph name="currency" format="2">
  <advance width="656"/>
  <unicode hex="00A4"/>
  <outline>
    <contour>
      <point x="97" y="71" type="line"/>
      <point x="210" y="183" type="line"/>
      <point x="243" y="163"/>
      <point x="282" y="153"/>
      <point x="328" y="153" type="curve" smooth="yes"/>
      <point x="371" y="153"/>
      <point x="413" y="162"/>
      <point x="446" y="184" type="curve"/>
      <point x="560" y="71" type="line"/>
      <point x="611" y="126" type="line"/>
      <point x="498" y="236" type="line"/>
      <point x="523" y="268"/>
      <point x="538" y="310"/>
      <point x="538" y="353" type="curve" smooth="yes"/>
      <point x="538" y="397"/>
      <point x="522" y="437"/>
      <point x="498" y="471" type="curve"/>
      <point x="611" y="579" type="line"/>
      <point x="560" y="636" type="line"/>
      <point x="445" y="522" type="line"/>
      <point x="413" y="543"/>
      <point x="370" y="553"/>
      <point x="328" y="553" type="curve" smooth="yes"/>
      <point x="283" y="553"/>
      <point x="243" y="542"/>
      <point x="211" y="522" type="curve"/>
      <point x="97" y="636" type="line"/>
      <point x="46" y="579" type="line"/>
      <point x="158" y="471" type="line"/>
      <point x="134" y="439"/>
      <point x="118" y="396"/>
      <point x="118" y="353" type="curve" smooth="yes"/>
      <point x="118" y="309"/>
      <point x="134" y="268"/>
      <point x="157" y="236" type="curve"/>
      <point x="46" y="126" type="line"/>
    </contour>
    <contour>
      <point x="328" y="229" type="curve" smooth="yes"/>
      <point x="250" y="229"/>
      <point x="192" y="281"/>
      <point x="192" y="352" type="curve" smooth="yes"/>
      <point x="192" y="425"/>
      <point x="249" y="476"/>
      <point x="328" y="476" type="curve" smooth="yes"/>
      <point x="405" y="476"/>
      <point x="463" y="425"/>
      <point x="463" y="352" type="curve" smooth="yes"/>
      <point x="463" y="282"/>
      <point x="406" y="229"/>
    </contour>
  </outline>
</glyph>
<glyph name="brokenbar" format="2">
  <advance width="285"/>
  <unicode hex="00A6"/>
  <outline>
    <contour>
      <point x="101" y="403" type="line"/>
      <point x="185" y="403" type="line"/>
      <point x="185" y="729" type="line"/>
      <point x="101" y="729" type="line"/>
    </contour>
    <contour>
      <point x="101" y="-67" type="line"/>
      <point x="185" y="-67" type="line"/>
      <point x="185" y="259" type="line"/>
      <point x="101" y="259" type="line"/>
    </contour>
  </outline>
</glyph>
<glyph name="section" format="2">
  <advance width="527"/>
  <unicode hex="00A7"/>
  <outline>
    <contour>
      <point x="256" y="-10" type="curve" smooth="yes"/>
      <point x="381" y="-10"/>
      <point x="463" y="45"/>
      <point x="463" y="143" type="curve" smooth="yes"/>
      <point x="463" y="190"/>
      <point x="447" y="223"/>
      <point x="417" y="246" type="curve"/>
      <point x="452" y="271"/>
      <point x="473" y="308"/>
      <point x="473" y="353" type="curve" smooth="yes"/>
      <point x="473" y="454"/>
      <point x="405" y="484"/>
      <point x="296" y="502" type="curve" smooth="yes"/>
      <point x="198" y="517"/>
      <point x="152" y="536"/>
      <point x="152" y="595" type="curve" smooth="yes"/>
      <point x="152" y="648"/>
      <point x="197" y="682"/>
      <point x="275" y="682" type="curve" smooth="yes"/>
      <point x="348" y="682"/>
      <point x="397" y="653"/>
      <point x="400" y="581" type="curve"/>
      <point x="473" y="581" type="line"/>
      <point x="469" y="678"/>
      <point x="396" y="739"/>
      <point x="275" y="739" type="curve" smooth="yes"/>
      <point x="157" y="739"/>
      <point x="78" y="679"/>
      <point x="78" y="589" type="curve" smooth="yes"/>
      <point x="78" y="542"/>
      <point x="95" y="510"/>
      <point x="130" y="487" type="curve"/>
      <point x="92" y="461"/>
      <point x="68" y="420"/>
      <point x="68" y="376" type="curve" smooth="yes"/>
      <point x="68" y="284"/>
      <point x="132" y="254"/>
      <point x="247" y="235" type="curve" smooth="yes"/>
      <point x="349" y="219"/>
      <point x="388" y="199"/>
      <point x="388" y="137" type="curve" smooth="yes"/>
      <point x="388" y="79"/>
      <point x="342" y="47"/>
      <point x="258" y="47" type="curve" smooth="yes"/>
      <point x="177" y="47"/>
      <point x="122" y="81"/>
      <point x="117" y="154" type="curve"/>
      <point x="44" y="154" type="line"/>
      <point x="48" y="56"/>
      <point x="126" y="-10"/>
    </contour>
    <contour>
      <point x="362" y="272" type="curve"/>
      <point x="334" y="284"/>
      <point x="300" y="291"/>
      <point x="262" y="297" type="curve" smooth="yes"/>
      <point x="177" y="310"/>
      <point x="139" y="331"/>
      <point x="139" y="388" type="curve" smooth="yes"/>
      <point x="139" y="418"/>
      <point x="157" y="444"/>
      <point x="184" y="464" type="curve"/>
      <point x="209" y="454"/>
      <point x="241" y="448"/>
      <point x="276" y="442" type="curve" smooth="yes"/>
      <point x="362" y="429"/>
      <point x="398" y="408"/>
      <point x="398" y="346" type="curve" smooth="yes"/>
      <point x="398" y="315"/>
      <point x="385" y="292"/>
    </contour>
  </outline>
</glyph>
<glyph name="ordfeminine" format="2">
  <advance width="387"/>
  <unicode hex="00AA"/>
  <outline>
    <contour>
      <point x="147" y="386" type="curve" smooth="yes"/>
      <point x="210" y="386"/>
      <point x="263" y="411"/>
      <point x="280" y="448" type="curve"/>
      <point x="284" y="448" type="line"/>
      <point x="287" y="392" type="line"/>
      <point x="349" y="392" type="line"/>
      <point x="349" y="621" type="line" smooth="yes"/>
      <point x="349" y="692"/>
      <point x="300" y="743"/>
      <point x="194" y="743" type="curve" smooth="yes"/>
      <point x="98" y="743"/>
      <point x="35" y="698"/>
      <point x="33" y="630" type="curve"/>
      <point x="95" y="630" type="line"/>
      <point x="97" y="663"/>
      <point x="131" y="686"/>
      <point x="191" y="686" type="curve" smooth="yes"/>
      <point x="247" y="686"/>
      <point x="281" y="667"/>
      <point x="281" y="622" type="curve" smooth="yes"/>
      <point x="281" y="598" type="line"/>
      <point x="295" y="605" type="line"/>
      <point x="155" y="594" type="line" smooth="yes"/>
      <point x="75" y="586"/>
      <point x="22" y="557"/>
      <point x="22" y="486" type="curve" smooth="yes"/>
      <point x="22" y="482" type="line" smooth="yes"/>
      <point x="22" y="420"/>
      <point x="73" y="386"/>
    </contour>
    <contour>
      <point x="172" y="440" type="curve" smooth="yes"/>
      <point x="126" y="440"/>
      <point x="93" y="459"/>
      <point x="93" y="490" type="curve" smooth="yes"/>
      <point x="93" y="498" type="line" smooth="yes"/>
      <point x="93" y="534"/>
      <point x="122" y="551"/>
      <point x="171" y="555" type="curve" smooth="yes"/>
      <point x="281" y="563" type="line"/>
      <point x="281" y="510" type="line" smooth="yes"/>
      <point x="281" y="467"/>
      <point x="235" y="440"/>
    </contour>
  </outline>
</glyph>
<glyph name="logicalnot" format="2">
  <advance width="720"/>
  <unicode hex="00AC"/>
  <outline>
    <contour>
      <point x="511" y="121" type="line"/>
      <point x="585" y="121" type="line"/>
      <point x="585" y="404" type="line"/>
      <point x="89" y="404" type="line"/>
      <point x="89" y="324" type="line"/>
      <point x="511" y="324" type="line"/>
    </contour>
  </outline>
</glyph>
<glyph name="registered" format="2">
  <advance width="657"/>
  <unicode hex="00AE"/>
  <outline>
    <contour>
      <point x="329" y="219" type="curve"/>
      <point x="482" y="219"/>
      <point x="605" y="327"/>
      <point x="605" y="479" type="curve" smooth="yes"/>
      <point x="605" y="632"/>
      <point x="483" y="738"/>
      <point x="329" y="738" type="curve" smooth="yes"/>
      <point x="174" y="738"/>
      <point x="52" y="632"/>
      <point x="52" y="479" type="curve" smooth="yes"/>
      <point x="52" y="327"/>
      <point x="172" y="219"/>
    </contour>
    <contour>
      <point x="329" y="258" type="curve" smooth="yes"/>
      <point x="200" y="258"/>
      <point x="95" y="348"/>
      <point x="95" y="477" type="curve" smooth="yes"/>
      <point x="95" y="608"/>
      <point x="200" y="699"/>
      <point x="329" y="699" type="curve" smooth="yes"/>
      <point x="459" y="699"/>
      <point x="563" y="607"/>
      <point x="563" y="477" type="curve" smooth="yes"/>
      <point x="563" y="349"/>
      <point x="459" y="258"/>
    </contour>
    <contour>
      <point x="212" y="355" type="line"/>
      <point x="262" y="355" type="line"/>
      <point x="262" y="560" type="line"/>
      <point x="366" y="560" type="line" smooth="yes"/>
      <point x="393" y="560"/>
      <point x="407" y="548"/>
      <point x="407" y="529" type="curve" smooth="yes"/>
      <point x="407" y="520" type="line" smooth="yes"/>
      <point x="407" y="501"/>
      <point x="393" y="489"/>
      <point x="366" y="489" type="curve" smooth="yes"/>
      <point x="252" y="489" type="line"/>
      <point x="252" y="448" type="line"/>
      <point x="326" y="448" type="line"/>
      <point x="409" y="355" type="line"/>
      <point x="472" y="355" type="line"/>
      <point x="376" y="461" type="line"/>
      <point x="370" y="450" type="line"/>
      <point x="377" y="450" type="line" smooth="yes"/>
      <point x="427" y="450"/>
      <point x="461" y="480"/>
      <point x="461" y="525" type="curve" smooth="yes"/>
      <point x="461" y="575"/>
      <point x="428" y="603"/>
      <point x="370" y="603" type="curve" smooth="yes"/>
      <point x="212" y="603" type="line"/>
    </contour>
  </outline>
</glyph>
<glyph name="degree" format="2">
  <advance width="399"/>
  <unicode hex="00B0"/>
  <outline>
    <contour>
      <point x="199" y="429" type="curve" smooth="yes"/>
      <point x="291" y="429"/>
      <point x="361" y="492"/>
      <point x="361" y="583" type="curve" smooth="yes"/>
      <point x="361" y="675"/>
      <point x="291" y="738"/>
      <point x="199" y="738" type="curve" smooth="yes"/>
      <point x="107" y="738"/>
      <point x="37" y="675"/>
      <point x="37" y="583" type="curve" smooth="yes"/>
      <point x="37" y="492"/>
      <point x="107" y="429"/>
    </contour>
    <contour>
      <point x="199" y="485" type="curve" smooth="yes"/>
      <point x="141" y="485"/>
      <point x="97" y="525"/>
      <point x="97" y="583" type="curve" smooth="yes"/>
      <point x="97" y="642"/>
      <point x="141" y="682"/>
      <point x="199" y="682" type="curve" smooth="yes"/>
      <point x="256" y="682"/>
      <point x="300" y="642"/>
      <point x="300" y="583" type="curve" smooth="yes"/>
      <point x="300" y="525"/>
      <point x="256" y="485"/>
    </contour>
  </outline>
</glyph>
<glyph name="plusminus" format="2">
  <advance width="720"/>
  <unicode hex="00B1"/>
  <outline>
    <contour>
      <point x="312" y="182" type="line"/>
      <point x="388" y="182" type="line"/>
      <point x="388" y="352" type="line"/>
      <point x="602" y="352" type="line"/>
      <point x="602" y="433" type="line"/>
      <point x="388" y="433" type="line"/>
      <point x="388" y="599" type="line"/>
      <point x="312" y="599" type="line"/>
      <point x="312" y="433" type="line"/>
      <point x="99" y="433" type="line"/>
      <point x="99" y="352" type="line"/>
      <point x="312" y="352" type="line"/>
    </contour>
    <contour>
      <point x="99" y="0" type="line"/>
      <point x="602" y="0" type="line"/>
      <point x="602" y="74" type="line"/>
      <point x="99" y="74" type="line"/>
    </contour>
  </outline>
</glyph>
<glyph name="paragraph" format="2">
  <advance width="718"/>
  <unicode hex="00B6"/>
  <outline>
    <contour>
      <point x="219" y="-151" type="line"/>
      <point x="303" y="-151" type="line"/>
      <point x="303" y="643" type="line"/>
      <point x="487" y="643" type="line"/>
      <point x="487" y="-151" type="line"/>
      <point x="570" y="-151" type="line"/>
      <point x="570" y="643" type="line"/>
      <point x="658" y="643" type="line"/>
      <point x="658" y="729" type="line"/>
      <point x="230" y="729" type="line" smooth="yes"/>
      <point x="100" y="729"/>
      <point x="22" y="669"/>
      <point x="22" y="551" type="curve" smooth="yes"/>
      <point x="22" y="445"/>
      <point x="89" y="374"/>
      <point x="219" y="375" type="curve"/>
    </contour>
  </outline>
</glyph>
<glyph name="ordmasculine" format="2">
  <advance width="399"/>
  <unicode hex="00BA"/>
  <outline>
    <contour>
      <point x="200" y="385" type="curve" smooth="yes"/>
      <point x="305" y="385"/>
      <point x="377" y="441"/>
      <point x="377" y="562" type="curve" smooth="yes"/>
      <point x="377" y="565" type="line" smooth="yes"/>
      <point x="377" y="678"/>
      <point x="313" y="743"/>
      <point x="200" y="743" type="curve" smooth="yes"/>
      <point x="93" y="743"/>
      <point x="22" y="683"/>
      <point x="22" y="565" type="curve" smooth="yes"/>
      <point x="22" y="562" type="line" smooth="yes"/>
      <point x="22" y="449"/>
      <point x="89" y="385"/>
    </contour>
    <contour>
      <point x="200" y="444" type="curve" smooth="yes"/>
      <point x="134" y="444"/>
      <point x="93" y="481"/>
      <point x="93" y="536" type="curve" smooth="yes"/>
      <point x="93" y="592" type="line" smooth="yes"/>
      <point x="93" y="647"/>
      <point x="134" y="684"/>
      <point x="200" y="684" type="curve" smooth="yes"/>
      <point x="264" y="684"/>
      <point x="306" y="652"/>
      <point x="306" y="592" type="curve" smooth="yes"/>
      <point x="306" y="536" type="line" smooth="yes"/>
      <point x="306" y="475"/>
      <point x="264" y="444"/>
    </contour>
  </outline>
</glyph>
<glyph name="multiply" format="2">
  <advance width="720"/>
  <unicode hex="00D7"/>
  <outline>
    <contour>
      <point x="159" y="116" type="line"/>
      <point x="599" y="556" type="line"/>
      <point x="542" y="614" type="line"/>
      <point x="102" y="173" type="line"/>
    </contour>
    <contour>
      <point x="542" y="116" type="line"/>
      <point x="599" y="173" type="line"/>
      <point x="159" y="614" type="line"/>
      <point x="102" y="556" type="line"/>
    </contour>
  </outline>
</glyph>
<glyph name="Thorn" format="2">
  <advance width="705"/>
  <unicode hex="00DE"/>
  <outline>
    <contour>
      <point x="72" y="0" type="line"/>
      <point x="172" y="0" type="line"/>
      <point x="172" y="729" type="line"/>
      <point x="72" y="729" type="line"/>
    </contour>
    <contour>
      <point x="152" y="143" type="line"/>
      <point x="397" y="143" type="line" smooth="yes"/>
      <point x="556" y="143"/>
      <point x="664" y="220"/>
      <point x="664" y="366" type="curve" smooth="yes"/>
      <point x="664" y="508"/>
      <point x="561" y="587"/>
      <point x="398" y="587" type="curve" smooth="yes"/>
      <point x="152" y="587" type="line"/>
      <point x="152" y="502" type="line"/>
      <point x="400" y="502" type="line" smooth="yes"/>
      <point x="497" y="502"/>
      <point x="557" y="456"/>
      <point x="557" y="382" type="curve" smooth="yes"/>
      <point x="557" y="346" type="line" smooth="yes"/>
      <point x="557" y="272"/>
      <point x="498" y="227"/>
      <point x="400" y="227" type="curve" smooth="yes"/>
      <point x="152" y="227" type="line"/>
    </contour>
  </outline>
</glyph>
<glyph name="germandbls" format="2">
  <advance width="709"/>
  <unicode hex="00DF"/>
  <outline>
    <contour>
      <point x="139" y="0" type="line"/>
      <point x="228" y="0" type="line"/>
      <point x="228" y="498" type="line" smooth="yes"/>
      <point x="228" y="596"/>
      <point x="284" y="656"/>
      <point x="389" y="656" type="curve" smooth="yes"/>
      <point x="482" y="656"/>
      <point x="540" y="612"/>
      <point x="540" y="535" type="curve" smooth="yes"/>
      <point x="540" y="464"/>
      <point x="489" y="419"/>
      <point x="392" y="419" type="curve" smooth="yes"/>
      <point x="350" y="419" type="line"/>
      <point x="350" y="355" type="line"/>
      <point x="426" y="355" type="line" smooth="yes"/>
      <point x="520" y="355"/>
      <point x="584" y="314"/>
      <point x="584" y="230" type="curve" smooth="yes"/>
      <point x="584" y="198" type="line" smooth="yes"/>
      <point x="584" y="135"/>
      <point x="531" y="78"/>
      <point x="411" y="78" type="curve" smooth="yes"/>
      <point x="308" y="78" type="line"/>
      <point x="308" y="0" type="line"/>
      <point x="425" y="0" type="line" smooth="yes"/>
      <point x="585" y="0"/>
      <point x="677" y="82"/>
      <point x="677" y="206" type="curve" smooth="yes"/>
      <point x="677" y="310"/>
      <point x="616" y="381"/>
      <point x="513" y="396" type="curve"/>
      <point x="513" y="402" type="line"/>
      <point x="588" y="426"/>
      <point x="625" y="483"/>
      <point x="625" y="554" type="curve" smooth="yes"/>
      <point x="625" y="663"/>
      <point x="533" y="739"/>
      <point x="388" y="739" type="curve" smooth="yes"/>
      <point x="250" y="739"/>
      <point x="139" y="663"/>
      <point x="139" y="507" type="curve" smooth="yes"/>
    </contour>
    <contour>
      <point x="26" y="448" type="line"/>
      <point x="190" y="448" type="line"/>
      <point x="190" y="525" type="line"/>
      <point x="26" y="525" type="line"/>
    </contour>
  </outline>
</glyph>
<glyph name="ae" format="2">
  <advance width="1038"/>
  <unicode hex="00E6"/>
  <outline>
    <contour>
      <point x="224" y="-11" type="curve" smooth="yes"/>
      <point x="320" y="-11"/>
      <point x="413" y="27"/>
      <point x="464" y="89" type="curve"/>
      <point x="472" y="89" type="line"/>
      <point x="521" y="24"/>
      <point x="610" y="-11"/>
      <point x="722" y="-11" type="curve" smooth="yes"/>
      <point x="858" y="-11"/>
      <point x="969" y="53"/>
      <point x="995" y="150" type="curve"/>
      <point x="898" y="150" type="line"/>
      <point x="877" y="96"/>
      <point x="810" y="67"/>
      <point x="719" y="67" type="curve" smooth="yes"/>
      <point x="603" y="67"/>
      <point x="525" y="131"/>
      <point x="525" y="229" type="curve" smooth="yes"/>
      <point x="525" y="292" type="line" smooth="yes"/>
      <point x="525" y="391"/>
      <point x="600" y="459"/>
      <point x="717" y="459" type="curve" smooth="yes"/>
      <point x="829" y="459"/>
      <point x="904" y="400"/>
      <point x="904" y="302" type="curve" smooth="yes"/>
      <point x="904" y="293" type="line"/>
      <point x="921" y="311" type="line"/>
      <point x="507" y="311" type="line"/>
      <point x="507" y="241" type="line"/>
      <point x="1003" y="241" type="line"/>
      <point x="1003" y="280" type="line" smooth="yes"/>
      <point x="1003" y="435"/>
      <point x="888" y="537"/>
      <point x="719" y="537" type="curve" smooth="yes"/>
      <point x="622" y="537"/>
      <point x="543" y="503"/>
      <point x="495" y="443" type="curve"/>
      <point x="460" y="502"/>
      <point x="386" y="537"/>
      <point x="293" y="537" type="curve" smooth="yes"/>
      <point x="163" y="537"/>
      <point x="61" y="477"/>
      <point x="46" y="365" type="curve"/>
      <point x="148" y="365" type="line"/>
      <point x="159" y="422"/>
      <point x="207" y="455"/>
      <point x="291" y="455" type="curve" smooth="yes"/>
      <point x="372" y="455"/>
      <point x="427" y="418"/>
      <point x="427" y="327" type="curve" smooth="yes"/>
      <point x="427" y="264" type="line" smooth="yes"/>
      <point x="427" y="229"/>
      <point x="430" y="187"/>
      <point x="440" y="153" type="curve"/>
      <point x="411" y="102"/>
      <point x="347" y="66"/>
      <point x="261" y="66" type="curve" smooth="yes"/>
      <point x="190" y="66"/>
      <point x="145" y="94"/>
      <point x="145" y="146" type="curve" smooth="yes"/>
      <point x="145" y="213"/>
      <point x="195" y="245"/>
      <point x="301" y="245" type="curve" smooth="yes"/>
      <point x="446" y="245" type="line"/>
      <point x="446" y="311" type="line"/>
      <point x="277" y="311" type="line" smooth="yes"/>
      <point x="128" y="311"/>
      <point x="34" y="253"/>
      <point x="34" y="138" type="curve" smooth="yes"/>
      <point x="34" y="47"/>
      <point x="104" y="-11"/>
    </contour>
  </outline>
</glyph>
<glyph name="eth" format="2">
  <advance width="645"/>
  <unicode hex="00F0"/>
  <outline>
    <contour>
      <point x="312" y="-10" type="curve" smooth="yes"/>
      <point x="489" y="-10"/>
      <point x="609" y="89"/>
      <point x="609" y="249" type="curve" smooth="yes"/>
      <point x="609" y="260" type="line" smooth="yes"/>
      <point x="609" y="426"/>
      <point x="486" y="601"/>
      <point x="309" y="729" type="curve"/>
      <point x="194" y="729" type="line"/>
      <point x="318" y="625"/>
      <point x="414" y="521"/>
      <point x="460" y="438" type="curve"/>
      <point x="454" y="437" type="line"/>
      <point x="412" y="475"/>
      <point x="351" y="488"/>
      <point x="299" y="488" type="curve" smooth="yes"/>
      <point x="141" y="488"/>
      <point x="35" y="390"/>
      <point x="35" y="243" type="curve" smooth="yes"/>
      <point x="35" y="229" type="line" smooth="yes"/>
      <point x="35" y="86"/>
      <point x="145" y="-10"/>
    </contour>
    <contour>
      <point x="317" y="63" type="curve" smooth="yes"/>
      <point x="208" y="63"/>
      <point x="135" y="122"/>
      <point x="135" y="223" type="curve" smooth="yes"/>
      <point x="135" y="250" type="line" smooth="yes"/>
      <point x="135" y="351"/>
      <point x="210" y="419"/>
      <point x="329" y="419" type="curve" smooth="yes"/>
      <point x="391" y="419"/>
      <point x="453" y="401"/>
      <point x="497" y="353" type="curve"/>
      <point x="506" y="313"/>
      <point x="510" y="279"/>
      <point x="510" y="258" type="curve" smooth="yes"/>
      <point x="510" y="230" type="line" smooth="yes"/>
      <point x="510" y="129"/>
      <point x="433" y="63"/>
    </contour>
    <contour>
      <point x="178" y="537" type="line"/>
      <point x="547" y="617" type="line"/>
      <point x="547" y="675" type="line"/>
      <point x="178" y="595" type="line"/>
    </contour>
  </outline>
</glyph>
<glyph name="divide" format="2">
  <advance width="720"/>
  <unicode hex="00F7"/>
  <outline>
    <contour>
      <point x="101" y="324" type="line"/>
      <point x="599" y="324" type="line"/>
      <point x="599" y="406" type="line"/>
      <point x="101" y="406" type="line"/>
    </contour>
    <contour>
      <point x="291" y="479" type="line"/>
      <point x="410" y="479" type="line"/>
      <point x="410" y="585" type="line"/>
      <point x="291" y="585" type="line"/>
    </contour>
    <contour>
      <point x="291" y="145" type="line"/>
      <point x="410" y="145" type="line"/>
      <point x="410" y="251" type="line"/>
      <point x="291" y="251" type="line"/>
    </contour>
  </outline>
</glyph>
<glyph name="thorn" format="2">
  <advance width="677"/>
  <unicode hex="00FE"/>
  <outline>
    <contour>
      <point x="60" y="-167" type="line"/>
      <point x="157" y="-167" type="line"/>
      <point x="157" y="86" type="line"/>
      <point x="162" y="86" type="line"/>
      <point x="200" y="26"/>
      <point x="281" y="-10"/>
      <point x="372" y="-10" type="curve" smooth="yes"/>
      <point x="532" y="-10"/>
      <point x="641" y="93"/>
      <point x="641" y="252" type="curve" smooth="yes"/>
      <point x="641" y="275" type="line" smooth="yes"/>
      <point x="641" y="432"/>
      <point x="532" y="535"/>
      <point x="372" y="535" type="curve" smooth="yes"/>
      <point x="281" y="535"/>
      <point x="200" y="500"/>
      <point x="162" y="438" type="curve"/>
      <point x="157" y="438" type="line"/>
      <point x="157" y="729" type="line"/>
      <point x="60" y="729" type="line"/>
    </contour>
    <contour>
      <point x="345" y="68" type="curve" smooth="yes"/>
      <point x="259" y="68"/>
      <point x="187" y="109"/>
      <point x="157" y="173" type="curve"/>
      <point x="157" y="352" type="line"/>
      <point x="187" y="417"/>
      <point x="259" y="458"/>
      <point x="345" y="458" type="curve" smooth="yes"/>
      <point x="461" y="458"/>
      <point x="539" y="392"/>
      <point x="539" y="291" type="curve" smooth="yes"/>
      <point x="539" y="234" type="line" smooth="yes"/>
      <point x="539" y="133"/>
      <point x="461" y="68"/>
    </contour>
  </outline>
</glyph>
<glyph name="Eng" format="2">
  <advance width="906"/>
  <unicode hex="014A"/>
  <outline>
    <contour>
      <point x="566" y="-167" type="line"/>
      <point x="744" y="-167" type="line" smooth="yes"/>
      <point x="799" y="-167"/>
      <point x="834" y="-137"/>
      <point x="834" y="-72" type="curve" smooth="yes"/>
      <point x="834" y="729" type="line"/>
      <point x="734" y="729" type="line"/>
      <point x="734" y="114" type="line"/>
      <point x="727" y="114" type="line"/>
      <point x="706" y="142" type="line"/>
      <point x="212" y="729" type="line"/>
      <point x="72" y="729" type="line"/>
      <point x="72" y="0" type="line"/>
      <point x="172" y="0" type="line"/>
      <point x="172" y="620" type="line"/>
      <point x="179" y="620" type="line"/>
      <point x="198" y="594" type="line"/>
      <point x="698" y="0" type="line"/>
      <point x="737" y="0" type="line"/>
      <point x="737" y="-84" type="line"/>
      <point x="566" y="-84" type="line"/>
    </contour>
  </outline>
</glyph>
<glyph name="eng" format="2">
  <advance width="653"/>
  <unicode hex="014B"/>
  <outline>
    <contour>
      <point x="368" y="-167" type="line"/>
      <point x="513" y="-167" type="line" smooth="yes"/>
      <point x="564" y="-167"/>
      <point x="601" y="-140"/>
      <point x="601" y="-77" type="curve" smooth="yes"/>
      <point x="601" y="325" type="line" smooth="yes"/>
      <point x="601" y="454"/>
      <point x="523" y="535"/>
      <point x="374" y="535" type="curve" smooth="yes"/>
      <point x="282" y="535"/>
      <point x="207" y="497"/>
      <point x="163" y="439" type="curve"/>
      <point x="156" y="439" type="line"/>
      <point x="149" y="525" type="line"/>
      <point x="60" y="525" type="line"/>
      <point x="60" y="0" type="line"/>
      <point x="157" y="0" type="line"/>
      <point x="157" y="352" type="line"/>
      <point x="192" y="411"/>
      <point x="258" y="456"/>
      <point x="346" y="456" type="curve" smooth="yes"/>
      <point x="439" y="456"/>
      <point x="504" y="410"/>
      <point x="504" y="308" type="curve" smooth="yes"/>
      <point x="504" y="-86" type="line"/>
      <point x="368" y="-86" type="line"/>
    </contour>
  </outline>
</glyph>
<glyph name="florin" format="2">
  <advance width="586"/>
  <unicode hex="0192"/>
  <outline>
    <contour>
      <point x="292" y="6" type="curve"/>
      <point x="384" y="650" type="line"/>
      <point x="562" y="650" type="line"/>
      <point x="562" y="729" type="line"/>
      <point x="382" y="729" type="line" smooth="yes"/>
      <point x="327" y="729"/>
      <point x="296" y="700"/>
      <point x="288" y="638" type="curve" smooth="yes"/>
      <point x="198" y="-4" type="line"/>
      <point x="24" y="-4" type="line"/>
      <point x="24" y="-85" type="line"/>
      <point x="197" y="-85" type="line" smooth="yes"/>
      <point x="252" y="-85"/>
      <point x="284" y="-57"/>
    </contour>
    <contour>
      <point x="95" y="377" type="line"/>
      <point x="539" y="377" type="line"/>
      <point x="539" y="458" type="line"/>
      <point x="95" y="458" type="line"/>
    </contour>
  </outline>
</glyph>
<glyph name="jdotless" format="2">
  <advance width="217"/>
  <unicode hex="0237"/>
  <anchor x="109" y="525" name="top"/>
  <outline>
    <contour>
      <point x="-60" y="-167" type="line"/>
      <point x="67" y="-167" type="line" smooth="yes"/>
      <point x="120" y="-167"/>
      <point x="157" y="-142"/>
      <point x="157" y="-84" type="curve" smooth="yes"/>
      <point x="157" y="525" type="line"/>
      <point x="60" y="525" type="line"/>
      <point x="60" y="-87" type="line"/>
      <point x="-60" y="-87" type="line"/>
    </contour>
  </outline>
</glyph>
<glyph name="gravecomb" format="2">
  <unicode hex="0300"/>
  <anchor x="214" y="525" name="_top"/>
  <outline>
    <contour>
      <point x="160" y="603" type="line"/>
      <point x="268" y="603" type="line"/>
      <point x="151" y="729" type="line"/>
      <point x="40" y="729" type="line"/>
    </contour>
  </outline>
</glyph>
<glyph name="circumflexcomb" format="2">
  <unicode hex="0302"/>
  <anchor x="233" y="525" name="_top"/>
  <outline>
    <contour>
      <point x="40" y="602" type="line"/>
      <point x="147" y="602" type="line"/>
      <point x="233" y="675" type="line"/>
      <point x="319" y="602" type="line"/>
      <point x="426" y="602" type="line"/>
      <point x="284" y="728" type="line"/>
      <point x="183" y="728" type="line"/>
    </contour>
  </outline>
</glyph>
<glyph name="tildecomb" format="2">
  <unicode hex="0303"/>
  <anchor x="206" y="525" name="_top"/>
  <outline>
    <contour>
      <point x="286" y="607" type="curve" smooth="yes"/>
      <point x="334" y="607"/>
      <point x="376" y="637"/>
      <point x="374" y="728" type="curve"/>
      <point x="329" y="728" type="line"/>
      <point x="328" y="695"/>
      <point x="312" y="678"/>
      <point x="284" y="678" type="curve" smooth="yes"/>
      <point x="233" y="678"/>
      <point x="188" y="726"/>
      <point x="126" y="726" type="curve" smooth="yes"/>
      <point x="82" y="726"/>
      <point x="38" y="696"/>
      <point x="40" y="605" type="curve"/>
      <point x="86" y="605" type="line"/>
      <point x="85" y="634"/>
      <point x="98" y="655"/>
      <point x="127" y="655" type="curve" smooth="yes"/>
      <point x="173" y="655"/>
      <point x="219" y="607"/>
    </contour>
  </outline>
</glyph>
<glyph name="macroncomb" format="2">
  <unicode hex="0304"/>
  <anchor x="231" y="525" name="_top"/>
  <outline>
    <contour>
      <point x="40" y="623" type="line"/>
      <point x="421" y="623" type="line"/>
      <point x="421" y="699" type="line"/>
      <point x="40" y="699" type="line"/>
    </contour>
  </outline>
</glyph>
<glyph name="brevecomb" format="2">
  <unicode hex="0306"/>
  <anchor x="201" y="525" name="_top"/>
  <outline>
    <contour>
      <point x="201" y="587" type="curve" smooth="yes"/>
      <point x="303" y="587"/>
      <point x="361" y="643"/>
      <point x="363" y="728" type="curve"/>
      <point x="287" y="728" type="line"/>
      <point x="287" y="672"/>
      <point x="253" y="646"/>
      <point x="201" y="646" type="curve" smooth="yes"/>
      <point x="150" y="646"/>
      <point x="116" y="672"/>
      <point x="116" y="728" type="curve"/>
      <point x="40" y="728" type="line"/>
      <point x="42" y="643"/>
      <point x="100" y="587"/>
    </contour>
  </outline>
</glyph>
<glyph name="dotaccentcomb" format="2">
  <unicode hex="0307"/>
  <anchor x="88" y="525" name="_top"/>
  <outline>
    <contour>
      <point x="40" y="611" type="line"/>
      <point x="136" y="611" type="line"/>
      <point x="136" y="729" type="line"/>
      <point x="40" y="729" type="line"/>
    </contour>
  </outline>
</glyph>
<glyph name="dieresiscomb" format="2">
  <unicode hex="0308"/>
  <anchor x="171" y="525" name="_top"/>
  <outline>
    <contour>
      <point x="40" y="611" type="line"/>
      <point x="121" y="611" type="line"/>
      <point x="121" y="729" type="line"/>
      <point x="40" y="729" type="line"/>
    </contour>
    <contour>
      <point x="221" y="611" type="line"/>
      <point x="304" y="611" type="line"/>
      <point x="304" y="729" type="line"/>
      <point x="221" y="729" type="line"/>
    </contour>
  </outline>
</glyph>
<glyph name="hookabovecomb" format="2">
  <unicode hex="0309"/>
  <anchor x="119" y="525" name="_top"/>
  <outline>
    <contour>
      <point x="91" y="578" type="line"/>
      <point x="176" y="611"/>
      <point x="212" y="650"/>
      <point x="212" y="700" type="curve" smooth="yes"/>
      <point x="212" y="749"/>
      <point x="172" y="782"/>
      <point x="104" y="782" type="curve" smooth="yes"/>
      <point x="82" y="782"/>
      <point x="60" y="780"/>
      <point x="40" y="773" type="curve"/>
      <point x="41" y="728" type="line"/>
      <point x="56" y="733"/>
      <point x="71" y="736"/>
      <point x="88" y="736" type="curve" smooth="yes"/>
      <point x="122" y="736"/>
      <point x="142" y="720"/>
      <point x="142" y="694" type="curve" smooth="yes"/>
      <point x="142" y="665"/>
      <point x="119" y="644"/>
      <point x="66" y="619" type="curve"/>
    </contour>
  </outline>
</glyph>
<glyph name="ringcomb" format="2">
  <unicode hex="030A"/>
  <anchor x="158" y="525" name="_top"/>
  <outline>
    <contour>
      <point x="158" y="587" type="curve" smooth="yes"/>
      <point x="223" y="587"/>
      <point x="276" y="628"/>
      <point x="276" y="693" type="curve" smooth="yes"/>
      <point x="276" y="758"/>
      <point x="223" y="799"/>
      <point x="158" y="799" type="curve" smooth="yes"/>
      <point x="93" y="799"/>
      <point x="40" y="758"/>
      <point x="40" y="693" type="curve" smooth="yes"/>
      <point x="40" y="628"/>
      <point x="93" y="587"/>
    </contour>
    <contour>
      <point x="158" y="634" type="curve" smooth="yes"/>
      <point x="121" y="634"/>
      <point x="95" y="658"/>
      <point x="95" y="693" type="curve" smooth="yes"/>
      <point x="95" y="728"/>
      <point x="121" y="752"/>
      <point x="158" y="752" type="curve" smooth="yes"/>
      <point x="195" y="752"/>
      <point x="221" y="728"/>
      <point x="221" y="693" type="curve" smooth="yes"/>
      <point x="221" y="658"/>
      <point x="195" y="634"/>
    </contour>
  </outline>
</glyph>
<glyph name="hungarumlautcomb" format="2">
  <unicode hex="030B"/>
  <anchor x="209" y="525" name="_top"/>
  <outline>
    <contour>
      <point x="40" y="603" type="line"/>
      <point x="148" y="603" type="line"/>
      <point x="268" y="729" type="line"/>
      <point x="157" y="729" type="line"/>
    </contour>
    <contour>
      <point x="240" y="603" type="line"/>
      <point x="348" y="603" type="line"/>
      <point x="468" y="729" type="line"/>
      <point x="357" y="729" type="line"/>
    </contour>
  </outline>
</glyph>
<glyph name="caroncomb" format="2">
  <unicode hex="030C"/>
  <anchor x="233" y="525" name="_top"/>
  <outline>
    <contour>
      <point x="182" y="602" type="line"/>
      <point x="283" y="602" type="line"/>
      <point x="426" y="728" type="line"/>
      <point x="319" y="728" type="line"/>
      <point x="233" y="654" type="line"/>
      <point x="147" y="728" type="line"/>
      <point x="40" y="728" type="line"/>
    </contour>
  </outline>
</glyph>
<glyph name="commaturnedabovecomb" format="2">
  <unicode hex="0312"/>
  <anchor x="91" y="525" name="_top"/>
  <outline>
    <contour>
      <point x="40" y="604" type="line"/>
      <point x="141" y="604" type="line"/>
      <point x="141" y="692" type="line"/>
      <point x="96" y="692" type="line"/>
      <point x="158" y="815" type="line"/>
      <point x="91" y="815" type="line"/>
      <point x="40" y="686" type="line"/>
    </contour>
  </outline>
</glyph>
<glyph name="horncomb" format="2">
  <unicode hex="031B"/>
  <anchor x="40" y="547" name="_topright"/>
  <outline>
    <contour>
      <point x="40" y="490" type="line"/>
      <point x="161" y="490"/>
      <point x="223" y="533"/>
      <point x="223" y="625" type="curve" smooth="yes"/>
      <point x="223" y="661" type="line"/>
      <point x="134" y="661" type="line"/>
      <point x="134" y="632" type="line" smooth="yes"/>
      <point x="134" y="571"/>
      <point x="102" y="548"/>
      <point x="40" y="547" type="curve"/>
    </contour>
  </outline>
</glyph>
<glyph name="dotbelowcomb" format="2">
  <unicode hex="0323"/>
  <anchor x="93" y="0" name="_bottom"/>
  <outline>
    <contour>
      <point x="40" y="-164" type="line"/>
      <point x="145" y="-164" type="line"/>
      <point x="145" y="-57" type="line"/>
      <point x="40" y="-57" type="line"/>
    </contour>
  </outline>
</glyph>
<glyph name="commaaccentcomb" format="2">
  <unicode hex="0326"/>
  <anchor x="100" y="0" name="_bottom"/>
  <outline>
    <contour>
      <point x="40" y="-268" type="line"/>
      <point x="104" y="-268" type="line"/>
      <point x="151" y="-149" type="line"/>
      <point x="151" y="-60" type="line"/>
      <point x="49" y="-60" type="line"/>
      <point x="49" y="-154" type="line"/>
      <point x="99" y="-154" type="line"/>
    </contour>
  </outline>
</glyph>
<glyph name="cedillacomb" format="2">
  <unicode hex="0327"/>
  <anchor x="155" y="0" name="_bottom"/>
  <outline>
    <contour>
      <point x="165" y="-221" type="curve" smooth="yes"/>
      <point x="236" y="-221"/>
      <point x="288" y="-187"/>
      <point x="288" y="-126" type="curve" smooth="yes"/>
      <point x="288" y="-48"/>
      <point x="209" y="-31"/>
      <point x="152" y="-44" type="curve"/>
      <point x="173" y="-51" type="line"/>
      <point x="187" y="7" type="line"/>
      <point x="129" y="7" type="line"/>
      <point x="114" y="-62" type="line"/>
      <point x="138" y="-82" type="line"/>
      <point x="167" y="-72"/>
      <point x="223" y="-77"/>
      <point x="223" y="-123" type="curve" smooth="yes"/>
      <point x="223" y="-150"/>
      <point x="202" y="-169"/>
      <point x="164" y="-169" type="curve" smooth="yes"/>
      <point x="130" y="-169"/>
      <point x="107" y="-153"/>
      <point x="103" y="-129" type="curve"/>
      <point x="40" y="-129" type="line"/>
      <point x="45" y="-184"/>
      <point x="91" y="-221"/>
    </contour>
  </outline>
</glyph>
<glyph name="ogonekcomb" format="2">
  <unicode hex="0328"/>
  <anchor x="211" y="0" name="_ogonek"/>
  <outline>
    <contour>
      <point x="146" y="-189" type="curve" smooth="yes"/>
      <point x="173" y="-189"/>
      <point x="205" y="-183"/>
      <point x="222" y="-174" type="curve"/>
      <point x="223" y="-124" type="line"/>
      <point x="209" y="-132"/>
      <point x="190" y="-136"/>
      <point x="172" y="-136" type="curve" smooth="yes"/>
      <point x="141" y="-136"/>
      <point x="122" y="-122"/>
      <point x="122" y="-95" type="curve" smooth="yes"/>
      <point x="122" y="-61"/>
      <point x="152" y="-31"/>
      <point x="211" y="0" type="curve"/>
      <point x="201" y="18" type="line"/>
      <point x="188" y="28" type="line"/>
      <point x="98" y="-1"/>
      <point x="40" y="-47"/>
      <point x="40" y="-108" type="curve" smooth="yes"/>
      <point x="40" y="-158"/>
      <point x="80" y="-189"/>
    </contour>
  </outline>
</glyph>
<glyph name="strokelongcomb" format="2">
  <unicode hex="0336"/>
  <anchor x="482" y="280" name="_center"/>
  <outline>
    <contour>
      <point x="40" y="244" type="line"/>
      <point x="921" y="244" type="line"/>
      <point x="921" y="315" type="line"/>
      <point x="40" y="315" type="line"/>
    </contour>
  </outline>
</glyph>
<glyph name="slashshortcomb" format="2">
  <unicode hex="0337"/>
  <anchor x="155" y="365" name="_center"/>
  <outline>
    <contour>
      <point x="40" y="256" type="line"/>
      <point x="270" y="385" type="line"/>
      <point x="270" y="474" type="line"/>
      <point x="40" y="345" type="line"/>
    </contour>
  </outline>
</glyph>
<glyph name="slashlongcomb" format="2">
  <unicode hex="0338"/>
  <anchor x="335" y="268" name="_center"/>
  <outline>
    <contour>
      <point x="40" y="-20" type="line"/>
      <point x="127" y="-20" type="line"/>
      <point x="629" y="555" type="line"/>
      <point x="542" y="555" type="line"/>
    </contour>
  </outline>
</glyph>
<glyph name="mu" format="2">
  <advance width="659"/>
  <unicode hex="03BC"/>
  <outline>
    <contour>
      <point x="52" y="-132" type="line"/>
      <point x="149" y="-132" type="line"/>
      <point x="149" y="69" type="line"/>
      <point x="130" y="53" type="line"/>
      <point x="159" y="12"/>
      <point x="209" y="-10"/>
      <point x="276" y="-10" type="curve" smooth="yes"/>
      <point x="374" y="-10"/>
      <point x="450" y="29"/>
      <point x="496" y="90" type="curve"/>
      <point x="502" y="90" type="line"/>
      <point x="512" y="0" type="line"/>
      <point x="599" y="0" type="line"/>
      <point x="599" y="525" type="line"/>
      <point x="502" y="525" type="line"/>
      <point x="502" y="172" type="line"/>
      <point x="462" y="106"/>
      <point x="391" y="66"/>
      <point x="311" y="66" type="curve" smooth="yes"/>
      <point x="216" y="66"/>
      <point x="149" y="113"/>
      <point x="149" y="219" type="curve" smooth="yes"/>
      <point x="149" y="525" type="line"/>
      <point x="52" y="525" type="line"/>
    </contour>
  </outline>
</glyph>
<glyph name="pi" format="2">
  <advance width="671"/>
  <unicode hex="03C0"/>
  <outline>
    <contour>
      <point x="131" y="0" type="line"/>
      <point x="218" y="0" type="line"/>
      <point x="218" y="443" type="line"/>
      <point x="446" y="443" type="line"/>
      <point x="446" y="84" type="line" smooth="yes"/>
      <point x="446" y="34"/>
      <point x="469" y="0"/>
      <point x="528" y="0" type="curve"/>
      <point x="638" y="0" type="line"/>
      <point x="638" y="79" type="line"/>
      <point x="533" y="79" type="line"/>
      <point x="533" y="443" type="line"/>
      <point x="639" y="443" type="line"/>
      <point x="639" y="525" type="line"/>
      <point x="26" y="525" type="line"/>
      <point x="26" y="443" type="line"/>
      <point x="131" y="443" type="line"/>
    </contour>
  </outline>
</glyph>
<glyph name="Germandbls" format="2">
  <advance width="789"/>
  <unicode hex="1E9E"/>
  <outline>
    <contour>
      <point x="72" y="0" type="line"/>
      <point x="172" y="0" type="line"/>
      <point x="172" y="642" type="line"/>
      <point x="586" y="642" type="line"/>
      <point x="390" y="411" type="line"/>
      <point x="390" y="345" type="line"/>
      <point x="498" y="345" type="line" smooth="yes"/>
      <point x="586" y="345"/>
      <point x="644" y="311"/>
      <point x="644" y="230" type="curve" smooth="yes"/>
      <point x="644" y="197" type="line" smooth="yes"/>
      <point x="644" y="126"/>
      <point x="589" y="82"/>
      <point x="485" y="82" type="curve" smooth="yes"/>
      <point x="255" y="82" type="line"/>
      <point x="255" y="0" type="line"/>
      <point x="498" y="0" type="line" smooth="yes"/>
      <point x="652" y="0"/>
      <point x="749" y="78"/>
      <point x="749" y="210" type="curve" smooth="yes"/>
      <point x="749" y="331"/>
      <point x="670" y="413"/>
      <point x="524" y="413" type="curve" smooth="yes"/>
      <point x="469" y="413" type="line"/>
      <point x="504" y="380" type="line"/>
      <point x="504" y="418" type="line"/>
      <point x="688" y="633" type="line"/>
      <point x="688" y="729" type="line"/>
      <point x="72" y="729" type="line"/>
    </contour>
  </outline>
</glyph>
<glyph name="endash" format="2">
  <advance width="533"/>
  <unicode hex="2013"/>
  <outline>
    <contour>
      <point x="42" y="283" type="line"/>
      <point x="491" y="283" type="line"/>
      <point x="491" y="364" type="line"/>
      <point x="42" y="364" type="line"/>
    </contour>
  </outline>
</glyph>
<glyph name="emdash" format="2">
  <advance width="716"/>
  <unicode hex="2014"/>
  <outline>
    <contour>
      <point x="42" y="283" type="line"/>
      <point x="674" y="283" type="line"/>
      <point x="674" y="364" type="line"/>
      <point x="42" y="364" type="line"/>
    </contour>
  </outline>
</glyph>
<glyph name="bullet" format="2">
  <advance width="285"/>
  <unicode hex="2022"/>
  <outline>
    <contour>
      <point x="23" y="277" type="curve" smooth="yes"/>
      <point x="23" y="210"/>
      <point x="75" y="159"/>
      <point x="143" y="159" type="curve" smooth="yes"/>
      <point x="214" y="159"/>
      <point x="262" y="210"/>
      <point x="262" y="277" type="curve" smooth="yes"/>
      <point x="262" y="345"/>
      <point x="214" y="396"/>
      <point x="143" y="396" type="curve" smooth="yes"/>
      <point x="75" y="396"/>
      <point x="23" y="345"/>
    </contour>
  </outline>
</glyph>
<glyph name="perthousand" format="2">
  <advance width="1348"/>
  <unicode hex="2030"/>
  <outline>
    <contour>
      <point x="216" y="350" type="curve" smooth="yes"/>
      <point x="333" y="350"/>
      <point x="404" y="416"/>
      <point x="404" y="541" type="curve" smooth="yes"/>
      <point x="404" y="548" type="line" smooth="yes"/>
      <point x="404" y="673"/>
      <point x="333" y="739"/>
      <point x="216" y="739" type="curve" smooth="yes"/>
      <point x="99" y="739"/>
      <point x="29" y="673"/>
      <point x="29" y="548" type="curve" smooth="yes"/>
      <point x="29" y="541" type="line" smooth="yes"/>
      <point x="29" y="416"/>
      <point x="99" y="350"/>
    </contour>
    <contour>
      <point x="216" y="414" type="curve" smooth="yes"/>
      <point x="152" y="414"/>
      <point x="110" y="448"/>
      <point x="110" y="513" type="curve" smooth="yes"/>
      <point x="110" y="576" type="line" smooth="yes"/>
      <point x="110" y="641"/>
      <point x="152" y="676"/>
      <point x="216" y="676" type="curve" smooth="yes"/>
      <point x="280" y="676"/>
      <point x="323" y="641"/>
      <point x="323" y="576" type="curve" smooth="yes"/>
      <point x="323" y="513" type="line" smooth="yes"/>
      <point x="323" y="448"/>
      <point x="280" y="414"/>
    </contour>
    <contour>
      <point x="157" y="0" type="line"/>
      <point x="247" y="0" type="line"/>
      <point x="775" y="729" type="line"/>
      <point x="684" y="729" type="line"/>
    </contour>
    <contour>
      <point x="717" y="-11" type="curve" smooth="yes"/>
      <point x="834" y="-11"/>
      <point x="904" y="55"/>
      <point x="904" y="180" type="curve" smooth="yes"/>
      <point x="904" y="187" type="line" smooth="yes"/>
      <point x="904" y="312"/>
      <point x="834" y="378"/>
      <point x="717" y="378" type="curve" smooth="yes"/>
      <point x="600" y="378"/>
      <point x="530" y="312"/>
      <point x="530" y="187" type="curve" smooth="yes"/>
      <point x="530" y="180" type="line" smooth="yes"/>
      <point x="530" y="55"/>
      <point x="600" y="-11"/>
    </contour>
    <contour>
      <point x="717" y="52" type="curve" smooth="yes"/>
      <point x="653" y="52"/>
      <point x="610" y="87"/>
      <point x="610" y="152" type="curve" smooth="yes"/>
      <point x="610" y="215" type="line" smooth="yes"/>
      <point x="610" y="280"/>
      <point x="653" y="315"/>
      <point x="717" y="315" type="curve" smooth="yes"/>
      <point x="780" y="315"/>
      <point x="824" y="280"/>
      <point x="824" y="215" type="curve" smooth="yes"/>
      <point x="824" y="152" type="line" smooth="yes"/>
      <point x="824" y="87"/>
      <point x="780" y="52"/>
    </contour>
    <contour>
      <point x="1132" y="-11" type="curve" smooth="yes"/>
      <point x="1249" y="-11"/>
      <point x="1319" y="55"/>
      <point x="1319" y="180" type="curve" smooth="yes"/>
      <point x="1319" y="187" type="line" smooth="yes"/>
      <point x="1319" y="312"/>
      <point x="1249" y="378"/>
      <point x="1132" y="378" type="curve" smooth="yes"/>
      <point x="1015" y="378"/>
      <point x="945" y="312"/>
      <point x="945" y="187" type="curve" smooth="yes"/>
      <point x="945" y="180" type="line" smooth="yes"/>
      <point x="945" y="55"/>
      <point x="1015" y="-11"/>
    </contour>
    <contour>
      <point x="1132" y="52" type="curve" smooth="yes"/>
      <point x="1069" y="52"/>
      <point x="1025" y="87"/>
      <point x="1025" y="152" type="curve" smooth="yes"/>
      <point x="1025" y="215" type="line" smooth="yes"/>
      <point x="1025" y="280"/>
      <point x="1069" y="315"/>
      <point x="1132" y="315" type="curve" smooth="yes"/>
      <point x="1196" y="315"/>
      <point x="1239" y="280"/>
      <point x="1239" y="215" type="curve" smooth="yes"/>
      <point x="1239" y="152" type="line" smooth="yes"/>
      <point x="1239" y="87"/>
      <point x="1196" y="52"/>
    </contour>
  </outline>
</glyph>
<glyph name="guilsinglleft" format="2">
  <advance width="328"/>
  <unicode hex="2039"/>
  <anchor x="2" y="0" name="#entry"/>
  <anchor x="221" y="0" name="#exit"/>
  <outline>
    <contour>
      <point x="190" y="57" type="line"/>
      <point x="272" y="57" type="line"/>
      <point x="140" y="292" type="line"/>
      <point x="272" y="525" type="line"/>
      <point x="190" y="525" type="line"/>
      <point x="42" y="292" type="line"/>
    </contour>
  </outline>
</glyph>
<glyph name="zeroinferior" format="2">
  <advance width="498"/>
  <unicode hex="2080"/>
  <outline>
    <contour>
      <point x="248" y="-68" type="curve" smooth="yes"/>
      <point x="374" y="-68"/>
      <point x="459" y="3"/>
      <point x="459" y="153" type="curve" smooth="yes"/>
      <point x="459" y="165" type="line" smooth="yes"/>
      <point x="459" y="311"/>
      <point x="378" y="385"/>
      <point x="248" y="385" type="curve" smooth="yes"/>
      <point x="123" y="385"/>
      <point x="39" y="315"/>
      <point x="39" y="165" type="curve" smooth="yes"/>
      <point x="39" y="153" type="line" smooth="yes"/>
      <point x="39" y="6"/>
      <point x="120" y="-68"/>
    </contour>
    <contour>
      <point x="248" y="6" type="curve" smooth="yes"/>
      <point x="168" y="6"/>
      <point x="130" y="51"/>
      <point x="130" y="118" type="curve" smooth="yes"/>
      <point x="130" y="200" type="line" smooth="yes"/>
      <point x="130" y="265"/>
      <point x="167" y="312"/>
      <point x="248" y="312" type="curve" smooth="yes"/>
      <point x="330" y="312"/>
      <point x="368" y="265"/>
      <point x="368" y="200" type="curve" smooth="yes"/>
      <point x="368" y="118" type="line" smooth="yes"/>
      <point x="368" y="52"/>
      <point x="330" y="6"/>
    </contour>
  </outline>
</glyph>
<glyph name="oneinferior" format="2">
  <advance width="295"/>
  <unicode hex="2081"/>
  <outline>
    <contour>
      <point x="235" y="-60" type="line"/>
      <point x="235" y="377" type="line"/>
      <point x="161" y="377" type="line"/>
      <point x="148" y="308" type="line"/>
      <point x="28" y="308" type="line"/>
      <point x="28" y="237" type="line"/>
      <point x="146" y="237" type="line"/>
      <point x="146" y="-60" type="line"/>
    </contour>
  </outline>
</glyph>
<glyph name="twoinferior" format="2">
  <advance width="446"/>
  <unicode hex="2082"/>
  <outline>
    <contour>
      <point x="43" y="-60" type="line"/>
      <point x="411" y="-60" type="line"/>
      <point x="411" y="12" type="line"/>
      <point x="193" y="12" type="line"/>
      <point x="171" y="10" type="line"/>
      <point x="171" y="12" type="line"/>
      <point x="183" y="18" type="line"/>
      <point x="292" y="88" type="line" smooth="yes"/>
      <point x="365" y="135"/>
      <point x="399" y="178"/>
      <point x="399" y="242" type="curve" smooth="yes"/>
      <point x="399" y="326"/>
      <point x="332" y="384"/>
      <point x="225" y="384" type="curve" smooth="yes"/>
      <point x="113" y="384"/>
      <point x="41" y="324"/>
      <point x="32" y="234" type="curve"/>
      <point x="120" y="234" type="line"/>
      <point x="125" y="279"/>
      <point x="159" y="310"/>
      <point x="219" y="310" type="curve" smooth="yes"/>
      <point x="272" y="310"/>
      <point x="308" y="284"/>
      <point x="308" y="239" type="curve" smooth="yes"/>
      <point x="308" y="230" type="line" smooth="yes"/>
      <point x="308" y="202"/>
      <point x="292" y="177"/>
      <point x="245" y="144" type="curve" smooth="yes"/>
      <point x="43" y="6" type="line"/>
    </contour>
  </outline>
</glyph>
<glyph name="threeinferior" format="2">
  <advance width="447"/>
  <unicode hex="2083"/>
  <outline>
    <contour>
      <point x="214" y="-68" type="curve" smooth="yes"/>
      <point x="331" y="-68"/>
      <point x="411" y="-20"/>
      <point x="411" y="62" type="curve" smooth="yes"/>
      <point x="411" y="124"/>
      <point x="366" y="160"/>
      <point x="307" y="169" type="curve"/>
      <point x="307" y="172" type="line"/>
      <point x="362" y="185"/>
      <point x="397" y="221"/>
      <point x="397" y="269" type="curve" smooth="yes"/>
      <point x="397" y="343"/>
      <point x="327" y="385"/>
      <point x="224" y="385" type="curve" smooth="yes"/>
      <point x="116" y="385"/>
      <point x="41" y="334"/>
      <point x="36" y="253" type="curve"/>
      <point x="117" y="253" type="line"/>
      <point x="121" y="294"/>
      <point x="159" y="318"/>
      <point x="218" y="318" type="curve" smooth="yes"/>
      <point x="270" y="318"/>
      <point x="308" y="299"/>
      <point x="308" y="262" type="curve" smooth="yes"/>
      <point x="308" y="252" type="line" smooth="yes"/>
      <point x="308" y="218"/>
      <point x="274" y="195"/>
      <point x="224" y="195" type="curve" smooth="yes"/>
      <point x="187" y="195" type="line"/>
      <point x="187" y="134" type="line"/>
      <point x="228" y="134" type="line" smooth="yes"/>
      <point x="278" y="134"/>
      <point x="319" y="119"/>
      <point x="319" y="78" type="curve" smooth="yes"/>
      <point x="319" y="62" type="line" smooth="yes"/>
      <point x="319" y="24"/>
      <point x="279" y="-1"/>
      <point x="216" y="-1" type="curve" smooth="yes"/>
      <point x="149" y="-1"/>
      <point x="120" y="28"/>
      <point x="116" y="68" type="curve"/>
      <point x="32" y="68" type="line"/>
      <point x="37" y="-14"/>
      <point x="99" y="-68"/>
    </contour>
  </outline>
</glyph>
<glyph name="fourinferior" format="2">
  <advance width="479"/>
  <unicode hex="2084"/>
  <outline>
    <contour>
      <point x="279" y="-60" type="line"/>
      <point x="368" y="-60" type="line"/>
      <point x="368" y="37" type="line"/>
      <point x="450" y="37" type="line"/>
      <point x="450" y="109" type="line"/>
      <point x="368" y="109" type="line"/>
      <point x="368" y="199" type="line"/>
      <point x="296" y="199" type="line"/>
      <point x="284" y="109" type="line"/>
      <point x="128" y="109" type="line"/>
      <point x="128" y="114" type="line"/>
      <point x="306" y="377" type="line"/>
      <point x="217" y="377" type="line"/>
      <point x="29" y="98" type="line"/>
      <point x="29" y="37" type="line"/>
      <point x="279" y="37" type="line"/>
    </contour>
  </outline>
</glyph>
<glyph name="fiveinferior" format="2">
  <advance width="460"/>
  <unicode hex="2085"/>
  <outline>
    <contour>
      <point x="227" y="-68" type="curve" smooth="yes"/>
      <point x="347" y="-68"/>
      <point x="423" y="-10"/>
      <point x="423" y="84" type="curve" smooth="yes"/>
      <point x="423" y="170"/>
      <point x="366" y="225"/>
      <point x="262" y="225" type="curve" smooth="yes"/>
      <point x="217" y="225"/>
      <point x="174" y="213"/>
      <point x="143" y="189" type="curve"/>
      <point x="138" y="188" type="line"/>
      <point x="146" y="306" type="line"/>
      <point x="407" y="306" type="line"/>
      <point x="407" y="377" type="line"/>
      <point x="66" y="377" type="line"/>
      <point x="50" y="128" type="line"/>
      <point x="129" y="123" type="line"/>
      <point x="154" y="149"/>
      <point x="190" y="165"/>
      <point x="237" y="165" type="curve" smooth="yes"/>
      <point x="292" y="165"/>
      <point x="333" y="140"/>
      <point x="333" y="92" type="curve" smooth="yes"/>
      <point x="333" y="73" type="line" smooth="yes"/>
      <point x="333" y="28"/>
      <point x="291" y="0"/>
      <point x="226" y="0" type="curve" smooth="yes"/>
      <point x="169" y="0"/>
      <point x="130" y="25"/>
      <point x="125" y="63" type="curve"/>
      <point x="41" y="63" type="line"/>
      <point x="47" y="-16"/>
      <point x="118" y="-68"/>
    </contour>
  </outline>
</glyph>
<glyph name="sixinferior" format="2">
  <advance width="475"/>
  <unicode hex="2086"/>
  <outline>
    <contour>
      <point x="242" y="-67" type="curve" smooth="yes"/>
      <point x="358" y="-67"/>
      <point x="439" y="-11"/>
      <point x="439" y="86" type="curve" smooth="yes"/>
      <point x="439" y="172"/>
      <point x="381" y="228"/>
      <point x="278" y="228" type="curve" smooth="yes"/>
      <point x="220" y="228"/>
      <point x="167" y="207"/>
      <point x="134" y="169" type="curve"/>
      <point x="127" y="169" type="line"/>
      <point x="128" y="180"/>
      <point x="129" y="195"/>
      <point x="129" y="208" type="curve" smooth="yes"/>
      <point x="129" y="282"/>
      <point x="173" y="320"/>
      <point x="249" y="320" type="curve" smooth="yes"/>
      <point x="300" y="320"/>
      <point x="339" y="302"/>
      <point x="348" y="265" type="curve"/>
      <point x="430" y="265" type="line"/>
      <point x="418" y="336"/>
      <point x="355" y="385"/>
      <point x="248" y="385" type="curve" smooth="yes"/>
      <point x="129" y="385"/>
      <point x="42" y="319"/>
      <point x="42" y="187" type="curve" smooth="yes"/>
      <point x="42" y="124" type="line" smooth="yes"/>
      <point x="42" y="7"/>
      <point x="108" y="-67"/>
    </contour>
    <contour>
      <point x="242" y="3" type="curve" smooth="yes"/>
      <point x="187" y="3"/>
      <point x="129" y="26"/>
      <point x="129" y="98" type="curve" smooth="yes"/>
      <point x="129" y="114" type="line"/>
      <point x="159" y="150"/>
      <point x="199" y="168"/>
      <point x="252" y="168" type="curve" smooth="yes"/>
      <point x="309" y="168"/>
      <point x="347" y="143"/>
      <point x="347" y="97" type="curve" smooth="yes"/>
      <point x="347" y="78" type="line" smooth="yes"/>
      <point x="347" y="33"/>
      <point x="305" y="3"/>
    </contour>
  </outline>
</glyph>
<glyph name="seveninferior" format="2">
  <advance width="440"/>
  <unicode hex="2087"/>
  <outline>
    <contour>
      <point x="206" y="-60" type="line"/>
      <point x="411" y="302" type="line"/>
      <point x="411" y="377" type="line"/>
      <point x="34" y="377" type="line"/>
      <point x="34" y="233" type="line"/>
      <point x="99" y="233" type="line"/>
      <point x="99" y="305" type="line"/>
      <point x="313" y="305" type="line"/>
      <point x="313" y="296" type="line"/>
      <point x="104" y="-60" type="line"/>
    </contour>
  </outline>
</glyph>
<glyph name="eightinferior" format="2">
  <advance width="465"/>
  <unicode hex="2088"/>
  <outline>
    <contour>
      <point x="232" y="-68" type="curve" smooth="yes"/>
      <point x="362" y="-68"/>
      <point x="429" y="-19"/>
      <point x="429" y="58" type="curve" smooth="yes"/>
      <point x="429" y="121"/>
      <point x="383" y="156"/>
      <point x="325" y="168" type="curve"/>
      <point x="325" y="172" type="line"/>
      <point x="385" y="184"/>
      <point x="415" y="221"/>
      <point x="415" y="266" type="curve" smooth="yes"/>
      <point x="415" y="343"/>
      <point x="344" y="385"/>
      <point x="232" y="385" type="curve" smooth="yes"/>
      <point x="121" y="385"/>
      <point x="49" y="343"/>
      <point x="49" y="266" type="curve" smooth="yes"/>
      <point x="49" y="220"/>
      <point x="80" y="184"/>
      <point x="140" y="172" type="curve"/>
      <point x="140" y="168" type="line"/>
      <point x="81" y="156"/>
      <point x="36" y="121"/>
      <point x="36" y="58" type="curve" smooth="yes"/>
      <point x="36" y="-19"/>
      <point x="103" y="-68"/>
    </contour>
    <contour>
      <point x="232" y="-1" type="curve" smooth="yes"/>
      <point x="167" y="-1"/>
      <point x="127" y="21"/>
      <point x="127" y="60" type="curve" smooth="yes"/>
      <point x="127" y="74" type="line" smooth="yes"/>
      <point x="127" y="108"/>
      <point x="157" y="137"/>
      <point x="233" y="137" type="curve" smooth="yes"/>
      <point x="307" y="137"/>
      <point x="337" y="108"/>
      <point x="337" y="74" type="curve" smooth="yes"/>
      <point x="337" y="60" type="line" smooth="yes"/>
      <point x="337" y="21"/>
      <point x="297" y="-1"/>
    </contour>
    <contour>
      <point x="232" y="193" type="curve" smooth="yes"/>
      <point x="167" y="193"/>
      <point x="137" y="219"/>
      <point x="137" y="249" type="curve" smooth="yes"/>
      <point x="137" y="262" type="line" smooth="yes"/>
      <point x="137" y="298"/>
      <point x="173" y="319"/>
      <point x="232" y="319" type="curve" smooth="yes"/>
      <point x="292" y="319"/>
      <point x="328" y="298"/>
      <point x="328" y="262" type="curve" smooth="yes"/>
      <point x="328" y="249" type="line" smooth="yes"/>
      <point x="328" y="219"/>
      <point x="298" y="193"/>
    </contour>
  </outline>
</glyph>
<glyph name="sheqel" format="2">
  <advance width="793"/>
  <unicode hex="20AA"/>
  <outline>
    <contour>
      <point x="269" y="0" type="line"/>
      <point x="623" y="0" type="line" smooth="yes"/>
      <point x="680" y="0"/>
      <point x="717" y="22"/>
      <point x="717" y="100" type="curve" smooth="yes"/>
      <point x="717" y="729" type="line"/>
      <point x="634" y="729" type="line"/>
      <point x="634" y="80" type="line"/>
      <point x="348" y="80" type="line"/>
      <point x="348" y="556" type="line"/>
      <point x="269" y="556" type="line"/>
    </contour>
    <contour>
      <point x="78" y="0" type="line"/>
      <point x="161" y="0" type="line"/>
      <point x="161" y="649" type="line"/>
      <point x="448" y="649" type="line"/>
      <point x="448" y="174" type="line"/>
      <point x="526" y="174" type="line"/>
      <point x="526" y="631" type="line" smooth="yes"/>
      <point x="526" y="708"/>
      <point x="493" y="729"/>
      <point x="436" y="729" type="curve" smooth="yes"/>
      <point x="78" y="729" type="line"/>
    </contour>
  </outline>
</glyph>
<glyph name="rupeeIndian" format="2">
  <advance width="739"/>
  <unicode hex="20B9"/>
  <outline>
    <contour>
      <point x="475" y="0" type="line"/>
      <point x="622" y="0" type="line"/>
      <point x="202" y="314" type="line"/>
      <point x="202" y="302" type="line"/>
      <point x="332" y="302" type="line" smooth="yes"/>
      <point x="489" y="302"/>
      <point x="593" y="373"/>
      <point x="593" y="508" type="curve" smooth="yes"/>
      <point x="593" y="580"/>
      <point x="563" y="632"/>
      <point x="510" y="665" type="curve"/>
      <point x="509" y="657" type="line"/>
      <point x="691" y="657" type="line"/>
      <point x="691" y="729" type="line"/>
      <point x="54" y="729" type="line"/>
      <point x="54" y="645" type="line"/>
      <point x="336" y="645" type="line" smooth="yes"/>
      <point x="435" y="645"/>
      <point x="490" y="602"/>
      <point x="490" y="528" type="curve" smooth="yes"/>
      <point x="490" y="494" type="line" smooth="yes"/>
      <point x="490" y="421"/>
      <point x="436" y="378"/>
      <point x="336" y="378" type="curve" smooth="yes"/>
      <point x="54" y="378" type="line"/>
      <point x="54" y="314" type="line"/>
    </contour>
    <contour>
      <point x="54" y="474" type="line"/>
      <point x="528" y="474" type="line"/>
      <point x="528" y="549" type="line"/>
      <point x="54" y="549" type="line"/>
    </contour>
    <contour>
      <point x="528" y="474" type="line"/>
      <point x="691" y="474" type="line"/>
      <point x="691" y="549" type="line"/>
      <point x="528" y="549" type="line"/>
    </contour>
  </outline>
</glyph>
<glyph name="liraTurkish" format="2">
  <advance width="719"/>
  <unicode hex="20BA"/>
  <outline>
    <contour>
      <point x="150" y="0" type="line"/>
      <point x="231" y="0" type="line" smooth="yes"/>
      <point x="480" y="0"/>
      <point x="655" y="95"/>
      <point x="677" y="332" type="curve"/>
      <point x="580" y="332" type="line"/>
      <point x="567" y="185"/>
      <point x="465" y="87"/>
      <point x="241" y="89" type="curve"/>
      <point x="241" y="729" type="line"/>
      <point x="150" y="729" type="line"/>
    </contour>
    <contour>
      <point x="49" y="258" type="line"/>
      <point x="475" y="410" type="line"/>
      <point x="475" y="482" type="line"/>
      <point x="49" y="331" type="line"/>
    </contour>
    <contour>
      <point x="49" y="434" type="line"/>
      <point x="475" y="585" type="line"/>
      <point x="475" y="660" type="line"/>
      <point x="49" y="506" type="line"/>
    </contour>
  </outline>
</glyph>
<glyph name="literSign" format="2">
  <advance width="597"/>
  <unicode hex="2113"/>
  <outline>
    <contour>
      <point x="321" y="-9" type="curve" smooth="yes"/>
      <point x="410" y="-9"/>
      <point x="481" y="40"/>
      <point x="516" y="131" type="curve"/>
      <point x="457" y="154" type="line"/>
      <point x="430" y="87"/>
      <point x="384" y="53"/>
      <point x="326" y="53" type="curve" smooth="yes"/>
      <point x="243" y="53"/>
      <point x="201" y="155"/>
      <point x="201" y="386" type="curve" smooth="yes"/>
      <point x="201" y="570"/>
      <point x="249" y="671"/>
      <point x="326" y="671" type="curve" smooth="yes"/>
      <point x="381" y="671"/>
      <point x="410" y="624"/>
      <point x="410" y="533" type="curve" smooth="yes"/>
      <point x="410" y="336"/>
      <point x="274" y="194"/>
      <point x="53" y="165" type="curve"/>
      <point x="56" y="110" type="line"/>
      <point x="322" y="142"/>
      <point x="479" y="308"/>
      <point x="479" y="537" type="curve" smooth="yes"/>
      <point x="479" y="664"/>
      <point x="427" y="739"/>
      <point x="330" y="739" type="curve" smooth="yes"/>
      <point x="203" y="739"/>
      <point x="127" y="601"/>
      <point x="127" y="383" type="curve" smooth="yes"/>
      <point x="127" y="130"/>
      <point x="187" y="-9"/>
    </contour>
  </outline>
</glyph>
<glyph name="numero" format="2">
  <advance width="1336"/>
  <unicode hex="2116"/>
  <outline>
    <contour>
      <point x="72" y="0" type="line"/>
      <point x="168" y="0" type="line"/>
      <point x="168" y="620" type="line"/>
      <point x="175" y="620" type="line"/>
      <point x="194" y="594" type="line"/>
      <point x="679" y="0" type="line"/>
      <point x="811" y="0" type="line"/>
      <point x="811" y="729" type="line"/>
      <point x="714" y="729" type="line"/>
      <point x="714" y="114" type="line"/>
      <point x="707" y="114" type="line"/>
      <point x="686" y="142" type="line"/>
      <point x="208" y="729" type="line"/>
      <point x="72" y="729" type="line"/>
    </contour>
    <contour>
      <point x="927" y="192" type="line"/>
      <point x="1252" y="192" type="line"/>
      <point x="1252" y="260" type="line"/>
      <point x="927" y="260" type="line"/>
    </contour>
    <contour>
      <point x="1091" y="325" type="curve" smooth="yes"/>
      <point x="1208" y="325"/>
      <point x="1288" y="398"/>
      <point x="1288" y="532" type="curve" smooth="yes"/>
      <point x="1288" y="666"/>
      <point x="1208" y="739"/>
      <point x="1090" y="739" type="curve" smooth="yes"/>
      <point x="973" y="739"/>
      <point x="892" y="666"/>
      <point x="892" y="532" type="curve" smooth="yes"/>
      <point x="892" y="398"/>
      <point x="973" y="325"/>
    </contour>
    <contour>
      <point x="1090" y="382" type="curve" smooth="yes"/>
      <point x="1013" y="382"/>
      <point x="967" y="432"/>
      <point x="967" y="532" type="curve" smooth="yes"/>
      <point x="967" y="632"/>
      <point x="1014" y="682"/>
      <point x="1090" y="682" type="curve" smooth="yes"/>
      <point x="1167" y="682"/>
      <point x="1213" y="631"/>
      <point x="1213" y="532" type="curve" smooth="yes"/>
      <point x="1213" y="432"/>
      <point x="1167" y="382"/>
    </contour>
  </outline>
</glyph>
<glyph name="trademark" format="2">
  <advance width="814"/>
  <unicode hex="2122"/>
  <outline>
    <contour>
      <point x="374" y="417" type="line"/>
      <point x="438" y="417" type="line"/>
      <point x="438" y="542" type="line"/>
      <point x="437" y="643" type="line"/>
      <point x="439" y="643" type="line"/>
      <point x="551" y="417" type="line"/>
      <point x="601" y="417" type="line"/>
      <point x="713" y="643" type="line"/>
      <point x="716" y="643" type="line"/>
      <point x="714" y="542" type="line"/>
      <point x="714" y="417" type="line"/>
      <point x="780" y="417" type="line"/>
      <point x="780" y="729" type="line"/>
      <point x="688" y="729" type="line"/>
      <point x="579" y="505" type="line"/>
      <point x="575" y="505" type="line"/>
      <point x="463" y="729" type="line"/>
      <point x="374" y="729" type="line"/>
    </contour>
    <contour>
      <point x="143" y="417" type="line"/>
      <point x="211" y="417" type="line"/>
      <point x="211" y="667" type="line"/>
      <point x="325" y="667" type="line"/>
      <point x="325" y="729" type="line"/>
      <point x="34" y="729" type="line"/>
      <point x="34" y="667" type="line"/>
      <point x="143" y="667" type="line"/>
    </contour>
  </outline>
</glyph>
<glyph name="estimated" format="2">
  <advance width="853"/>
  <unicode hex="212E"/>
  <outline>
    <contour>
      <point x="457" y="-9" type="curve" smooth="yes"/>
      <point x="561" y="-9"/>
      <point x="667" y="27"/>
      <point x="735" y="90" type="curve"/>
      <point x="715" y="122" type="line"/>
      <point x="654" y="67"/>
      <point x="557" y="29"/>
      <point x="457" y="29" type="curve" smooth="yes"/>
      <point x="361" y="29"/>
      <point x="289" y="56"/>
      <point x="232" y="110" type="curve"/>
      <point x="232" y="361" type="line"/>
      <point x="763" y="361" type="line"/>
      <point x="763" y="416" type="line" smooth="yes"/>
      <point x="763" y="609"/>
      <point x="632" y="737"/>
      <point x="436" y="737" type="curve" smooth="yes"/>
      <point x="228" y="737"/>
      <point x="90" y="588"/>
      <point x="90" y="364" type="curve" smooth="yes"/>
      <point x="90" y="140"/>
      <point x="237" y="-9"/>
    </contour>
    <contour>
      <point x="232" y="397" type="line"/>
      <point x="232" y="617" type="line"/>
      <point x="282" y="676"/>
      <point x="365" y="701"/>
      <point x="436" y="701" type="curve" smooth="yes"/>
      <point x="511" y="701"/>
      <point x="594" y="678"/>
      <point x="638" y="623" type="curve"/>
      <point x="638" y="397" type="line"/>
    </contour>
  </outline>
</glyph>
<glyph name="arrowup" format="2">
  <advance width="581"/>
  <unicode hex="2191"/>
  <outline>
    <contour>
      <point x="251" y="87" type="line"/>
      <point x="330" y="87" type="line"/>
      <point x="330" y="520" type="line"/>
      <point x="501" y="400" type="line"/>
      <point x="501" y="496" type="line"/>
      <point x="291" y="644" type="line"/>
      <point x="80" y="496" type="line"/>
      <point x="80" y="400" type="line"/>
      <point x="251" y="520" type="line"/>
    </contour>
  </outline>
</glyph>
<glyph name="leftRightArrow" format="2">
  <advance width="819"/>
  <unicode hex="2194"/>
  <outline>
    <contour>
      <point x="227" y="151" type="line"/>
      <point x="322" y="151" type="line"/>
      <point x="203" y="322" type="line"/>
      <point x="616" y="322" type="line"/>
      <point x="497" y="151" type="line"/>
      <point x="592" y="151" type="line"/>
      <point x="740" y="361" type="line"/>
      <point x="592" y="572" type="line"/>
      <point x="497" y="572" type="line"/>
      <point x="616" y="401" type="line"/>
      <point x="203" y="401" type="line"/>
      <point x="322" y="572" type="line"/>
      <point x="227" y="572" type="line"/>
      <point x="79" y="361" type="line"/>
    </contour>
  </outline>
</glyph>
<glyph name="emptyset" format="2">
  <advance width="784"/>
  <unicode hex="2205"/>
  <outline>
    <contour>
      <point x="665" y="559" type="line"/>
      <point x="98" y="214" type="line"/>
      <point x="110" y="171" type="line"/>
      <point x="686" y="521" type="line"/>
    </contour>
    <contour>
      <point x="393" y="-1" type="curve" smooth="yes"/>
      <point x="590" y="-1"/>
      <point x="752" y="150"/>
      <point x="752" y="366" type="curve" smooth="yes"/>
      <point x="752" y="579"/>
      <point x="590" y="730"/>
      <point x="393" y="730" type="curve" smooth="yes"/>
      <point x="192" y="730"/>
      <point x="32" y="579"/>
      <point x="32" y="366" type="curve" smooth="yes"/>
      <point x="32" y="150"/>
      <point x="192" y="-1"/>
    </contour>
    <contour>
      <point x="393" y="42" type="curve" smooth="yes"/>
      <point x="220" y="42"/>
      <point x="78" y="179"/>
      <point x="78" y="366" type="curve" smooth="yes"/>
      <point x="78" y="552"/>
      <point x="220" y="687"/>
      <point x="393" y="687" type="curve" smooth="yes"/>
      <point x="563" y="687"/>
      <point x="707" y="552"/>
      <point x="707" y="366" type="curve" smooth="yes"/>
      <point x="707" y="179"/>
      <point x="563" y="42"/>
    </contour>
  </outline>
</glyph>
<glyph name="product" format="2">
  <advance width="714"/>
  <unicode hex="220F"/>
  <outline>
    <contour>
      <point x="60" y="-92" type="line"/>
      <point x="153" y="-92" type="line"/>
      <point x="153" y="636" type="line"/>
      <point x="560" y="636" type="line"/>
      <point x="560" y="-92" type="line"/>
      <point x="654" y="-92" type="line"/>
      <point x="654" y="729" type="line"/>
      <point x="60" y="729" type="line"/>
    </contour>
  </outline>
</glyph>
<glyph name="summation" format="2">
  <advance width="645"/>
  <unicode hex="2211"/>
  <outline>
    <contour>
      <point x="30" y="-92" type="line"/>
      <point x="616" y="-92" type="line"/>
      <point x="616" y="-4" type="line"/>
      <point x="148" y="-4" type="line"/>
      <point x="148" y="1" type="line"/>
      <point x="465" y="318" type="line"/>
      <point x="148" y="636" type="line"/>
      <point x="148" y="641" type="line"/>
      <point x="616" y="641" type="line"/>
      <point x="616" y="729" type="line"/>
      <point x="30" y="729" type="line"/>
      <point x="30" y="633" type="line"/>
      <point x="339" y="324" type="line"/>
      <point x="339" y="314" type="line"/>
      <point x="30" y="3" type="line"/>
    </contour>
  </outline>
</glyph>
<glyph name="radical" format="2">
  <advance width="692"/>
  <unicode hex="221A"/>
  <outline>
    <contour>
      <point x="237" y="-92" type="line"/>
      <point x="333" y="-92" type="line"/>
      <point x="671" y="729" type="line"/>
      <point x="569" y="729" type="line"/>
      <point x="278" y="23" type="line"/>
      <point x="273" y="23" type="line"/>
      <point x="166" y="375" type="line"/>
      <point x="24" y="375" type="line"/>
      <point x="24" y="298" type="line"/>
      <point x="116" y="298" type="line"/>
    </contour>
  </outline>
</glyph>
<glyph name="infinity" format="2">
  <advance width="912"/>
  <unicode hex="221E"/>
  <outline>
    <contour>
      <point x="238" y="139" type="curve" smooth="yes"/>
      <point x="339" y="139"/>
      <point x="407" y="212"/>
      <point x="456" y="299" type="curve"/>
      <point x="510" y="207"/>
      <point x="576" y="139"/>
      <point x="675" y="139" type="curve" smooth="yes"/>
      <point x="800" y="139"/>
      <point x="876" y="241"/>
      <point x="876" y="363" type="curve" smooth="yes"/>
      <point x="876" y="490"/>
      <point x="800" y="591"/>
      <point x="675" y="591" type="curve" smooth="yes"/>
      <point x="570" y="591"/>
      <point x="507" y="515"/>
      <point x="456" y="431" type="curve"/>
      <point x="407" y="516"/>
      <point x="341" y="591"/>
      <point x="239" y="591" type="curve" smooth="yes"/>
      <point x="114" y="591"/>
      <point x="37" y="491"/>
      <point x="37" y="363" type="curve" smooth="yes"/>
      <point x="37" y="233"/>
      <point x="115" y="139"/>
    </contour>
    <contour>
      <point x="241" y="227" type="curve" smooth="yes"/>
      <point x="167" y="227"/>
      <point x="117" y="283"/>
      <point x="117" y="365" type="curve" smooth="yes"/>
      <point x="117" y="443"/>
      <point x="166" y="503"/>
      <point x="240" y="503" type="curve" smooth="yes"/>
      <point x="312" y="503"/>
      <point x="359" y="452"/>
      <point x="417" y="365" type="curve"/>
      <point x="358" y="273"/>
      <point x="308" y="227"/>
    </contour>
    <contour>
      <point x="671" y="227" type="curve" smooth="yes"/>
      <point x="598" y="227"/>
      <point x="555" y="277"/>
      <point x="497" y="365" type="curve"/>
      <point x="554" y="451"/>
      <point x="599" y="503"/>
      <point x="671" y="503" type="curve" smooth="yes"/>
      <point x="746" y="503"/>
      <point x="796" y="443"/>
      <point x="796" y="365" type="curve" smooth="yes"/>
      <point x="796" y="290"/>
      <point x="746" y="227"/>
    </contour>
  </outline>
</glyph>
<glyph name="integral" format="2">
  <advance width="472"/>
  <unicode hex="222B"/>
  <outline>
    <contour>
      <point x="23" y="-92" type="line"/>
      <point x="199" y="-92" type="line" smooth="yes"/>
      <point x="257" y="-92"/>
      <point x="282" y="-53"/>
      <point x="282" y="-1" type="curve" smooth="yes"/>
      <point x="282" y="648" type="line"/>
      <point x="449" y="648" type="line"/>
      <point x="449" y="729" type="line"/>
      <point x="270" y="729" type="line" smooth="yes"/>
      <point x="220" y="729"/>
      <point x="189" y="693"/>
      <point x="189" y="636" type="curve" smooth="yes"/>
      <point x="189" y="-12" type="line"/>
      <point x="23" y="-12" type="line"/>
    </contour>
  </outline>
</glyph>
<glyph name="approxequal" format="2">
  <advance width="720"/>
  <unicode hex="2248"/>
  <outline>
    <contour>
      <point x="153" y="389" type="curve"/>
      <point x="202" y="389" type="line"/>
      <point x="198" y="422"/>
      <point x="207" y="450"/>
      <point x="250" y="450" type="curve" smooth="yes"/>
      <point x="300" y="450"/>
      <point x="375" y="385"/>
      <point x="451" y="385" type="curve" smooth="yes"/>
      <point x="511" y="385"/>
      <point x="559" y="423"/>
      <point x="546" y="526" type="curve"/>
      <point x="497" y="526" type="line"/>
      <point x="499" y="490"/>
      <point x="490" y="463"/>
      <point x="447" y="463" type="curve" smooth="yes"/>
      <point x="392" y="463"/>
      <point x="318" y="529"/>
      <point x="248" y="529" type="curve" smooth="yes"/>
      <point x="185" y="529"/>
      <point x="140" y="485"/>
    </contour>
    <contour>
      <point x="153" y="206" type="curve"/>
      <point x="202" y="206" type="line"/>
      <point x="198" y="241"/>
      <point x="209" y="269"/>
      <point x="250" y="269" type="curve" smooth="yes"/>
      <point x="300" y="269"/>
      <point x="375" y="203"/>
      <point x="451" y="203" type="curve" smooth="yes"/>
      <point x="511" y="203"/>
      <point x="559" y="240"/>
      <point x="546" y="344" type="curve"/>
      <point x="497" y="344" type="line"/>
      <point x="499" y="312"/>
      <point x="492" y="281"/>
      <point x="447" y="281" type="curve" smooth="yes"/>
      <point x="392" y="281"/>
      <point x="318" y="345"/>
      <point x="248" y="345" type="curve" smooth="yes"/>
      <point x="184" y="345"/>
      <point x="140" y="302"/>
    </contour>
  </outline>
</glyph>
<glyph name="notequal" format="2">
  <advance width="720"/>
  <unicode hex="2260"/>
  <outline>
    <contour>
      <point x="181" y="110" type="line"/>
      <point x="260" y="110" type="line"/>
      <point x="540" y="611" type="line"/>
      <point x="460" y="611" type="line"/>
    </contour>
    <contour>
      <point x="111" y="214" type="line"/>
      <point x="609" y="214" type="line"/>
      <point x="609" y="296" type="line"/>
      <point x="111" y="296" type="line"/>
    </contour>
    <contour>
      <point x="111" y="434" type="line"/>
      <point x="609" y="434" type="line"/>
      <point x="609" y="516" type="line"/>
      <point x="111" y="516" type="line"/>
    </contour>
  </outline>
</glyph>
<glyph name="lessequal" format="2">
  <advance width="720"/>
  <unicode hex="2264"/>
  <outline>
    <contour>
      <point x="616" y="124" type="line"/>
      <point x="616" y="221" type="line"/>
      <point x="168" y="372" type="line"/>
      <point x="168" y="380" type="line"/>
      <point x="616" y="531" type="line"/>
      <point x="616" y="629" type="line"/>
      <point x="79" y="431" type="line"/>
      <point x="79" y="320" type="line"/>
    </contour>
    <contour>
      <point x="79" y="0" type="line"/>
      <point x="616" y="0" type="line"/>
      <point x="616" y="80" type="line"/>
      <point x="79" y="80" type="line"/>
    </contour>
  </outline>
</glyph>
<glyph name="greaterequal" format="2">
  <advance width="720"/>
  <unicode hex="2265"/>
  <outline>
    <contour>
      <point x="46" y="124" type="line"/>
      <point x="583" y="320" type="line"/>
      <point x="583" y="431" type="line"/>
      <point x="46" y="629" type="line"/>
      <point x="46" y="531" type="line"/>
      <point x="495" y="380" type="line"/>
      <point x="495" y="372" type="line"/>
      <point x="46" y="221" type="line"/>
    </contour>
    <contour>
      <point x="46" y="0" type="line"/>
      <point x="583" y="0" type="line"/>
      <point x="583" y="80" type="line"/>
      <point x="46" y="80" type="line"/>
    </contour>
  </outline>
</glyph>
<glyph name="whiteCircle" format="2">
  <advance width="921"/>
  <unicode hex="25CB"/>
  <anchor x="461" y="365" name="center"/>
  <outline>
    <contour>
      <point x="461" y="-29" type="curve" smooth="yes"/>
      <point x="705" y="-29"/>
      <point x="873" y="128"/>
      <point x="873" y="360" type="curve" smooth="yes"/>
      <point x="873" y="364"/>
      <point x="873" y="367"/>
      <point x="873" y="371" type="curve" smooth="yes"/>
      <point x="873" y="603"/>
      <point x="705" y="759"/>
      <point x="461" y="759" type="curve" smooth="yes"/>
      <point x="216" y="759"/>
      <point x="48" y="604"/>
      <point x="48" y="371" type="curve" smooth="yes"/>
      <point x="48" y="367"/>
      <point x="48" y="364"/>
      <point x="48" y="360" type="curve" smooth="yes"/>
      <point x="48" y="128"/>
      <point x="216" y="-29"/>
    </contour>
    <contour>
      <point x="461" y="19" type="curve" smooth="yes"/>
      <point x="246" y="19"/>
      <point x="98" y="157"/>
      <point x="98" y="360" type="curve" smooth="yes"/>
      <point x="98" y="364"/>
      <point x="98" y="367"/>
      <point x="98" y="371" type="curve" smooth="yes"/>
      <point x="98" y="573"/>
      <point x="246" y="713"/>
      <point x="461" y="713" type="curve" smooth="yes"/>
      <point x="676" y="713"/>
      <point x="825" y="573"/>
      <point x="825" y="371" type="curve" smooth="yes"/>
      <point x="825" y="367"/>
      <point x="825" y="364"/>
      <point x="825" y="360" type="curve" smooth="yes"/>
      <point x="825" y="156"/>
      <point x="676" y="19"/>
    </contour>
  </outline>
</glyph>
<glyph name="blackCircle" format="2">
  <advance width="921"/>
  <unicode hex="25CF"/>
  <anchor x="461" y="365" name="center"/>
  <outline>
    <contour>
      <point x="461" y="-29" type="curve" smooth="yes"/>
      <point x="216" y="-29"/>
      <point x="48" y="128"/>
      <point x="48" y="360" type="curve" smooth="yes"/>
      <point x="48" y="364"/>
      <point x="48" y="367"/>
      <point x="48" y="371" type="curve" smooth="yes"/>
      <point x="48" y="604"/>
      <point x="216" y="759"/>
      <point x="461" y="759" type="curve" smooth="yes"/>
      <point x="705" y="759"/>
      <point x="873" y="603"/>
      <point x="873" y="371" type="curve" smooth="yes"/>
      <point x="873" y="367"/>
      <point x="873" y="364"/>
      <point x="873" y="360" type="curve" smooth="yes"/>
      <point x="873" y="128"/>
      <point x="705" y="-29"/>
    </contour>
  </outline>
</glyph>
<glyph name="whiteFrowningFace" format="2">
  <advance width="876"/>
  <unicode hex="2639"/>
  <outline>
    <contour>
      <point x="439" y="-10" type="curve" smooth="yes"/>
      <point x="662" y="-10"/>
      <point x="824" y="141"/>
      <point x="824" y="366" type="curve" smooth="yes"/>
      <point x="824" y="588"/>
      <point x="662" y="739"/>
      <point x="439" y="739" type="curve" smooth="yes"/>
      <point x="215" y="739"/>
      <point x="52" y="588"/>
      <point x="52" y="366" type="curve" smooth="yes"/>
      <point x="52" y="141"/>
      <point x="215" y="-10"/>
    </contour>
    <contour>
      <point x="249" y="185" type="line"/>
      <point x="282" y="239"/>
      <point x="351" y="278"/>
      <point x="439" y="278" type="curve" smooth="yes"/>
      <point x="527" y="278"/>
      <point x="595" y="239"/>
      <point x="628" y="185" type="curve"/>
      <point x="664" y="200" type="line"/>
      <point x="628" y="272"/>
      <point x="547" y="321"/>
      <point x="439" y="321" type="curve" smooth="yes"/>
      <point x="330" y="321"/>
      <point x="249" y="272"/>
      <point x="213" y="200" type="curve"/>
    </contour>
    <contour>
      <point x="439" y="34" type="curve" smooth="yes"/>
      <point x="241" y="34"/>
      <point x="100" y="168"/>
      <point x="100" y="366" type="curve" smooth="yes"/>
      <point x="100" y="563"/>
      <point x="241" y="695"/>
      <point x="439" y="695" type="curve" smooth="yes"/>
      <point x="634" y="695"/>
      <point x="776" y="563"/>
      <point x="776" y="366" type="curve" smooth="yes"/>
      <point x="776" y="168"/>
      <point x="635" y="34"/>
    </contour>
    <contour>
      <point x="351" y="392" type="curve" smooth="yes"/>
      <point x="372" y="392"/>
      <point x="383" y="406"/>
      <point x="383" y="429" type="curve" smooth="yes"/>
      <point x="383" y="488" type="line" smooth="yes"/>
      <point x="383" y="511"/>
      <point x="372" y="525"/>
      <point x="351" y="525" type="curve" smooth="yes"/>
      <point x="330" y="525"/>
      <point x="319" y="511"/>
      <point x="319" y="488" type="curve" smooth="yes"/>
      <point x="319" y="429" type="line" smooth="yes"/>
      <point x="319" y="406"/>
      <point x="330" y="392"/>
    </contour>
    <contour>
      <point x="525" y="392" type="curve" smooth="yes"/>
      <point x="547" y="392"/>
      <point x="558" y="406"/>
      <point x="558" y="429" type="curve" smooth="yes"/>
      <point x="558" y="488" type="line" smooth="yes"/>
      <point x="558" y="511"/>
      <point x="547" y="525"/>
      <point x="525" y="525" type="curve" smooth="yes"/>
      <point x="505" y="525"/>
      <point x="494" y="511"/>
      <point x="494" y="488" type="curve" smooth="yes"/>
      <point x="494" y="429" type="line" smooth="yes"/>
      <point x="494" y="406"/>
      <point x="505" y="392"/>
    </contour>
  </outline>
</glyph>
<glyph name="whiteSmilingFace" format="2">
  <advance width="876"/>
  <unicode hex="263A"/>
  <outline>
    <contour>
      <point x="439" y="-10" type="curve" smooth="yes"/>
      <point x="662" y="-10"/>
      <point x="824" y="141"/>
      <point x="824" y="366" type="curve" smooth="yes"/>
      <point x="824" y="588"/>
      <point x="662" y="739"/>
      <point x="439" y="739" type="curve" smooth="yes"/>
      <point x="215" y="739"/>
      <point x="52" y="588"/>
      <point x="52" y="366" type="curve" smooth="yes"/>
      <point x="52" y="141"/>
      <point x="215" y="-10"/>
    </contour>
    <contour>
      <point x="437" y="111" type="curve" smooth="yes"/>
      <point x="573" y="111"/>
      <point x="670" y="189"/>
      <point x="689" y="306" type="curve"/>
      <point x="722" y="306" type="line"/>
      <point x="722" y="328" type="line"/>
      <point x="604" y="328" type="line"/>
      <point x="604" y="306" type="line"/>
      <point x="642" y="306" type="line"/>
      <point x="627" y="215"/>
      <point x="545" y="155"/>
      <point x="437" y="155" type="curve" smooth="yes"/>
      <point x="329" y="155"/>
      <point x="248" y="217"/>
      <point x="233" y="306" type="curve"/>
      <point x="273" y="306" type="line"/>
      <point x="273" y="328" type="line"/>
      <point x="154" y="328" type="line"/>
      <point x="154" y="306" type="line"/>
      <point x="187" y="306" type="line"/>
      <point x="205" y="190"/>
      <point x="302" y="111"/>
    </contour>
    <contour>
      <point x="439" y="34" type="curve" smooth="yes"/>
      <point x="241" y="34"/>
      <point x="100" y="168"/>
      <point x="100" y="366" type="curve" smooth="yes"/>
      <point x="100" y="563"/>
      <point x="241" y="695"/>
      <point x="439" y="695" type="curve" smooth="yes"/>
      <point x="634" y="695"/>
      <point x="776" y="563"/>
      <point x="776" y="366" type="curve" smooth="yes"/>
      <point x="776" y="168"/>
      <point x="635" y="34"/>
    </contour>
    <contour>
      <point x="351" y="392" type="curve" smooth="yes"/>
      <point x="372" y="392"/>
      <point x="383" y="406"/>
      <point x="383" y="429" type="curve" smooth="yes"/>
      <point x="383" y="488" type="line" smooth="yes"/>
      <point x="383" y="511"/>
      <point x="372" y="525"/>
      <point x="351" y="525" type="curve" smooth="yes"/>
      <point x="330" y="525"/>
      <point x="319" y="511"/>
      <point x="319" y="488" type="curve" smooth="yes"/>
      <point x="319" y="429" type="line" smooth="yes"/>
      <point x="319" y="406"/>
      <point x="330" y="392"/>
    </contour>
    <contour>
      <point x="525" y="392" type="curve" smooth="yes"/>
      <point x="547" y="392"/>
      <point x="558" y="406"/>
      <point x="558" y="429" type="curve" smooth="yes"/>
      <point x="558" y="488" type="line" smooth="yes"/>
      <point x="558" y="511"/>
      <point x="547" y="525"/>
      <point x="525" y="525" type="curve" smooth="yes"/>
      <point x="505" y="525"/>
      <point x="494" y="511"/>
      <point x="494" y="488" type="curve" smooth="yes"/>
      <point x="494" y="429" type="line" smooth="yes"/>
      <point x="494" y="406"/>
      <point x="505" y="392"/>
    </contour>
  </outline>
</glyph>
<glyph name="checkmark" format="2">
  <advance width="833"/>
  <unicode hex="2713"/>
  <outline>
    <contour>
      <point x="267" y="112" type="line"/>
      <point x="770" y="551" type="line"/>
      <point x="723" y="612" type="line"/>
      <point x="274" y="226" type="line"/>
      <point x="117" y="431" type="line"/>
      <point x="63" y="378" type="line"/>
    </contour>
  </outline>
</glyph>
<glyph name="fi" format="2">
  <advance width="574"/>
  <unicode hex="FB01"/>
  <anchor x="287" y="0" name="caret_1"/>
  <outline>
    <contour>
      <point x="136" y="0" type="line"/>
      <point x="233" y="0" type="line"/>
      <point x="233" y="446" type="line"/>
      <point x="418" y="446" type="line"/>
      <point x="418" y="0" type="line"/>
      <point x="514" y="0" type="line"/>
      <point x="514" y="525" type="line"/>
      <point x="233" y="525" type="line"/>
      <point x="233" y="650" type="line"/>
      <point x="514" y="650" type="line"/>
      <point x="514" y="729" type="line"/>
      <point x="223" y="729" type="line" smooth="yes"/>
      <point x="168" y="729"/>
      <point x="136" y="700"/>
      <point x="136" y="647" type="curve" smooth="yes"/>
      <point x="136" y="525" type="line"/>
      <point x="26" y="525" type="line"/>
      <point x="26" y="446" type="line"/>
      <point x="136" y="446" type="line"/>
    </contour>
  </outline>
</glyph>
<glyph name="fl" format="2">
  <advance width="617"/>
  <unicode hex="FB02"/>
  <anchor x="308.5" y="0" name="caret_1"/>
  <outline>
    <contour>
      <point x="136" y="0" type="line"/>
      <point x="233" y="0" type="line"/>
      <point x="233" y="446" type="line"/>
      <point x="376" y="446" type="line"/>
      <point x="376" y="525" type="line"/>
      <point x="233" y="525" type="line"/>
      <point x="233" y="650" type="line"/>
      <point x="460" y="650" type="line"/>
      <point x="460" y="0" type="line"/>
      <point x="557" y="0" type="line"/>
      <point x="557" y="729" type="line"/>
      <point x="223" y="729" type="line" smooth="yes"/>
      <point x="168" y="729"/>
      <point x="136" y="700"/>
      <point x="136" y="647" type="curve" smooth="yes"/>
      <point x="136" y="525" type="line"/>
      <point x="26" y="525" type="line"/>
      <point x="26" y="446" type="line"/>
      <point x="136" y="446" type="line"/>
    </contour>
  </outline>
</glyph>
<glyph name="_AE.E" format="2">
  <advance width="764"/>
  <anchor x="296" y="0" name="#entry"/>
  <outline>
    <contour>
      <point x="40" y="642" type="line"/>
      <point x="722" y="642" type="line"/>
      <point x="722" y="729" type="line"/>
      <point x="40" y="729" type="line"/>
    </contour>
    <contour>
      <point x="296" y="0" type="line"/>
      <point x="722" y="0" type="line"/>
      <point x="722" y="87" type="line"/>
      <point x="296" y="87" type="line"/>
    </contour>
    <contour>
      <point x="179" y="332" type="line"/>
      <point x="569" y="332" type="line"/>
      <point x="569" y="414" type="line"/>
      <point x="179" y="414" type="line"/>
    </contour>
  </outline>
</glyph>
<glyph name="_Euro.bars" format="2">
  <advance width="643"/>
  <anchor x="531" y="0" name="_bottom"/>
  <outline>
    <contour>
      <point x="603" y="251" type="line"/>
      <point x="603" y="315" type="line"/>
      <point x="180" y="311" type="line"/>
      <point x="180" y="255" type="line"/>
    </contour>
    <contour>
      <point x="40" y="251" type="line"/>
      <point x="180" y="255" type="line"/>
      <point x="180" y="311" type="line"/>
      <point x="40" y="315" type="line"/>
    </contour>
    <contour>
      <point x="40" y="415" type="line"/>
      <point x="180" y="419" type="line"/>
      <point x="180" y="475" type="line"/>
      <point x="40" y="479" type="line"/>
    </contour>
    <contour>
      <point x="603" y="415" type="line"/>
      <point x="603" y="479" type="line"/>
      <point x="180" y="475" type="line"/>
      <point x="180" y="419" type="line"/>
    </contour>
  </outline>
</glyph>
<glyph name="_OE.O" format="2">
  <advance width="795"/>
  <anchor x="702" y="0" name="#exit"/>
  <outline>
    <contour>
      <point x="461" y="0" type="curve" smooth="yes"/>
      <point x="755" y="0" type="line"/>
      <point x="755" y="87" type="line"/>
      <point x="454" y="87" type="line" smooth="yes"/>
      <point x="265" y="87"/>
      <point x="151" y="178"/>
      <point x="151" y="327" type="curve" smooth="yes"/>
      <point x="151" y="402" type="line" smooth="yes"/>
      <point x="151" y="557"/>
      <point x="273" y="642"/>
      <point x="454" y="642" type="curve" smooth="yes"/>
      <point x="755" y="642" type="line"/>
      <point x="755" y="729" type="line"/>
      <point x="461" y="729" type="line" smooth="yes"/>
      <point x="193" y="729"/>
      <point x="45" y="595"/>
      <point x="45" y="378" type="curve" smooth="yes"/>
      <point x="45" y="352" type="line" smooth="yes"/>
      <point x="45" y="130"/>
      <point x="200" y="0"/>
    </contour>
  </outline>
</glyph>
<glyph name="_Stem.Uppercase" format="2">
  <advance width="285"/>
  <outline>
    <contour>
      <point x="105" y="0" type="line"/>
      <point x="206" y="0" type="line"/>
      <point x="206" y="729" type="line"/>
      <point x="105" y="729" type="line"/>
    </contour>
  </outline>
</glyph>
<glyph name="_bitcoin.bars" format="2">
  <advance width="349"/>
  <anchor x="217" y="0" name="_bottom"/>
  <outline>
    <contour>
      <point x="232" y="703" type="line"/>
      <point x="300" y="703" type="line"/>
      <point x="309" y="850" type="line"/>
      <point x="223" y="850" type="line"/>
    </contour>
    <contour>
      <point x="40" y="-121" type="line"/>
      <point x="126" y="-121" type="line"/>
      <point x="117" y="24" type="line"/>
      <point x="49" y="24" type="line"/>
    </contour>
    <contour>
      <point x="223" y="-121" type="line"/>
      <point x="309" y="-121" type="line"/>
      <point x="300" y="24" type="line"/>
      <point x="231" y="24" type="line"/>
    </contour>
    <contour>
      <point x="49" y="703" type="line"/>
      <point x="117" y="703" type="line"/>
      <point x="126" y="850" type="line"/>
      <point x="40" y="850" type="line"/>
    </contour>
  </outline>
</glyph>
<glyph name="_copyright.C" format="2">
  <advance width="560"/>
  <anchor x="287" y="365" name="_center"/>
  <outline>
    <contour>
      <point x="288" y="123" type="curve" smooth="yes"/>
      <point x="413" y="123"/>
      <point x="512" y="195"/>
      <point x="520" y="290" type="curve"/>
      <point x="443" y="290" type="line"/>
      <point x="428" y="227"/>
      <point x="364" y="193"/>
      <point x="291" y="193" type="curve" smooth="yes"/>
      <point x="189" y="193"/>
      <point x="122" y="246"/>
      <point x="122" y="344" type="curve" smooth="yes"/>
      <point x="122" y="386" type="line" smooth="yes"/>
      <point x="122" y="479"/>
      <point x="185" y="537"/>
      <point x="291" y="537" type="curve" smooth="yes"/>
      <point x="364" y="537"/>
      <point x="428" y="503"/>
      <point x="443" y="442" type="curve"/>
      <point x="520" y="442" type="line"/>
      <point x="512" y="536"/>
      <point x="414" y="607"/>
      <point x="288" y="607" type="curve" smooth="yes"/>
      <point x="141" y="607"/>
      <point x="40" y="515"/>
      <point x="40" y="365" type="curve" smooth="yes"/>
      <point x="40" y="364" type="line" smooth="yes"/>
      <point x="40" y="220"/>
      <point x="132" y="123"/>
    </contour>
  </outline>
</glyph>
<glyph name="_dollar.bar" format="2">
  <advance width="171"/>
  <anchor x="85" y="0" name="_bottom"/>
  <outline>
    <contour>
      <point x="40" y="-121" type="line"/>
      <point x="131" y="-121" type="line"/>
      <point x="123" y="26" type="line"/>
      <point x="49" y="26" type="line"/>
    </contour>
    <contour>
      <point x="49" y="711" type="line"/>
      <point x="123" y="711" type="line"/>
      <point x="131" y="850" type="line"/>
      <point x="40" y="850" type="line"/>
    </contour>
  </outline>
</glyph>
<glyph name=".notdef" format="2">
  <advance width="865"/>
  <outline>
    <contour>
      <point x="432" y="738" type="curve" smooth="yes"/>
      <point x="220" y="738"/>
      <point x="50" y="567"/>
      <point x="50" y="356" type="curve" smooth="yes"/>
      <point x="50" y="186"/>
      <point x="158" y="41"/>
      <point x="312" y="-8" type="curve"/>
      <point x="326" y="-12"/>
      <point x="337" y="-5"/>
      <point x="337" y="10" type="curve" smooth="yes"/>
      <point x="337" y="19"/>
      <point x="337" y="48"/>
      <point x="337" y="80" type="curve"/>
      <point x="231" y="58"/>
      <point x="207" y="126"/>
      <point x="207" y="126" type="curve"/>
      <point x="191" y="171"/>
      <point x="167" y="182"/>
      <point x="167" y="182" type="curve"/>
      <point x="132" y="206"/>
      <point x="168" y="206"/>
      <point x="168" y="206" type="curve"/>
      <point x="206" y="203"/>
      <point x="228" y="165"/>
      <point x="228" y="165" type="curve"/>
      <point x="260" y="107"/>
      <point x="316" y="125"/>
      <point x="337" y="134" type="curve"/>
      <point x="341" y="158"/>
      <point x="352" y="176"/>
      <point x="363" y="186" type="curve"/>
      <point x="277" y="196"/>
      <point x="188" y="228"/>
      <point x="188" y="376" type="curve" smooth="yes"/>
      <point x="188" y="416"/>
      <point x="203" y="451"/>
      <point x="228" y="477" type="curve"/>
      <point x="224" y="487"/>
      <point x="210" y="526"/>
      <point x="232" y="579" type="curve"/>
      <point x="232" y="579"/>
      <point x="263" y="590"/>
      <point x="336" y="539" type="curve"/>
      <point x="368" y="549"/>
      <point x="400" y="553"/>
      <point x="432" y="553" type="curve" smooth="yes"/>
      <point x="465" y="553"/>
      <point x="497" y="549"/>
      <point x="529" y="539" type="curve"/>
      <point x="602" y="590"/>
      <point x="633" y="579"/>
      <point x="633" y="579" type="curve"/>
      <point x="655" y="526"/>
      <point x="641" y="487"/>
      <point x="637" y="477" type="curve"/>
      <point x="662" y="451"/>
      <point x="677" y="416"/>
      <point x="677" y="376" type="curve" smooth="yes"/>
      <point x="677" y="226"/>
      <point x="588" y="196"/>
      <point x="502" y="186" type="curve"/>
      <point x="515" y="175"/>
      <point x="528" y="150"/>
      <point x="528" y="115" type="curve" smooth="yes"/>
      <point x="528" y="65"/>
      <point x="528" y="21"/>
      <point x="528" y="10" type="curve" smooth="yes"/>
      <point x="528" y="-5"/>
      <point x="539" y="-12"/>
      <point x="555" y="-8" type="curve"/>
      <point x="707" y="41"/>
      <point x="815" y="186"/>
      <point x="815" y="356" type="curve" smooth="yes"/>
      <point x="815" y="567"/>
      <point x="645" y="738"/>
    </contour>
    <contour>
      <point x="196" y="189" type="line"/>
      <point x="195" y="186"/>
      <point x="191" y="186"/>
      <point x="188" y="187" type="curve"/>
      <point x="185" y="189"/>
      <point x="184" y="190"/>
      <point x="185" y="192" type="curve"/>
      <point x="185" y="194"/>
      <point x="188" y="196"/>
      <point x="191" y="192" type="curve"/>
      <point x="195" y="192"/>
      <point x="196" y="190"/>
      <point x="196" y="189" type="curve"/>
    </contour>
    <contour>
      <point x="209" y="171" type="line"/>
      <point x="207" y="168"/>
      <point x="205" y="171"/>
      <point x="202" y="172" type="curve"/>
      <point x="199" y="175"/>
      <point x="199" y="179"/>
      <point x="200" y="180" type="curve"/>
      <point x="203" y="182"/>
      <point x="206" y="182"/>
      <point x="209" y="179" type="curve"/>
      <point x="210" y="176"/>
      <point x="211" y="172"/>
      <point x="209" y="171" type="curve"/>
    </contour>
    <contour>
      <point x="227" y="148" type="line"/>
      <point x="224" y="146"/>
      <point x="218" y="148"/>
      <point x="216" y="151" type="curve"/>
      <point x="214" y="154"/>
      <point x="214" y="160"/>
      <point x="216" y="161" type="curve"/>
      <point x="218" y="162"/>
      <point x="224" y="161"/>
      <point x="227" y="158" type="curve"/>
      <point x="228" y="154"/>
      <point x="228" y="150"/>
      <point x="227" y="148" type="curve"/>
    </contour>
    <contour>
      <point x="246" y="127" type="line"/>
      <point x="244" y="125"/>
      <point x="239" y="126"/>
      <point x="237" y="129" type="curve"/>
      <point x="234" y="132"/>
      <point x="232" y="136"/>
      <point x="234" y="139" type="curve"/>
      <point x="237" y="141"/>
      <point x="241" y="140"/>
      <point x="244" y="137" type="curve"/>
      <point x="246" y="134"/>
      <point x="248" y="129"/>
      <point x="246" y="127" type="curve"/>
    </contour>
    <contour>
      <point x="274" y="115" type="line"/>
      <point x="273" y="112"/>
      <point x="269" y="111"/>
      <point x="264" y="112" type="curve"/>
      <point x="260" y="114"/>
      <point x="259" y="116"/>
      <point x="259" y="120" type="curve"/>
      <point x="260" y="123"/>
      <point x="263" y="125"/>
      <point x="269" y="123" type="curve"/>
      <point x="271" y="122"/>
      <point x="274" y="118"/>
      <point x="274" y="115" type="curve"/>
    </contour>
    <contour>
      <point x="305" y="114" type="line"/>
      <point x="305" y="111"/>
      <point x="302" y="107"/>
      <point x="298" y="105" type="curve"/>
      <point x="294" y="105"/>
      <point x="291" y="111"/>
      <point x="291" y="114" type="curve"/>
      <point x="291" y="116"/>
      <point x="294" y="118"/>
      <point x="298" y="118" type="curve"/>
      <point x="302" y="118"/>
      <point x="305" y="116"/>
      <point x="305" y="114" type="curve"/>
    </contour>
    <contour>
      <point x="334" y="118" type="line"/>
      <point x="336" y="115"/>
      <point x="331" y="112"/>
      <point x="327" y="111" type="curve"/>
      <point x="323" y="111"/>
      <point x="319" y="112"/>
      <point x="319" y="115" type="curve"/>
      <point x="317" y="118"/>
      <point x="320" y="122"/>
      <point x="326" y="122" type="curve"/>
      <point x="330" y="123"/>
      <point x="334" y="120"/>
      <point x="334" y="118" type="curve"/>
    </contour>
  </outline>
</glyph>
<glyph name="_published.P" format="2">
  <advance width="486"/>
  <anchor x="215" y="365" name="_center"/>
  <outline>
    <contour>
      <point x="40" y="152" type="line"/>
      <point x="114" y="152" type="line"/>
      <point x="114" y="519" type="line"/>
      <point x="269" y="519" type="line" smooth="yes"/>
      <point x="330" y="519"/>
      <point x="371" y="497"/>
      <point x="371" y="439" type="curve" smooth="yes"/>
      <point x="371" y="388"/>
      <point x="342" y="357"/>
      <point x="269" y="357" type="curve" smooth="yes"/>
      <point x="102" y="357" type="line"/>
      <point x="102" y="304" type="line"/>
      <point x="282" y="304" type="line" smooth="yes"/>
      <point x="384" y="304"/>
      <point x="446" y="351"/>
      <point x="446" y="441" type="curve" smooth="yes"/>
      <point x="446" y="528"/>
      <point x="389" y="579"/>
      <point x="282" y="579" type="curve" smooth="yes"/>
      <point x="40" y="579" type="line"/>
    </contour>
  </outline>
</glyph>
<glyph name="_tail.Q" format="2">
  <advance width="412"/>
  <anchor x="84" y="0" name="_bottom"/>
  <outline>
    <contour>
      <point x="112" y="-170" type="curve" smooth="yes"/>
      <point x="372" y="-170" type="line"/>
      <point x="372" y="-93" type="line"/>
      <point x="128" y="-93" type="line"/>
      <point x="128" y="14" type="line"/>
      <point x="40" y="14" type="line"/>
      <point x="40" y="-106" type="line" smooth="yes"/>
      <point x="40" y="-146"/>
      <point x="58" y="-170"/>
    </contour>
  </outline>
</glyph>
<glyph name="_tail.Q.ss01" format="2">
  <advance width="496"/>
  <anchor x="-7" y="1" name="_bottom"/>
  <outline>
    <contour>
      <point x="456" y="-30" type="line"/>
      <point x="456" y="64" type="line"/>
      <point x="40" y="321" type="line"/>
      <point x="40" y="227" type="line"/>
    </contour>
  </outline>
</glyph>
<glyph name="_yen.bars" format="2">
  <advance width="570"/>
  <anchor x="285" y="0" name="_bottom"/>
  <outline>
    <contour>
      <point x="40" y="293" type="line"/>
      <point x="530" y="293" type="line"/>
      <point x="530" y="363" type="line"/>
      <point x="40" y="363" type="line"/>
    </contour>
    <contour>
      <point x="40" y="132" type="line"/>
      <point x="530" y="132" type="line"/>
      <point x="530" y="199" type="line"/>
      <point x="40" y="199" type="line"/>
    </contour>
  </outline>
</glyph>
<glyph name="a.ss01" format="2">
  <advance width="645"/>
  <note>
a
</note>
  <anchor x="311" y="0" name="bottom"/>
  <anchor x="585" y="0" name="ogonek"/>
  <anchor x="328" y="525" name="top"/>
  <outline>
    <contour>
      <point x="258" y="-12" type="curve" smooth="yes"/>
      <point x="348" y="-12"/>
      <point x="443" y="22"/>
      <point x="487" y="76" type="curve"/>
      <point x="492" y="76" type="line"/>
      <point x="499" y="0" type="line"/>
      <point x="585" y="0" type="line"/>
      <point x="585" y="342" type="line" smooth="yes"/>
      <point x="585" y="467"/>
      <point x="491" y="537"/>
      <point x="328" y="537" type="curve" smooth="yes"/>
      <point x="175" y="537"/>
      <point x="67" y="467"/>
      <point x="53" y="352" type="curve"/>
      <point x="148" y="352" type="line"/>
      <point x="158" y="420"/>
      <point x="221" y="460"/>
      <point x="323" y="460" type="curve" smooth="yes"/>
      <point x="426" y="460"/>
      <point x="489" y="421"/>
      <point x="489" y="342" type="curve" smooth="yes"/>
      <point x="489" y="149" type="line"/>
      <point x="454" y="92"/>
      <point x="376" y="55"/>
      <point x="285" y="55" type="curve" smooth="yes"/>
      <point x="197" y="55"/>
      <point x="158" y="92"/>
      <point x="158" y="148" type="curve" smooth="yes"/>
      <point x="158" y="152" type="line" smooth="yes"/>
      <point x="158" y="226"/>
      <point x="217" y="255"/>
      <point x="330" y="255" type="curve" smooth="yes"/>
      <point x="508" y="255" type="line"/>
      <point x="508" y="318" type="line"/>
      <point x="325" y="318" type="line" smooth="yes"/>
      <point x="169" y="318"/>
      <point x="56" y="272"/>
      <point x="56" y="141" type="curve" smooth="yes"/>
      <point x="56" y="46"/>
      <point x="135" y="-12"/>
    </contour>
  </outline>
</glyph>
<glyph name="braceleft.case" format="2">
  <advance width="426"/>
  <outline>
    <contour>
      <point x="206" y="-63" type="curve" smooth="yes"/>
      <point x="387" y="-63" type="line"/>
      <point x="387" y="8" type="line"/>
      <point x="218" y="8" type="line"/>
      <point x="218" y="247" type="line" smooth="yes"/>
      <point x="218" y="311"/>
      <point x="189" y="354"/>
      <point x="142" y="366" type="curve"/>
      <point x="142" y="370" type="line"/>
      <point x="183" y="375"/>
      <point x="218" y="413"/>
      <point x="218" y="485" type="curve" smooth="yes"/>
      <point x="218" y="722" type="line"/>
      <point x="387" y="722" type="line"/>
      <point x="387" y="793" type="line"/>
      <point x="206" y="793" type="line" smooth="yes"/>
      <point x="159" y="793"/>
      <point x="136" y="760"/>
      <point x="136" y="718" type="curve" smooth="yes"/>
      <point x="136" y="489" type="line" smooth="yes"/>
      <point x="136" y="435"/>
      <point x="107" y="405"/>
      <point x="73" y="405" type="curve" smooth="yes"/>
      <point x="35" y="405" type="line"/>
      <point x="35" y="326" type="line"/>
      <point x="73" y="326" type="line" smooth="yes"/>
      <point x="107" y="326"/>
      <point x="136" y="296"/>
      <point x="136" y="241" type="curve" smooth="yes"/>
      <point x="136" y="12" type="line" smooth="yes"/>
      <point x="136" y="-30"/>
      <point x="159" y="-63"/>
    </contour>
  </outline>
</glyph>
<glyph name="bracketleft.case" format="2">
  <advance width="369"/>
  <outline>
    <contour>
      <point x="72" y="-63" type="line"/>
      <point x="330" y="-63" type="line"/>
      <point x="330" y="11" type="line"/>
      <point x="153" y="11" type="line"/>
      <point x="153" y="719" type="line"/>
      <point x="330" y="719" type="line"/>
      <point x="330" y="793" type="line"/>
      <point x="72" y="793" type="line"/>
    </contour>
  </outline>
</glyph>
<glyph name="brevecomb_acutecomb" format="2">
  <anchor x="201" y="525" name="_top"/>
  <outline>
    <contour>
      <point x="201" y="577" type="curve" smooth="yes"/>
      <point x="302" y="577"/>
      <point x="360" y="633"/>
      <point x="362" y="718" type="curve"/>
      <point x="287" y="718" type="line"/>
      <point x="287" y="662"/>
      <point x="252" y="636"/>
      <point x="201" y="636" type="curve" smooth="yes"/>
      <point x="150" y="636"/>
      <point x="115" y="662"/>
      <point x="115" y="718" type="curve"/>
      <point x="40" y="718" type="line"/>
      <point x="42" y="633"/>
      <point x="100" y="577"/>
    </contour>
    <contour>
      <point x="152" y="727" type="line"/>
      <point x="238" y="727" type="line"/>
      <point x="320" y="832" type="line"/>
      <point x="232" y="832" type="line"/>
    </contour>
  </outline>
</glyph>
<glyph name="brevecomb_hookabovecomb" format="2">
  <anchor x="201" y="525" name="_top"/>
  <outline>
    <contour>
      <point x="201" y="577" type="curve" smooth="yes"/>
      <point x="302" y="577"/>
      <point x="360" y="633"/>
      <point x="362" y="718" type="curve"/>
      <point x="287" y="718" type="line"/>
      <point x="287" y="662"/>
      <point x="252" y="636"/>
      <point x="201" y="636" type="curve" smooth="yes"/>
      <point x="150" y="636"/>
      <point x="115" y="662"/>
      <point x="115" y="718" type="curve"/>
      <point x="40" y="718" type="line"/>
      <point x="42" y="633"/>
      <point x="100" y="577"/>
    </contour>
    <contour>
      <point x="196" y="692" type="line"/>
      <point x="247" y="714"/>
      <point x="277" y="742"/>
      <point x="277" y="780" type="curve" smooth="yes"/>
      <point x="277" y="821"/>
      <point x="242" y="845"/>
      <point x="188" y="845" type="curve" smooth="yes"/>
      <point x="170" y="845"/>
      <point x="148" y="842"/>
      <point x="129" y="836" type="curve"/>
      <point x="130" y="797" type="line"/>
      <point x="143" y="802"/>
      <point x="160" y="805"/>
      <point x="174" y="805" type="curve" smooth="yes"/>
      <point x="198" y="805"/>
      <point x="215" y="794"/>
      <point x="215" y="774" type="curve" smooth="yes"/>
      <point x="215" y="753"/>
      <point x="201" y="740"/>
      <point x="170" y="724" type="curve"/>
    </contour>
  </outline>
</glyph>
<glyph name="brevecomb_tildecomb" format="2">
  <anchor x="200" y="525" name="_top"/>
  <outline>
    <contour>
      <point x="200" y="580" type="curve" smooth="yes"/>
      <point x="294" y="580"/>
      <point x="350" y="628"/>
      <point x="360" y="703" type="curve"/>
      <point x="285" y="703" type="line"/>
      <point x="278" y="659"/>
      <point x="245" y="639"/>
      <point x="200" y="639" type="curve" smooth="yes"/>
      <point x="155" y="639"/>
      <point x="122" y="659"/>
      <point x="115" y="703" type="curve"/>
      <point x="40" y="703" type="line"/>
      <point x="50" y="628"/>
      <point x="106" y="580"/>
    </contour>
    <contour>
      <point x="268" y="742" type="curve" smooth="yes"/>
      <point x="323" y="742"/>
      <point x="356" y="775"/>
      <point x="355" y="839" type="curve"/>
      <point x="313" y="839" type="line"/>
      <point x="313" y="817"/>
      <point x="301" y="802"/>
      <point x="273" y="802" type="curve" smooth="yes"/>
      <point x="229" y="802"/>
      <point x="183" y="838"/>
      <point x="129" y="838" type="curve" smooth="yes"/>
      <point x="73" y="838"/>
      <point x="43" y="800"/>
      <point x="45" y="741" type="curve"/>
      <point x="87" y="741" type="line"/>
      <point x="87" y="764"/>
      <point x="99" y="779"/>
      <point x="124" y="779" type="curve" smooth="yes"/>
      <point x="163" y="779"/>
      <point x="209" y="742"/>
    </contour>
  </outline>
</glyph>
<glyph name="caroncomb.alt" format="2">
  <anchor x="-16" y="729" name="_topright"/>
  <outline>
    <contour>
      <point x="40" y="488" type="line"/>
      <point x="120" y="488" type="line"/>
      <point x="167" y="729" type="line"/>
      <point x="87" y="729" type="line"/>
    </contour>
  </outline>
</glyph>
<glyph name="caroncomb.alt.t" format="2">
  <anchor x="-8" y="645" name="_topright"/>
  <outline>
    <contour>
      <point x="40" y="534" type="line"/>
      <point x="121" y="534" type="line"/>
      <point x="161" y="687" type="line"/>
      <point x="80" y="687" type="line"/>
    </contour>
  </outline>
</glyph>
